<?xml version="1.0" encoding="utf-8"?>
<svg viewBox="0 0 500 500" xmlns="http://www.w3.org/2000/svg">
  <path d="M 64.066 62.277 L 378.891 62.277 L 378.891 371.664 L 64.066 371.664 Z" style="fill: rgb(196, 193, 193);"/>
  <path fill="rgb(255,0,0)" stroke="rgb(255,0,0)" stroke-width="0" opacity="0.9764705882352941" d="M 193.624 126.919 C 195.492 126.645 197.656 127.01 200.137 127.319 C 198.665 120.448 198.377 106.909 196.355 105.889 C 194.747 105.08 191.584 109.377 190.524 112.212 C 189.245 115.623 189.403 121.921 190.524 125.602 C 190.715 126.231 190.985 126.865 191.306 127.485 C 192.011 127.237 192.775 127.042 193.624 126.919 Z M 225.503 126.919 C 228.117 127.147 231.033 127.546 233.907 128.06 C 235.239 121.548 237.503 113.467 237.175 109.98 C 236.874 106.759 235.719 103.839 234.455 103.657 C 233.151 103.47 230.896 106.167 229.4 109.237 C 227.826 112.469 226.55 120.713 225.403 126.91 C 225.437 126.913 225.469 126.915 225.503 126.919 Z M 246.498 131.382 C 247.709 131.892 248.711 132.411 249.575 132.965 C 252.075 129.74 254.876 125.62 255.837 122.626 C 257.208 118.357 256.11 112.731 255.837 109.98 C 255.674 108.349 255.93 106.933 255.059 106.634 C 253.869 106.224 250.219 107.279 248.061 109.98 C 245.701 112.934 243.798 122.519 241.882 129.835 C 243.653 130.327 245.232 130.849 246.498 131.382 Z M 256.217 143.656 C 256.409 144.731 256.56 145.966 256.674 147.322 C 261.044 146.928 266.107 146.766 268.332 145.884 C 270.659 144.962 271.631 144.268 272.608 142.537 C 273.859 140.322 274.241 134.98 274.164 132.866 C 274.118 131.601 274.266 130.676 273.387 130.263 C 271.984 129.604 267.047 130.557 264.444 131.75 C 261.872 132.929 259.069 135.633 257.836 137.329 C 256.965 138.527 257.422 139.999 256.668 140.677 C 256.425 140.897 256.075 141.115 255.691 141.284 C 255.886 141.989 256.059 142.77 256.217 143.656 Z M 249.219 202.421 C 249.141 202.617 249.066 202.804 248.993 202.98 C 250.276 203.954 251.476 204.943 252.392 205.766 C 255.209 208.295 257.024 213.45 259.002 214.32 C 260.258 214.873 262.167 214.5 262.5 213.576 C 263.008 212.169 260.253 206.971 258.224 204.65 C 256.303 202.452 252.599 201.82 250.837 199.815 C 250.661 199.616 250.477 199.398 250.287 199.169 C 249.914 200.463 249.555 201.567 249.219 202.421 Z M 216.173 210.232 C 211.22 209.827 205.693 209.197 200.793 208.27 C 200.961 215.01 199.454 226.799 200.877 228.213 C 201.787 229.116 203.56 227.73 204.765 226.353 C 206.678 224.168 207.653 215.402 209.818 214.079 C 211.283 213.185 213.619 213.715 214.873 215.195 C 216.553 217.178 216.31 226.77 217.079 229.634 C 217.457 229.568 217.845 229.619 218.228 229.766 C 219.713 226.858 221.761 215.543 223.815 214.079 C 225.148 213.128 227.051 213.516 228.091 214.823 C 229.896 217.091 228.826 230.089 230.035 231.188 C 230.572 231.677 231.39 231.202 231.978 230.073 C 233.067 227.986 233.133 217.733 233.87 210.783 C 228.511 210.991 221.607 210.676 216.173 210.232 Z M 190.776 227.364 C 188.24 236.056 183.391 249.019 178.723 251.54 C 175.529 253.265 170.384 251.191 168.226 248.936 C 165.931 246.538 165.008 242.241 165.894 237.035 C 167.096 229.967 177.815 213.662 181.231 206.248 C 180.429 206.942 179.666 207.566 179.02 208.061 C 176.64 209.885 174.643 211.142 172.022 211.781 C 169.237 212.46 165.078 212.402 162.693 211.781 C 160.822 211.293 159.297 210.645 158.416 209.177 C 157.328 207.365 156.714 203.786 157.638 200.994 C 158.756 197.616 166.933 192.938 166.191 190.58 C 165.469 188.278 155.917 189.452 153.751 186.861 C 151.676 184.381 151.991 178.822 152.972 175.703 C 153.874 172.842 157.599 169.553 158.805 168.636 C 159.338 168.23 160 168.572 159.971 168.265 C 159.916 167.682 156.272 166.49 155.306 164.545 C 154.051 162.018 153.961 156.463 154.528 153.387 C 154.997 150.838 155.947 148.765 157.638 147.064 C 159.466 145.225 164.892 144.739 165.413 142.973 C 165.896 141.335 162.215 139.404 161.526 137.021 C 160.743 134.314 160.583 130.584 161.526 127.35 C 162.57 123.769 166.652 118.059 168.135 116.565 C 168.798 115.899 168.83 115.983 169.69 115.822 C 171.318 115.515 175.412 114.872 178.243 115.822 C 179.903 116.378 181.723 117.343 183.448 118.59 C 183.474 116.029 183.769 113.501 184.303 111.469 C 185.27 107.79 187.059 104.088 189.745 102.17 C 192.396 100.279 197.789 98.617 200.242 99.938 C 202.842 101.34 203.38 110.588 204.519 111.096 C 205.117 111.364 205.339 110.174 206.074 109.237 C 207.357 107.6 209.325 102.838 211.905 101.425 C 214.415 100.051 219.138 99.787 221.236 100.682 C 222.944 101.411 222.967 105.155 224.346 105.145 C 226.116 105.133 228.754 98.637 231.345 97.706 C 233.609 96.894 236.808 97.543 238.73 98.822 C 240.758 100.171 241.314 105.578 243.008 105.889 C 244.587 106.18 246.172 102.315 248.45 101.425 C 250.986 100.437 255.917 100.479 257.78 100.682 C 258.805 100.795 259.173 100.461 259.725 101.425 C 261.182 103.976 263.949 117.021 262.058 124.114 C 261.844 124.915 261.549 125.766 261.188 126.65 C 263.868 125.489 266.828 124.547 269.11 124.311 C 272.612 123.949 276.928 123.839 278.828 126.171 C 281.237 129.126 280.911 139.076 279.607 143.281 C 278.597 146.531 276.665 148.734 273.775 150.348 C 270.327 152.272 259.533 151.384 259.39 152.951 C 259.235 154.629 271.885 156.848 274.941 160.39 C 277.647 163.525 279.489 169.501 278.052 172.291 C 276.62 175.072 267.399 174.949 266.387 177.127 C 265.578 178.871 268.931 180.899 269.498 183.45 C 270.182 186.525 270.049 192.303 269.498 194.608 C 269.173 195.971 268.984 196.593 267.943 197.211 C 266.441 198.104 260.472 197.298 260.169 198.328 C 259.859 199.378 264.959 200.925 266.387 203.534 C 268.2 206.842 270.655 214.904 268.72 217.668 C 266.886 220.29 258.665 220.743 255.891 220.271 C 254.968 220.115 254.454 219.815 253.974 219.365 C 256.775 225.822 259.39 233.32 260.548 238.086 C 262.207 244.916 262.096 252.8 261.324 255.94 C 260.937 257.517 260.561 257.959 259.381 258.543 C 257.661 259.395 253.467 260.76 250.828 259.287 C 247.179 257.249 243.027 250.283 241.11 243.294 C 240.158 239.829 239.675 234.351 239.496 228.694 C 238.292 232.501 236.437 236.048 233.923 237.139 C 231.362 238.25 225.802 235.995 224.203 235.28 C 223.424 234.93 223.396 234.086 223.037 234.163 C 222.606 234.258 222.647 235.892 221.87 236.395 C 221.793 236.445 221.707 236.494 221.615 236.542 C 222.41 245.872 219.822 265.513 218.418 280.766 C 216.434 302.296 213.224 348.664 208.698 354.038 C 207.162 355.862 204.722 355.663 203.644 352.922 C 200.15 344.038 208.168 258.366 213.858 235.661 C 213.046 235.075 212.305 234.402 211.764 233.791 C 210.706 232.599 210.648 229.791 209.818 229.701 C 208.971 229.607 208.258 232.65 206.708 233.42 C 204.852 234.342 200.897 234.66 198.934 234.163 C 197.368 233.769 196.303 233.528 195.434 231.56 C 194.347 229.098 193.635 221.306 193.459 214.658 C 192.772 219.208 191.807 223.829 190.776 227.364 Z M 178.463 192.007 C 178.267 191.144 178.087 190.225 177.929 189.255 C 177.77 189.32 177.615 189.388 177.466 189.464 C 174.489 190.972 170.851 194.577 168.523 197.275 C 166.451 199.679 163.323 203.34 163.859 204.714 C 164.311 205.875 167.724 206.165 169.69 205.829 C 171.866 205.458 174.209 203.808 176.299 202.11 C 177.623 201.035 178.897 199.036 180.128 197.368 C 179.394 195.828 178.933 194.096 178.463 192.007 Z M 177.685 173.411 C 177.767 172.775 177.88 172.103 178.022 171.401 C 174.007 171.218 169.156 170.75 166.58 171.611 C 163.203 172.741 160.104 175.036 159.193 177.19 C 158.398 179.072 158.804 182.173 160.359 183.513 C 162.255 185.147 167.372 185.067 171.245 185.001 C 172.949 184.971 175.166 184.456 177.335 183.909 C 177.138 180.69 177.204 177.145 177.685 173.411 Z M 187.015 140.68 C 187.129 136.928 184.31 135.243 184.682 133.242 C 184.684 133.233 184.685 133.224 184.688 133.215 C 183.503 130.074 182.408 126.367 180.576 124.747 C 178.118 122.575 173.751 120.608 171.634 121.773 C 169.148 123.138 167.048 131.431 167.747 134.79 C 168.325 137.569 170.681 139.421 173.578 141.113 C 176.332 142.72 182.52 143.374 186.447 144.353 C 186.777 142.943 186.983 141.698 187.015 140.68 Z M 208.009 140.308 C 205.069 140.452 203.062 138.954 201.011 141.052 C 197.172 144.982 193.716 163.485 192.458 172.295 C 191.467 179.245 189.876 186.314 192.458 190.147 C 194.778 193.594 199.964 194.202 205.677 195.355 C 213.398 196.914 229.883 201.472 236.002 196.843 C 242.286 192.086 241.26 175.52 242.221 166.344 C 243.051 158.415 245.641 149.071 242.221 144.771 C 239.012 140.738 229.48 141.02 223.56 140.308 C 218.123 139.654 212.046 140.112 208.009 140.308 Z M 217.579 159.228 C 219.258 159.199 225.312 159.474 226.521 161.831 C 228.091 164.894 224.838 176.082 222.244 178.569 C 220.463 180.276 217.049 179.884 215.247 179.312 C 213.681 178.815 212.383 177.514 211.747 175.963 C 210.986 174.108 211.132 171.057 211.747 168.525 C 212.426 165.736 214.855 161.251 216.024 159.971 C 216.606 159.333 216.722 159.241 217.579 159.228 Z M 219.292 116.675 C 219.106 112.804 218.95 107.562 217.736 106.634 C 216.975 106.05 215.709 106.426 214.626 107.749 C 212.771 110.019 210.842 121.103 208.708 127.525 C 211.706 127.336 215.048 127.004 218.381 126.85 C 218.757 123.363 219.421 119.327 219.292 116.675 Z M 168.912 148.552 C 165.432 149.271 162.864 151.258 161.526 153.387 C 160.259 155.402 159.901 159.001 160.748 160.826 C 161.519 162.483 163.211 163.277 165.802 164.172 C 168.454 165.09 174.854 165.113 179.561 165.534 C 181.053 160.652 183.089 155.22 184.657 150.462 C 179.61 149.6 172.265 147.859 168.912 148.552 Z M 263.277 192.005 C 264.983 190.289 263.757 185.993 262.5 183.45 C 261.165 180.747 257.523 178.55 255.114 176.383 C 255.086 176.357 255.058 176.333 255.029 176.306 C 254.186 181.656 253.083 187.512 251.962 192.484 C 256.096 192.632 261.864 193.427 263.277 192.005 Z M 269.11 171.176 C 270.735 171.044 271.585 170.297 271.831 169.316 C 272.147 168.053 271.521 165.639 269.498 163.737 C 267.582 161.934 261.871 159.972 256.857 158.052 C 256.76 160.996 256.557 164.053 256.259 167.043 C 261.004 168.662 266.974 171.347 269.11 171.176 Z M 187.665 209.884 C 186.53 210.271 178.598 221.186 176.001 226.992 C 173.602 232.359 171.183 240.543 172.114 243.358 C 172.655 244.996 174.589 246.527 176.001 245.589 C 179.268 243.422 186.698 216.578 187.665 212.114 C 187.985 210.635 188.133 209.723 187.665 209.884 Z M 247.33 221.349 C 246.102 221.481 245.895 236.686 247.33 242.179 C 248.48 246.582 252.117 251.132 253.55 252.592 C 254.199 253.254 254.753 253.708 255.105 253.336 C 255.833 252.558 255.904 247.145 255.105 242.922 C 254.011 237.141 248.601 221.213 247.33 221.349 Z" style="fill: rgb(255, 255, 255); fill-opacity: 1; fill-rule: nonzero; stroke: none; stroke-dasharray: none; stroke-dashoffset: 0px; stroke-linecap: butt; stroke-linejoin: miter; stroke-miterlimit: 4; stroke-opacity: 1; stroke-width: 1px; paint-order: normal; vector-effect: none; opacity: 1; mix-blend-mode: normal; isolation: auto;"/>
</svg>