<?xml version="1.0" encoding="utf-8"?>
<svg viewBox="0 0 500 500" xmlns="http://www.w3.org/2000/svg">
  <path d="M 64.066 62.277 L 378.891 62.277 L 378.891 371.664 L 64.066 371.664 Z" style="fill: rgb(196, 193, 193);"/>
  <path fill="rgb(255,0,0)" stroke="rgb(255,0,0)" stroke-width="0" opacity="0.9647058823529412" d="M 286.221 120.726 C 289.852 120.361 293.631 121.301 295.957 124.181 C 299.057 128.02 300.872 141.347 300.354 144.91 C 300.1 146.659 299.006 147.169 298.156 147.736 C 297.409 148.235 296.587 148.504 295.643 148.364 C 294.451 148.188 292.647 147.839 291.56 146.166 C 289.762 143.399 291.163 131.274 288.419 130.148 C 285.824 129.084 279.086 135.033 275.705 138.725 C 275.668 138.849 275.621 138.959 275.564 139.052 C 275.419 139.286 275.171 139.497 274.87 139.673 C 272.274 142.761 271.534 145.244 269.575 150.563 C 266.237 159.626 263.714 179.98 258.269 192.02 C 254.566 200.206 249.562 208.316 244.43 214.686 C 244.591 215.333 244.601 216.016 244.343 216.451 C 243.96 217.097 242.772 217.738 241.378 218.25 C 240.619 219.081 239.861 219.866 239.11 220.601 C 236.231 223.417 233.005 225.722 229.846 227.527 C 231.543 239.163 228.366 278.169 228.788 297.742 C 229.165 315.211 232.573 337.625 231.3 343.596 C 230.842 345.748 230.02 345.85 229.102 346.423 C 228.224 346.97 227.558 347.115 225.961 347.051 C 225.433 347.03 224.794 346.933 224.071 346.784 C 223.202 347.288 221.907 347.275 220.656 346.422 C 220.417 346.259 220.146 346.023 219.846 345.722 C 217.157 344.996 214.153 344.19 211.514 343.91 C 211.037 343.859 210.547 343.81 210.048 343.763 C 210.381 344.793 210.546 345.593 210.5 346.088 C 210.35 347.698 208.557 348.559 207.045 347.659 C 206.264 347.193 205.008 345.605 203.508 343.347 C 200.26 343.258 197.069 343.381 194.554 343.91 C 190.733 344.714 187.521 348.408 185.132 348.307 C 183.355 348.232 181.692 348.442 181.049 345.48 C 178.965 335.888 194.933 272.953 197.381 253.144 C 198.782 241.799 198.763 234.414 198.637 229.902 C 198.619 229.242 198.539 228.695 198.441 228.225 C 198.387 228.196 198.334 228.167 198.281 228.138 C 194.75 226.211 191.768 223.583 189.173 220.287 C 186.347 216.696 184.56 213.966 182.264 207.096 C 178.264 195.128 173.862 158.688 170.329 148.678 C 168.659 143.947 167.811 142.554 165.618 140.827 C 163.485 139.147 159.915 137.839 157.452 138.314 C 154.996 138.788 152.805 141.15 150.857 143.653 C 148.502 146.679 146.941 154.151 144.889 155.902 C 143.656 156.955 142.292 156.851 141.12 156.53 C 139.873 156.189 138.104 155.28 137.666 153.704 C 137.038 151.445 138.617 146.368 140.178 143.025 C 141.803 139.546 144.91 135.594 147.402 133.289 C 149.439 131.404 151.236 130.27 153.683 129.52 C 156.392 128.69 159.917 128.09 163.105 128.892 C 164.51 129.246 166.08 129.899 167.633 130.731 C 168.682 128.358 169.953 126.111 170.979 125.547 C 172.338 124.801 174.055 127.413 175.376 126.803 C 177.085 126.015 178.101 120.098 179.773 119.266 C 181.019 118.645 183.246 119.737 183.855 120.208 C 184.198 120.472 183.877 121.205 184.17 121.15 C 184.844 121.023 187.417 115.643 189.195 114.869 C 190.596 114.258 192.098 115.751 193.592 115.497 C 195.233 115.218 197.454 113.095 198.617 112.984 C 199.336 112.916 199.821 113.14 200.187 113.612 C 200.659 114.222 200.007 116.347 200.815 116.753 C 201.912 117.304 206.154 114.518 207.411 114.869 C 208.218 115.094 208.116 116.813 208.667 116.753 C 209.448 116.668 210.519 112.869 211.808 112.356 C 212.972 111.893 215.067 112.743 215.891 113.298 C 216.482 113.697 216.274 114.752 216.833 114.869 C 217.613 115.032 219.642 113.064 220.602 112.984 C 221.268 112.929 221.718 113.096 222.172 113.612 C 222.853 114.387 222.994 117.926 223.742 118.009 C 224.536 118.098 225.702 114.411 226.883 113.612 C 227.841 112.964 229.18 112.497 230.024 112.984 C 231.07 113.588 230.999 117.56 232.222 118.009 C 233.482 118.472 236.231 115.438 237.561 115.497 C 238.535 115.54 239.36 116.476 239.76 117.067 C 240.084 117.546 239.749 118.631 240.074 118.638 C 240.582 118.648 242.03 115.268 243.215 114.869 C 244.259 114.517 245.938 115.287 246.67 115.811 C 247.229 116.212 247.113 117.418 247.612 117.381 C 248.403 117.323 249.885 113.377 251.381 112.984 C 252.831 112.603 254.731 114.869 256.406 114.869 C 258.081 114.869 260.393 112.528 261.431 112.984 C 262.351 113.388 261.892 116.271 262.687 116.753 C 263.417 117.195 265.03 115.545 265.828 116.125 C 266.929 116.925 266.423 122.111 267.712 123.035 C 268.806 123.819 271.362 121.528 272.423 122.406 C 273.131 122.991 273.374 124.882 273.523 126.8 C 277.508 123.635 282.555 121.095 286.221 120.726 Z M 174.098 135.488 C 176.111 137.583 176.98 138.928 178.166 142.147 C 178.4 141.726 178.671 141.363 178.997 141.106 C 180.412 139.99 183.541 139.604 184.965 139.85 C 185.992 140.027 186.413 140.708 187.163 141.42 C 188.08 142.29 188.937 145.09 189.99 144.875 C 191.451 144.576 193.086 137.086 195.015 136.081 C 196.446 135.334 198.502 136.036 199.726 137.023 C 201.115 138.144 201.51 142.861 202.552 142.99 C 203.514 143.109 204.602 139.38 205.693 138.593 C 206.506 138.007 207.486 137.926 208.206 137.965 C 208.813 137.998 209.229 137.978 209.776 138.593 C 210.838 139.787 211.847 146.675 213.231 146.759 C 214.659 146.846 216.498 139.885 218.256 138.593 C 219.473 137.699 221.077 137.884 222.025 137.965 C 222.709 138.023 223.228 138.092 223.595 138.593 C 224.104 139.288 223.786 142.108 224.223 142.362 C 224.53 142.54 224.974 141.99 225.48 141.42 C 226.365 140.423 227.637 136.524 228.934 136.081 C 229.99 135.72 231.501 136.474 232.389 137.651 C 233.664 139.341 233.455 146.423 234.588 146.759 C 235.553 147.045 236.725 142.304 238.356 141.734 C 239.976 141.168 243.25 142.578 244.324 143.304 C 244.984 143.751 244.765 145.007 245.266 144.875 C 246.238 144.618 248.488 137.592 250.291 136.709 C 251.586 136.075 253.43 136.594 254.374 137.651 C 255.597 139.021 254.998 145.276 255.944 145.503 C 256.83 145.715 258.196 140.846 259.713 139.85 C 260.989 139.011 262.774 138.55 264.099 139.215 C 265.412 136.526 266.783 134.16 268.375 132.055 C 268.358 130.669 268.676 128.792 268.026 128.06 C 267.173 127.098 264.516 127.982 263.629 127.117 C 262.768 126.277 263.505 123.592 262.687 123.035 C 261.899 122.497 259.759 124.067 258.918 123.663 C 258.175 123.305 258.445 121.528 257.662 121.15 C 256.722 120.696 254.211 122.154 253.265 121.778 C 252.543 121.491 252.798 119.996 252.009 119.894 C 250.71 119.726 246.613 123.617 245.099 123.663 C 244.18 123.691 244.114 122.537 243.215 122.406 C 241.905 122.216 238.871 123.854 237.561 123.663 C 236.662 123.532 236.551 122.585 235.677 122.406 C 234.471 122.159 232.125 123.247 230.652 123.035 C 229.34 122.846 227.93 121.287 227.197 121.464 C 226.649 121.597 226.93 122.863 226.255 123.035 C 225.105 123.326 220.508 121.535 219.659 120.836 C 219.27 120.515 219.709 120.027 219.345 119.894 C 218.641 119.636 215.529 121.314 214.32 121.15 C 213.452 121.032 213.295 119.955 212.436 119.894 C 211.222 119.808 208.808 121.788 207.411 121.778 C 206.29 121.77 205.32 120.3 204.584 120.522 C 203.861 120.74 203.889 122.655 203.014 123.035 C 201.957 123.493 199.143 123.097 198.303 122.406 C 197.644 121.865 198.05 120.06 197.675 119.894 C 197.367 119.758 197.058 120.516 196.418 120.836 C 195.404 121.344 192.953 122.27 191.707 122.406 C 190.804 122.505 190.261 121.723 189.509 122.092 C 188.4 122.636 187.555 126.141 186.054 126.803 C 184.602 127.444 182.139 125.407 180.715 126.175 C 179.116 127.038 178.79 131.629 177.26 132.457 C 175.962 133.159 173.754 131.002 172.549 131.828 C 172.18 132.081 171.904 132.636 171.677 133.344 C 172.581 134.04 173.405 134.766 174.098 135.488 Z M 182.415 159.735 C 183.957 159.219 186.292 160.349 187.408 161.457 C 188.67 162.709 188.646 167.156 189.293 167.424 C 189.704 167.594 190.001 166.76 190.549 165.854 C 191.623 164.078 193.441 157.164 195.26 156.117 C 196.505 155.402 198.124 155.865 199.343 157.06 C 201.267 158.946 202.636 169.218 204.054 169.308 C 205.328 169.389 205.803 161.386 207.509 159.886 C 208.774 158.774 211.024 158.322 212.22 159.258 C 213.896 160.569 214.225 169.516 215.047 169.937 C 215.502 170.17 215.844 168.816 216.303 167.738 C 217.038 166.009 217.401 160.813 218.815 159.886 C 219.926 159.159 222.081 159.584 223.212 160.828 C 224.886 162.668 225.051 172.452 226.039 172.449 C 227.039 172.446 227.395 161.861 229.18 160.514 C 230.403 159.591 232.696 160.169 233.891 161.457 C 235.612 163.311 235.473 173.066 236.717 173.077 C 238.047 173.09 239.76 161.064 241.743 159.886 C 242.983 159.149 244.978 160.402 245.825 161.457 C 246.749 162.606 246.066 166.791 246.768 166.796 C 247.638 166.801 249.39 159.444 251.165 158.63 C 252.547 157.996 254.782 158.978 255.876 160.2 C 256.13 160.483 256.375 160.891 256.602 161.373 C 257.878 155.844 259.201 150.682 260.781 146.794 C 260.881 146.549 260.98 146.305 261.079 146.064 C 260.943 146.184 260.803 146.314 260.655 146.445 C 259.628 147.356 258.623 150.685 257.201 151.156 C 255.868 151.598 253.537 150.684 252.49 149.586 C 251.393 148.436 251.708 144.265 250.919 144.247 C 250.013 144.226 248.828 150.406 247.15 151.156 C 245.69 151.809 242.965 150.468 241.811 149.586 C 240.883 148.876 240.838 146.643 240.241 146.759 C 239.433 146.916 238.677 151.978 237.414 153.041 C 236.45 153.852 235.003 153.926 233.959 153.669 C 232.908 153.41 231.91 152.617 231.133 151.47 C 230.119 149.975 229.839 145.132 228.934 144.875 C 228.208 144.668 227.598 147.673 226.422 148.015 C 225.082 148.405 222.089 147.354 221.083 146.445 C 220.299 145.737 220.738 143.541 220.14 143.618 C 219.187 143.742 217.17 150.883 215.115 151.784 C 213.393 152.54 210.337 151.367 209.148 150.214 C 208.066 149.165 208.415 145.712 207.892 145.503 C 207.524 145.356 207.386 146.623 206.635 147.073 C 205.46 147.777 202.263 149.317 200.668 148.644 C 198.96 147.922 198.092 142.305 196.899 142.362 C 195.681 142.421 195.15 148.179 193.444 149.272 C 191.906 150.257 189.159 149.966 187.477 149.272 C 185.817 148.587 183.986 146.064 183.394 145.189 C 183.101 144.756 183.329 144.146 183.08 144.247 C 182.682 144.408 181.599 147.517 180.451 149.87 C 181.091 152.667 181.747 156.041 182.415 159.735 Z M 191.058 203.327 C 191.305 204.02 191.549 204.676 191.792 205.3 C 192.312 204.964 193.161 204.719 193.778 204.83 C 194.537 204.968 195.382 205.842 195.977 206.401 C 196.505 206.897 196.764 208.059 197.233 207.971 C 197.872 207.851 198.329 204.604 199.431 204.202 C 200.592 203.778 202.999 204.69 204.142 205.772 C 205.357 206.922 205.766 210.962 206.341 211.112 C 206.725 211.211 206.625 209.826 207.283 209.227 C 208.278 208.323 211.263 206.873 212.622 206.715 C 213.552 206.606 214.144 206.663 214.821 207.343 C 215.907 208.434 216.026 213.677 217.647 214.252 C 219.327 214.849 223.44 210.084 224.871 210.483 C 225.957 210.787 225.174 213.572 226.441 214.252 C 227.536 214.84 230.185 214.363 232.584 213.968 C 233.914 212.869 235.167 211.719 236.284 210.55 C 239.404 207.283 241.993 203.52 244.34 199.213 C 243.333 199.545 242.063 199.612 241.195 199.393 C 240.086 199.112 239.01 197.9 238.369 197.194 C 237.879 196.655 238.101 195.854 237.427 195.624 C 236.314 195.244 232.629 197.069 231.145 196.88 C 230.122 196.75 229.628 195.444 228.947 195.624 C 228.142 195.837 227.684 198.144 226.748 198.765 C 225.877 199.343 224.543 199.423 223.607 199.393 C 222.79 199.366 222.023 199.382 221.409 198.765 C 220.545 197.897 220.457 194.074 219.525 193.74 C 218.71 193.448 217.088 195.358 216.384 195.938 C 215.923 196.318 216.003 196.637 215.442 196.88 C 214.485 197.295 211.673 198.137 210.416 197.508 C 209.16 196.88 208.854 193.199 207.904 193.111 C 206.966 193.025 206.138 196.34 204.763 196.88 C 203.337 197.441 200.763 197.263 199.424 196.252 C 197.945 195.136 197.418 190.158 196.597 189.971 C 196.012 189.837 195.97 191.938 195.027 192.483 C 193.776 193.207 190.481 193.44 189.06 193.111 C 188.791 193.049 188.55 192.944 188.332 192.815 C 189.229 197.085 190.139 200.749 191.058 203.327 Z M 198.909 216.832 C 201.507 219.471 204.558 220.915 207.703 221.857 C 210.841 222.796 213.911 223.592 217.754 222.485 C 220.092 221.811 222.99 220.449 225.944 218.667 C 225.432 218.736 224.962 218.749 224.557 218.649 C 223.434 218.371 223.19 216.925 222.044 216.765 C 220.506 216.55 217.24 218.829 215.763 218.649 C 214.727 218.523 214.224 217.9 213.565 217.079 C 212.708 216.012 212.202 212.503 211.366 212.368 C 210.612 212.246 210.115 215.121 208.853 215.509 C 207.299 215.986 203.344 214.93 202.258 213.938 C 201.485 213.233 202.022 211.3 201.63 211.112 C 201.323 210.964 200.975 211.676 200.374 212.054 C 199.515 212.593 197.807 213.853 196.576 214.19 C 197.307 215.13 198.078 215.987 198.909 216.832 Z M 255.128 167.908 C 254.481 167.606 253.8 166.947 253.363 166.482 C 252.905 165.993 252.839 164.672 252.421 164.911 C 251.481 165.449 249.605 176.345 248.024 178.102 C 247.217 179 246.291 178.88 245.511 178.73 C 244.719 178.578 243.897 178.062 243.313 177.16 C 242.501 175.905 242.421 171.107 241.743 171.193 C 240.922 171.297 240.257 179.436 238.602 180.615 C 237.369 181.493 235.087 181.167 233.891 179.987 C 232.214 178.333 231.955 169.299 231.064 169.308 C 230.176 169.318 230.173 178.753 228.552 179.987 C 227.386 180.874 225.011 180.159 223.841 179.045 C 222.388 177.661 222.101 171.555 221.328 171.193 C 220.888 170.987 220.483 171.952 220.072 172.763 C 219.424 174.04 219.433 177.953 218.187 178.73 C 217.038 179.447 214.388 179.068 213.162 177.788 C 211.517 176.072 211.473 167.921 210.65 167.424 C 210.227 167.169 209.876 168.198 209.393 168.994 C 208.617 170.276 207.672 173.971 206.567 174.962 C 205.806 175.643 204.947 175.753 204.054 175.59 C 202.982 175.394 201.655 174.759 200.599 173.391 C 199.024 171.35 197.919 163.025 196.516 163.027 C 195.094 163.029 194.034 172.496 192.119 173.705 C 190.772 174.557 188.695 173.818 187.408 172.763 C 185.83 171.47 184.917 165.53 183.954 165.54 C 183.786 165.541 183.648 165.737 183.526 166.059 C 184.622 172.431 185.75 179.268 186.902 185.507 C 187.858 185.397 189.416 185.674 190.002 186.202 C 190.592 186.733 190.136 188.526 190.63 188.714 C 191.151 188.914 192.54 187.615 193.143 187.144 C 193.581 186.802 193.524 186.445 194.085 186.202 C 195.042 185.787 197.709 184.85 199.11 185.574 C 200.734 186.413 201.532 191.817 202.879 191.855 C 204.25 191.894 205.678 186.139 207.276 185.574 C 208.552 185.122 210.419 186.101 211.359 187.144 C 212.393 188.293 211.586 191.949 212.929 192.483 C 214.597 193.148 219.911 188.111 221.723 188.714 C 223.173 189.198 223.215 193.43 223.922 193.74 C 224.35 193.927 224.65 193.309 225.178 192.797 C 226.039 191.962 227.313 189.073 228.633 188.714 C 229.85 188.384 231.893 189.532 232.715 190.285 C 233.362 190.876 232.891 192.28 233.658 192.483 C 234.892 192.811 239.447 188.814 240.881 189.343 C 242.045 189.771 241.541 193.638 242.452 193.74 C 243.557 193.862 245.702 188.614 247.477 188.086 C 248.048 187.916 248.789 187.967 249.518 188.147 C 251.758 182.707 253.474 175.295 255.128 167.908 Z M 208.059 242.465 C 207.9 244.286 207.596 246.635 207.18 249.39 C 210.15 253.178 216.281 265.873 220.493 276.203 C 219.872 268.405 219.396 261.545 219.366 256.913 C 219.354 255.091 219.365 253.334 219.393 251.648 C 216.03 246.907 211.342 237.476 209.798 235.202 C 209.269 234.422 208.935 234.218 208.72 233.948 C 208.604 236.335 208.349 239.15 208.059 242.465 Z M 220.013 231.716 C 217.62 232.309 215.534 232.344 213.32 232.167 C 213.404 232.233 213.486 232.303 213.567 232.375 C 215.039 233.683 217.416 237.114 219.752 240.913 C 219.923 237.106 220.072 233.996 220.013 231.716 Z M 202.152 277.329 C 202.821 277.817 203.524 278.455 204.233 279.285 C 207.904 283.581 217.374 300.412 223.224 312.457 C 222.878 305.858 222.322 298.574 221.738 291.392 C 221.632 291.331 221.526 291.262 221.421 291.185 C 218.519 289.057 210.283 271.79 205.382 260.129 C 204.441 265.392 203.329 271.259 202.152 277.329 Z M 197.836 299.267 C 198.522 299.692 199.239 300.23 199.927 300.882 C 203.365 304.14 208.51 312.178 212.49 319.098 C 215.109 323.653 219.264 330.858 222.082 336.68 C 223.196 334.706 223.603 329.972 223.582 323.683 C 218.263 317.033 206.141 295.354 200.664 284.945 C 199.717 289.76 198.758 294.598 197.836 299.267 Z M 194.605 315.871 C 197.453 319.392 202.287 327.451 205.879 334.44 C 208.239 334.345 210.446 334.327 212.045 334.479 C 206.576 325.461 200.157 313.488 196.525 305.928 C 195.839 309.434 195.191 312.78 194.605 315.871 Z M 191.727 334.802 C 191.874 335.589 191.969 335.051 192.67 335.116 C 193.53 335.196 195.734 335.056 198.43 334.876 C 196.542 331.489 194.642 327.858 193.017 324.543 C 192.06 330.039 191.54 333.8 191.727 334.802 Z M 298.849 155.369 C 299.329 155.273 300.577 155.526 301.048 155.997 C 301.519 156.468 301.804 157.486 301.676 158.196 C 301.539 158.955 300.872 160.098 300.106 160.394 C 299.254 160.723 297.005 160.447 296.651 159.766 C 296.275 159.042 297.787 156.689 298.221 155.997 C 298.457 155.621 298.521 155.435 298.849 155.369 Z M 307.449 144.632 C 308.263 144.327 309.884 144.585 310.276 145.26 C 310.744 146.064 309.972 148.874 309.334 149.657 C 308.874 150.221 308.042 150.299 307.449 150.285 C 306.894 150.272 306.244 150.073 305.879 149.657 C 305.468 149.187 305.086 148.216 305.251 147.458 C 305.448 146.552 306.564 144.964 307.449 144.632 Z M 287.332 148.891 C 288.071 148.657 289.595 149.375 290.158 149.834 C 290.575 150.173 290.75 150.588 290.787 151.09 C 290.832 151.7 290.729 152.997 290.158 153.288 C 289.454 153.649 287.081 152.849 286.39 152.346 C 285.93 152.011 285.705 151.572 285.761 151.09 C 285.835 150.464 286.621 149.117 287.332 148.891 Z M 129.416 148.41 C 130.135 148.032 131.875 148.402 132.242 149.039 C 132.656 149.754 132.059 152.354 131.3 152.807 C 130.565 153.246 128.175 152.58 127.845 151.865 C 127.508 151.134 128.615 148.832 129.416 148.41 Z M 132.824 163.947 C 133.557 163.77 135.912 164.724 136.279 165.517 C 136.611 166.237 135.999 168.076 135.336 168.344 C 134.607 168.639 132.332 167.375 131.882 166.774 C 131.592 166.387 131.757 165.951 131.882 165.517 C 132.027 165.014 132.276 164.079 132.824 163.947 Z M 147.298 161.817 C 148.139 161.327 150.158 161.202 150.753 161.817 C 151.389 162.475 151.376 165.068 150.753 165.9 C 150.162 166.69 148.151 167.127 147.298 166.842 C 146.536 166.588 145.764 165.446 145.728 164.644 C 145.689 163.782 146.48 162.295 147.298 161.817 Z" style="fill: rgb(255, 255, 255); fill-opacity: 1; fill-rule: nonzero; stroke: none; stroke-dasharray: none; stroke-dashoffset: 0px; stroke-linecap: butt; stroke-linejoin: miter; stroke-miterlimit: 4; stroke-opacity: 1; stroke-width: 1px; paint-order: normal; vector-effect: none; opacity: 1; mix-blend-mode: normal; isolation: auto;"/>
</svg>