<?xml version="1.0" encoding="utf-8"?>
<svg viewBox="0 0 500 500" xmlns="http://www.w3.org/2000/svg">
  <path d="M 64.066 62.277 L 378.891 62.277 L 378.891 371.664 L 64.066 371.664 Z" style="fill: rgb(196, 193, 193);"/>
  <path fill="rgb(255,0,0)" stroke="rgb(255,0,0)" stroke-width="0" opacity="0.9686274509803922" d="M 244.18 116.993 C 245.445 117.794 246.767 118.728 248.084 119.76 C 248.236 119.669 248.381 119.562 248.517 119.432 C 249.922 118.089 251.119 113.52 252.6 112.836 C 253.687 112.334 255.793 112.744 256.055 113.778 C 256.342 114.914 254.569 118.758 252.707 121.636 C 253.479 121.793 254.166 122.153 254.286 122.656 C 254.387 123.08 254.127 123.89 253.66 124.854 C 254.419 125.669 255.138 126.507 255.8 127.358 C 256.816 128.665 257.818 130.102 258.753 131.607 C 259.534 130.46 260.327 129.431 260.886 128.878 C 262.093 127.685 263.606 126.94 264.655 126.994 C 265.533 127.039 266.557 127.798 266.853 128.564 C 267.182 129.416 267.165 130.906 266.225 132.019 C 265.476 132.907 263.144 134.341 260.91 135.464 C 261.972 137.599 262.826 139.764 263.338 141.805 C 263.5 142.449 263.635 143.109 263.745 143.777 C 267.707 143.901 274.15 145.192 275.103 146.258 C 275.773 147.008 275.244 148.568 274.16 149.084 C 272.842 149.712 267.832 149.476 264.117 148.831 C 264.102 150.061 264.012 151.263 263.854 152.393 C 264.702 152.55 265.481 152.767 266.069 153.028 C 267.658 153.734 268.452 154.612 269.524 156.483 C 271.18 159.373 273.742 165.438 273.921 170.302 C 274.11 175.456 272.632 181.235 270.152 186.634 C 267.384 192.658 263.209 198.81 257.275 204.536 C 254.327 207.38 250.505 210.671 246.394 213.776 C 248.442 212.712 250.47 211.81 251.952 211.398 C 255.008 210.548 257.979 210.766 260.118 211.398 C 261.871 211.916 262.995 212.497 264.201 214.225 C 266.021 216.832 268.715 223.202 268.598 227.415 C 268.485 231.458 266.349 236.993 263.887 239.036 C 261.803 240.765 257.742 240.785 255.721 240.292 C 254.141 239.907 253.058 238.962 252.266 237.466 C 251.224 235.495 250.56 230.673 251.01 228.672 C 251.323 227.28 251.969 226.519 253.208 225.845 C 254.941 224.903 259.614 224.253 261.374 224.589 C 262.5 224.804 263.398 226.518 263.573 226.159 C 263.874 225.54 261.442 217.997 259.49 216.423 C 257.966 215.194 256.193 215.252 253.837 215.795 C 250.296 216.61 242.263 222.965 240.018 223.333 C 239.115 223.48 238.825 223.086 238.468 222.725 C 235.843 229.608 231.843 238.49 230.145 246.498 C 226.751 262.502 224.693 286.282 223.235 303.031 C 221.99 317.331 222.89 336.028 221.351 341.348 C 220.754 343.408 220.127 343.596 219.152 344.174 C 218.151 344.767 216.722 345.021 215.383 344.802 C 213.821 344.547 212.466 342.757 210.358 342.29 C 207.698 341.7 204.056 341.808 200.308 342.29 C 195.846 342.863 188.14 346.15 185.232 346.059 C 183.708 346.01 183.079 345.585 182.406 344.802 C 181.639 343.912 181.065 342.725 181.15 340.719 C 181.298 337.228 184.6 331.68 186.175 324.388 C 188.483 313.701 191.219 294.063 192.456 280.418 C 193.576 268.074 194.433 255.288 193.712 245.87 C 193.15 238.52 191.808 232.226 189.944 227.654 C 188.519 224.161 185.635 221.095 184.604 219.802 C 184.135 219.213 183.905 219.421 183.662 218.86 C 183.57 218.648 183.449 218.341 183.324 217.979 C 180.951 217.202 176.478 214.543 174.823 215.044 C 173.451 215.459 172.218 217.973 172.625 218.813 C 173.08 219.754 177.017 218.776 178.278 220.069 C 179.719 221.546 180.434 225.221 180.163 227.921 C 179.867 230.859 178.074 235.651 176.08 237.029 C 174.423 238.174 171.366 237.644 169.798 237.029 C 168.49 236.515 167.597 235.782 166.972 234.202 C 166.002 231.755 165.571 226.073 166.344 222.268 C 167.123 218.428 170.455 212.711 171.683 211.275 C 172.199 210.671 172.213 210.787 172.939 210.647 C 174.014 210.44 176.602 210.194 178.859 210.328 C 173.164 205.942 167.815 201.406 165.252 198.568 C 162.255 195.249 161.625 193.54 160.855 190.402 C 160.004 186.932 160.357 182.483 160.855 178.468 C 161.37 174.319 162.435 169.442 163.996 165.905 C 164.706 164.296 165.541 162.541 166.471 161.073 C 163.488 159.283 160.208 156.825 159.238 155.641 C 158.359 154.567 158.403 153.567 158.61 152.814 C 158.796 152.137 159.198 151.191 160.18 151.244 C 161.314 151.304 164.608 153.045 167.591 155.01 C 167.642 154.231 167.734 153.398 167.86 152.483 C 167.887 152.286 167.917 152.083 167.95 151.874 C 165.762 150.044 161.535 140.662 161.602 138.548 C 161.634 137.525 162.495 137.164 163.172 136.977 C 163.925 136.77 165.042 136.66 165.999 137.605 C 166.913 138.509 168.476 141.385 169.735 144.285 C 170.83 140.538 172.247 136.64 173.68 133.864 C 172.618 130.82 171.789 123.688 172.125 122.09 C 172.274 121.376 172.564 121.277 173.067 121.147 C 173.808 120.956 175.614 120.686 176.522 121.775 C 177.227 122.622 177.935 124.999 178.443 127.557 C 179.542 126.516 180.72 125.556 181.994 124.531 C 185.307 121.864 191.941 119.002 193.614 117.621 C 194.321 117.038 193.865 116.841 194.556 116.365 C 195.785 115.521 199.122 113.833 202.251 112.978 C 202.261 108.498 203.189 101.925 204.292 100.838 C 205.137 100.004 207.105 100.541 207.747 101.78 C 208.467 103.17 208.291 108.327 207.691 112.449 C 210.367 112.585 213.239 113.092 216.165 113.203 C 216.846 110.038 217.83 107.05 218.673 106.424 C 219.693 105.667 221.959 107.38 222.442 107.994 C 222.743 108.378 222.563 108.473 222.442 109.251 C 222.344 109.876 222.136 111.282 221.847 112.964 C 225.694 112.611 229.765 112.074 233.054 112.527 C 234.678 108.869 236.675 105.294 237.944 104.464 C 239.398 103.514 242.017 104.083 242.341 105.406 C 242.63 106.586 240.923 110.428 238.856 114.136 C 240.652 114.885 242.357 115.839 244.18 116.993 Z M 207.024 225.264 C 203.151 224.821 200.971 224.393 197.693 222.836 C 199.016 226.22 200.312 230.184 201.306 234.072 C 202.829 232.988 207.089 233.546 208.321 232.05 C 209.494 230.626 209.108 227.267 208.972 225.477 C 208.3 225.408 207.649 225.336 207.024 225.264 Z M 202.506 239.589 C 204.11 248.796 204.054 257.133 203.153 269.479 C 203.278 269.425 203.414 269.381 203.563 269.349 C 205.172 269.007 210.46 269.278 212.043 271.233 C 213.823 273.43 213.543 279.43 212.671 282.854 C 211.851 286.079 209.657 289.876 207.332 291.334 C 205.35 292.577 201.628 292.644 200.011 292.051 C 198.604 300.34 196.979 309.141 195.651 316.575 C 197.383 316.301 200.189 316.601 201.137 317.549 C 202.341 318.753 202.221 322.065 201.765 324.144 C 201.301 326.257 199.994 329.385 198.31 330.112 C 197.222 330.581 195.041 330.19 193.466 329.59 C 193.092 332.202 192.932 333.935 193.084 334.438 C 193.25 334.987 193.339 334.235 194.026 334.124 C 196.214 333.77 207.445 338.556 211.928 332.868 C 214.244 329.929 215.641 323.547 216.543 315.368 C 214.155 315.028 210.289 313.52 209.055 311.883 C 207.518 309.846 207.542 305.651 208.426 303.089 C 209.314 300.518 212.95 297.519 214.394 296.494 C 215.186 295.931 215.522 295.908 216.278 295.866 C 216.671 295.844 217.269 295.831 217.861 295.871 C 218.375 283.471 218.58 270.083 219.308 258.951 C 217.295 258.664 214.563 257.61 213.373 256.084 C 211.407 253.562 210.796 246.383 211.489 243.521 C 211.979 241.497 213.419 240.424 214.943 239.438 C 216.598 238.369 219.325 237.433 221.225 237.554 C 221.608 237.579 222.013 237.665 222.42 237.792 C 223.664 233.167 225.164 228.692 226.681 224.727 C 226.556 224.76 226.431 224.792 226.305 224.824 C 226.286 224.865 226.267 224.904 226.248 224.94 C 225.534 226.281 224.131 226.268 223.421 225.568 C 223.38 225.527 223.339 225.481 223.3 225.43 C 220.128 225.924 216.954 225.987 213.989 225.859 C 214.117 226.886 214.129 227.959 213.974 228.91 C 213.51 231.754 211.657 236.423 209.263 238.018 C 207.732 239.038 204.643 239.431 202.45 239.272 C 202.469 239.378 202.488 239.484 202.506 239.589 Z M 258.627 162.848 C 257.361 164.373 256.128 164.789 254.644 166.183 C 255.065 166.341 255.482 166.617 255.846 167.077 C 257.285 168.893 259.725 176.17 261.323 182.592 C 261.832 181.387 262.286 180.182 262.614 179.096 C 263.799 175.173 265.139 169.541 264.498 166.533 C 264.029 164.329 262.448 162.982 261.044 161.822 C 260.732 161.564 260.358 161.37 259.955 161.21 C 259.503 161.79 259.051 162.336 258.627 162.848 Z M 246.903 177.378 C 248.098 181.609 249.712 190.996 250.302 197.817 C 252.522 195.97 254.224 194.445 255.076 193.543 C 256.409 192.131 255.84 191.358 256.333 190.716 C 256.64 190.315 256.938 190.414 257.322 190.073 C 255.189 184.638 252.662 174.873 251.772 169.885 C 250.31 172.164 248.724 174.959 246.903 177.378 Z M 236.549 186.012 C 237.837 190.397 239.159 199.313 239.662 206.055 C 241.394 204.801 243.099 203.524 244.713 202.281 C 243.326 197.815 242.15 188.86 241.786 182.455 C 240.155 183.736 238.384 184.95 236.549 186.012 Z M 229.104 189.23 C 228.554 189.38 228.001 189.507 227.446 189.613 C 228.157 194.592 228.208 205.381 227.744 213.805 C 229.632 212.775 231.714 211.493 233.866 210.074 C 234.104 209.828 234.293 209.712 234.48 209.667 C 234.595 209.59 234.709 209.514 234.824 209.436 C 233.472 203.484 232.134 194.258 231.574 188.416 C 230.748 188.733 229.923 189.007 229.104 189.23 Z M 215.05 189.539 C 216.069 195.358 215.4 211.886 213.826 216.711 C 216.294 217.001 218.992 217.051 221.924 216.28 C 221.885 215.076 221.864 213.857 221.851 212.691 C 221.789 207.288 222.049 195.932 223.016 190.067 C 220.428 190.129 217.775 189.887 215.05 189.539 Z M 201.983 187.061 C 202.064 187.305 202.087 187.661 202.125 188.338 C 202.288 191.222 201.883 204.651 200.835 213.701 C 203.88 215.234 205.22 215.409 208.28 215.842 C 208.537 215.878 208.798 215.918 209.063 215.961 C 208.211 211.59 209.203 200.828 209.575 196.092 C 209.781 193.468 209.872 190.681 210.28 188.848 C 207.604 188.405 204.78 187.827 201.983 187.061 Z M 192.672 183.576 C 192.58 183.529 192.487 183.481 192.394 183.433 C 192.71 187.293 191.21 198.148 189.442 206.449 C 191.188 207.683 192.908 208.863 194.502 209.913 C 194.76 200.391 196.095 188.076 197.605 185.685 C 195.899 185.071 194.24 184.372 192.672 183.576 Z M 183.847 177.657 C 183.845 177.735 183.842 177.816 183.838 177.9 C 183.691 181.239 181.013 196.06 179.127 197.687 C 178.89 197.891 178.612 198.003 178.322 198.034 C 179.937 199.365 181.841 200.854 183.862 202.376 C 185.36 193.594 187.808 183.51 189.267 181.604 C 187.43 180.421 185.599 179.065 183.847 177.657 Z M 175.398 170.071 C 174.883 169.566 174.387 169.076 173.912 168.597 C 172.956 170.115 172 171.743 171.534 173.443 C 170.337 177.805 169.328 184.731 170.277 188.518 C 171.017 191.468 172.192 192.417 174.988 195.113 C 175.33 195.443 175.721 195.802 176.154 196.187 C 175.591 192.579 178.616 179.688 178.813 177.272 C 178.883 176.418 178.688 176.449 178.813 176.016 C 178.958 175.512 179.196 174.638 179.755 174.446 C 179.827 174.421 179.911 174.404 180.006 174.394 C 178.281 172.855 176.714 171.362 175.398 170.071 Z M 206.177 122.018 C 201.502 122.816 193.07 127.326 187.862 132.142 C 188.281 134.077 187.965 137.898 188.645 138.045 C 189.483 138.226 190.759 132.941 192.414 132.392 C 194.025 131.858 197.308 133.778 198.381 134.59 C 199.033 135.084 198.987 136.105 199.323 136.161 C 199.62 136.21 199.805 135.779 200.266 135.219 C 201.214 134.065 203.292 129.347 204.977 128.623 C 206.27 128.067 208.17 128.854 209.06 129.565 C 209.848 130.196 209.904 132.408 210.316 132.392 C 210.742 132.375 210.734 129.672 211.572 129.251 C 212.511 128.779 215.151 129.377 215.969 130.194 C 216.71 130.933 216.213 133.5 216.597 133.648 C 216.904 133.767 217.385 132.851 217.853 132.078 C 218.574 130.889 219.292 127.662 220.366 126.739 C 221.174 126.045 222.413 126.06 223.193 126.111 C 223.822 126.151 224.365 126.214 224.763 126.739 C 225.351 127.515 225.074 131.032 225.705 131.136 C 226.385 131.247 227.625 127.273 228.846 126.739 C 229.874 126.289 231.475 126.53 232.301 127.367 C 233.356 128.436 232.948 133.624 233.871 133.648 C 234.928 133.676 236.891 126.456 238.661 125.011 C 236.796 123.801 234.87 122.797 233.01 122.164 C 232.109 122.552 231.042 122.262 230.591 121.556 C 226.745 120.899 222.223 121.369 219.578 121.969 C 219.384 122.347 219.187 122.619 218.987 122.756 C 218.627 123.002 218.132 123.039 217.625 122.919 C 216.776 123.611 216.159 124.417 214.971 124.531 C 212.64 124.754 209.789 121.402 206.177 122.018 Z M 177.593 151.713 C 178.581 152.018 179.512 152.409 180.03 152.789 C 180.995 153.497 181.003 155.418 181.6 155.616 C 182.077 155.774 182.561 155.319 183.171 154.674 C 184.257 153.525 185.698 148.686 187.254 148.078 C 188.491 147.595 190.225 148.638 191.337 149.649 C 192.602 150.798 192.653 154.619 194.163 154.988 C 195.913 155.415 200.021 150.068 201.701 150.591 C 203.218 151.063 203.297 156.706 204.214 156.872 C 204.994 157.014 205.601 153.557 206.726 153.103 C 207.817 152.664 209.869 153.175 210.809 154.046 C 211.815 154.978 211.601 158.737 212.379 158.757 C 213.288 158.78 215.016 153.476 216.148 152.475 C 216.82 151.881 217.395 151.741 218.033 151.847 C 218.754 151.967 219.801 152.648 220.231 153.418 C 220.706 154.268 220.117 156.884 220.545 156.872 C 221.118 156.857 222.512 151.334 224 150.591 C 225.234 149.975 227.422 151.207 228.397 151.533 C 229.009 151.738 229.152 152.411 229.653 152.161 C 230.673 151.654 232.229 145.685 233.736 144.938 C 234.813 144.404 236.363 145.069 237.191 145.88 C 238.135 146.804 237.881 150.645 238.761 150.591 C 239.971 150.517 242.955 142.498 244.415 141.169 C 245.151 140.498 245.661 140.435 246.299 140.541 C 247.02 140.661 247.978 141.349 248.497 142.111 C 249.079 142.964 248.846 145.637 249.44 145.566 C 250.035 145.495 251.285 142.247 252.421 139.825 C 250.986 137.071 248.932 134.245 246.762 131.875 C 245.767 131.975 244.759 131.852 243.921 131.764 C 242.619 131.627 241.588 129.996 240.467 130.508 C 238.832 131.253 237.687 137.68 235.756 138.673 C 234.208 139.47 231.57 138.511 230.416 137.731 C 229.478 137.097 229.361 134.885 228.846 134.905 C 228.314 134.924 228.227 137.567 227.276 138.045 C 226.174 138.599 223.019 138.055 222.25 137.417 C 221.73 136.985 222.261 135.562 221.936 135.533 C 221.499 135.493 220.66 138.332 219.424 138.673 C 217.92 139.088 214.646 136.374 213.142 136.789 C 211.906 137.13 211.758 139.615 210.63 139.93 C 209.403 140.272 206.918 139.017 205.919 138.359 C 205.223 137.901 205.12 136.675 204.663 136.789 C 204.009 136.952 203.542 140.368 202.464 141.186 C 201.49 141.925 199.867 142.135 198.695 141.814 C 197.448 141.473 196.081 139.649 195.24 138.987 C 194.687 138.552 194.485 137.865 193.984 138.045 C 193.093 138.366 192.085 142.971 190.529 143.699 C 189.094 144.37 186.408 144.098 185.19 142.756 C 184.418 141.906 183.739 139.806 183.345 137.662 C 180.557 142.106 178.383 147.688 177.593 151.713 Z M 180.423 161.591 C 183.711 165.69 192.108 172.369 198.011 175.41 C 198.083 175.447 198.154 175.483 198.226 175.52 C 198.231 175.514 198.236 175.509 198.241 175.503 C 198.661 175.055 199.398 175.152 200.126 174.561 C 201.249 173.649 202.46 170.745 204.209 169.85 C 206 168.932 209.464 168.553 210.804 169.222 C 211.844 169.74 211.489 172.067 212.374 172.362 C 213.376 172.697 215.904 170.234 216.771 170.478 C 217.396 170.654 217.343 172.32 217.714 172.362 C 218.078 172.404 218.569 171.385 218.97 170.792 C 219.41 170.142 219.477 168.891 220.226 168.594 C 221.169 168.219 223.611 168.9 224.623 169.536 C 225.449 170.054 225.336 171.461 226.194 171.734 C 227.306 172.089 229.883 170.362 231.219 170.478 C 232.264 170.569 232.818 171.616 233.731 171.734 C 234.694 171.859 236.034 171.045 236.872 171.106 C 237.521 171.153 238.02 171.178 238.442 171.734 C 238.535 171.857 238.637 172.025 238.741 172.227 C 241.869 168.424 244.996 162.657 247.634 159.707 C 249.957 157.109 252.82 156.585 253.916 154.054 C 254.877 151.834 255.01 148.65 254.46 145.621 C 253.538 147.699 252.544 150.091 251.324 150.591 C 249.697 151.257 247.206 148.109 245.671 148.706 C 244.003 149.355 243.275 153.943 241.902 154.988 C 240.915 155.738 239.822 155.744 238.761 155.616 C 237.626 155.479 236.051 154.541 235.306 154.046 C 234.816 153.72 234.745 152.955 234.364 153.103 C 233.654 153.38 232.844 157.76 231.538 158.757 C 230.436 159.598 228.501 159.591 227.455 159.385 C 226.632 159.223 226.259 157.883 225.57 158.129 C 224.469 158.522 222.934 163.409 221.801 164.41 C 221.13 165.004 220.577 165.027 219.917 165.038 C 219.219 165.05 218.191 164.906 217.719 164.41 C 217.222 163.889 217.546 162.121 217.09 161.897 C 216.671 161.691 215.682 162.402 215.206 162.84 C 214.756 163.253 214.91 164.146 214.264 164.41 C 213.27 164.816 209.865 164.586 208.925 163.782 C 208.16 163.128 208.704 160.852 208.296 160.641 C 207.99 160.483 207.711 161.316 207.04 161.583 C 205.939 162.023 203.001 163.235 201.701 162.526 C 200.33 161.778 200.708 157.502 199.188 156.872 C 197.509 156.177 193.162 159.344 191.651 159.385 C 190.837 159.407 190.54 159.244 190.08 158.757 C 189.427 158.063 189.226 154.975 188.51 154.988 C 187.641 155.003 186.784 159.998 185.055 160.641 C 183.551 161.201 180.429 160.131 178.569 159.116 C 179.057 159.877 179.677 160.662 180.423 161.591 Z M 213.715 179.807 C 218.463 180.471 223.536 180.887 227.534 179.807 C 229.539 179.265 231.267 178.463 232.923 177.381 C 231.392 176.656 229.403 175.668 228.078 175.503 C 226.64 175.324 225.317 176.194 224.309 176.131 C 223.534 176.083 223.054 175.283 222.425 175.503 C 221.59 175.795 221.397 178.297 219.912 178.644 C 217.603 179.184 209.984 176.316 208.292 175.189 C 207.497 174.66 207.893 173.566 207.349 173.619 C 206.665 173.685 205.133 176.055 203.788 177.749 C 207.141 178.789 210.499 179.358 213.715 179.807 Z M 185.153 105.725 C 185.894 105.452 187.982 105.043 188.608 105.725 C 189.353 106.538 188.496 109.354 188.608 111.065 C 188.715 112.698 188.643 114.865 189.236 115.776 C 189.664 116.434 190.912 116.168 191.121 116.718 C 191.36 117.349 190.839 118.966 190.179 119.545 C 189.499 120.14 187.898 120.937 187.038 120.173 C 185.495 118.802 183.902 108.511 184.211 106.668 C 184.332 105.944 184.647 105.912 185.153 105.725 Z M 196.74 324.772 C 197.428 324.087 197.81 322.361 197.368 321.632 C 197.069 321.138 195.862 321.088 194.882 320.926 C 194.611 322.482 194.36 323.947 194.137 325.298 C 195.129 325.216 196.265 325.245 196.74 324.772 Z M 212.823 304.974 C 212.331 306.584 213.298 309.163 214.394 310.313 C 214.92 310.865 215.969 311.02 216.952 311.158 C 217.231 307.9 217.451 304.431 217.633 300.835 C 216.158 302.175 213.299 303.416 212.823 304.974 Z M 201.051 286.937 C 201.986 286.906 203.354 287.626 204.191 287.565 C 204.84 287.518 205.282 287.638 205.762 286.937 C 206.808 285.406 209.339 277.377 208.274 275.316 C 207.5 273.818 203.867 274.619 202.738 273.841 C 202.306 277.599 201.642 282.107 200.859 286.946 C 200.923 286.942 200.987 286.939 201.051 286.937 Z M 218.712 242.579 C 216.945 243.737 215.734 248.434 215.886 250.431 C 216 251.933 217.291 253.233 218.084 253.886 C 218.568 254.285 219.144 254.388 219.643 254.463 C 220.038 249.825 220.558 245.721 221.277 242.433 C 220.255 242.237 219.308 242.188 218.712 242.579 Z M 149.273 152.816 C 150.006 152.398 152.309 153.026 152.728 153.759 C 153.147 154.491 152.519 156.795 151.786 157.213 C 151.053 157.632 148.75 157.004 148.331 156.271 C 147.912 155.538 148.54 153.235 149.273 152.816 Z M 156.465 130.711 C 157.258 130.786 158.993 131.529 159.292 132.282 C 159.581 133.01 158.808 134.545 158.349 135.108 C 158.01 135.525 157.595 135.699 157.093 135.736 C 156.483 135.781 155.366 135.579 154.895 135.108 C 154.424 134.637 154.24 133.567 154.267 132.91 C 154.29 132.327 154.528 131.706 154.895 131.339 C 155.261 130.973 155.853 130.653 156.465 130.711 Z M 166.228 113.283 C 166.922 112.758 170.106 113.416 170.625 114.225 C 171.1 114.964 170.416 117.261 169.683 117.68 C 168.95 118.099 166.8 117.482 166.228 116.738 C 165.665 116.004 165.603 113.755 166.228 113.283 Z M 181.799 99.424 C 182.54 99.151 184.678 98.849 185.254 99.424 C 185.83 100 185.817 102.146 185.254 102.879 C 184.682 103.623 182.532 104.24 181.799 103.821 C 181.066 103.403 180.705 101.109 180.857 100.367 C 180.96 99.867 181.293 99.611 181.799 99.424 Z M 201.964 92.527 C 202.696 92.108 205 92.737 205.418 93.469 C 205.837 94.202 205.209 96.505 204.476 96.924 C 203.743 97.343 201.44 96.715 201.021 95.982 C 200.603 95.249 201.231 92.946 201.964 92.527 Z M 222.677 98.107 C 223.418 97.834 225.556 97.531 226.132 98.107 C 226.708 98.683 226.696 100.828 226.132 101.562 C 225.561 102.306 223.41 102.923 222.677 102.504 C 221.945 102.085 221.583 99.791 221.735 99.049 C 221.838 98.549 222.172 98.293 222.677 98.107 Z M 245.776 93.698 C 246.352 93.732 248.271 95.011 248.603 95.896 C 248.908 96.709 248.649 98.33 247.975 98.723 C 247.171 99.191 243.996 98.569 243.578 97.78 C 243.187 97.043 244.72 94.979 245.148 94.326 C 245.387 93.96 245.447 93.678 245.776 93.698 Z M 257.807 103.804 C 258.547 103.531 260.686 103.228 261.261 103.804 C 261.837 104.38 261.825 106.525 261.261 107.259 C 260.69 108.003 258.54 108.62 257.807 108.201 C 257.074 107.782 256.712 105.489 256.864 104.746 C 256.967 104.247 257.301 103.991 257.807 103.804 Z M 272.244 128.4 C 272.977 127.981 275.049 128.853 275.699 129.342 C 276.146 129.678 276.384 130.116 276.327 130.598 C 276.253 131.224 275.519 132.542 274.757 132.797 C 273.904 133.082 271.721 132.587 271.302 131.855 C 270.883 131.122 271.511 128.819 272.244 128.4 Z M 284.665 146.371 C 285.417 146.163 287.099 146.324 287.491 146.999 C 287.959 147.803 287.371 150.701 286.549 151.396 C 285.809 152.02 283.67 151.972 283.094 151.396 C 282.518 150.82 282.754 148.806 283.094 147.941 C 283.379 147.216 283.988 146.557 284.665 146.371 Z M 170.74 223.21 C 169.692 224.256 169.866 229.902 170.74 231.376 C 171.355 232.411 173.077 233.065 173.881 232.632 C 174.89 232.088 175.641 228.558 175.766 226.979 C 175.863 225.746 175.85 224.481 175.137 223.838 C 174.325 223.105 171.562 222.39 170.74 223.21 Z M 257.92 228.986 C 256.811 229.128 255.749 229.986 255.407 230.87 C 255.037 231.827 255.434 233.798 256.035 234.639 C 256.566 235.383 257.696 235.799 258.548 235.895 C 259.372 235.988 260.308 235.872 261.06 235.267 C 262.044 234.477 263.995 231.912 263.573 230.87 C 263.123 229.759 259.352 228.802 257.92 228.986 Z" style="fill: rgb(255, 255, 255); fill-opacity: 1; fill-rule: nonzero; stroke: none; stroke-dasharray: none; stroke-dashoffset: 0px; stroke-linecap: butt; stroke-linejoin: miter; stroke-miterlimit: 4; stroke-opacity: 1; stroke-width: 1px; paint-order: normal; vector-effect: none; opacity: 1; mix-blend-mode: normal; isolation: auto;"/>
</svg>