<?xml version="1.0" encoding="utf-8"?>
<svg viewBox="0 0 500 500" xmlns="http://www.w3.org/2000/svg">
  <path d="M 64.066 62.277 L 378.891 62.277 L 378.891 371.664 L 64.066 371.664 Z" style="fill: rgb(196, 193, 193);"/>
  <path fill="rgb(255,0,0)" stroke="rgb(255,0,0)" stroke-width="0" opacity="0.9568627450980393" d="M 207.493 102.162 C 210.223 102.134 216.107 102.199 219.256 105.334 C 221.24 107.311 222.497 112.448 223.59 117.62 C 224.226 114.038 225.015 110.613 225.97 107.856 C 228.944 99.274 236.791 87.696 239.251 84.95 C 240.141 83.957 240.495 84.443 241.147 83.893 C 241.999 83.175 242.553 81.044 243.803 80.722 C 245.226 80.354 248.183 80.548 249.494 82.484 C 251.792 85.872 253.047 97.088 251.012 105.037 C 250.381 107.503 249.079 110.475 247.444 113.586 C 248.322 113.237 249.178 112.949 249.99 112.734 C 253.44 111.823 257.274 111.428 259.855 112.734 C 262.491 114.071 264.368 117.067 265.546 120.839 C 266.912 125.212 267.49 132.639 266.834 139.067 C 269.609 135.839 272.702 132.867 276.066 130.236 C 281.59 125.917 290.653 120.708 295.038 119.665 C 297.594 119.057 299.495 118.821 300.73 120.369 C 302.736 122.886 303.141 132.526 301.487 138.341 C 299.729 144.531 295.474 151.352 289.726 156.314 C 285.258 160.17 277.436 163.834 271.001 166.399 C 272.03 167.261 273.004 168.281 273.894 169.47 C 276.821 173.385 279.316 180.215 280.723 186.385 C 282.243 193.048 283.761 202.751 282.241 208.234 C 281.06 212.491 278.714 215.575 275.033 217.749 C 272.244 219.392 267.431 220.684 263.098 221.197 C 263.22 221.459 263.336 221.717 263.444 221.971 C 265.6 227.023 265.95 231.497 265.72 237.477 C 265.44 244.826 263.367 259.944 260.41 263.202 C 258.844 264.924 256.048 264.027 254.717 263.906 C 253.837 263.827 253.656 264.055 252.821 263.202 C 250.54 260.874 243.556 250.476 241.438 242.411 C 241.059 240.969 240.759 239.356 240.525 237.635 C 238.759 241.192 236.586 244.342 234.054 245.94 C 233.243 246.451 232.284 246.83 231.271 247.099 C 231.91 249.68 231.472 253.688 230.74 257.694 C 229.553 264.182 223.888 273.736 222.392 281.655 C 222.136 283.013 221.928 284.411 221.762 285.827 C 222.077 289.993 222.097 293.959 221.701 295.699 C 221.572 296.266 221.423 296.701 221.235 297.042 C 221.277 299.641 221.422 302.083 221.633 304.21 C 221.93 307.19 222.806 309.284 223.562 311.541 C 225.547 308.165 228.184 304.8 230.358 303.009 C 232.58 301.176 234.758 300.553 237.186 300.189 C 239.682 299.816 243.785 299.779 245.155 300.895 C 246.29 301.818 246.023 304.353 245.914 305.476 C 245.837 306.261 245.946 306.605 245.155 307.238 C 243.491 308.567 236.084 308.706 233.013 311.819 C 229.339 315.541 228.68 327.422 226.184 329.791 C 225.878 330.081 225.554 330.287 225.224 330.429 C 225.125 332.261 224.947 334.105 224.669 335.924 C 223.519 343.433 220.526 357.417 217.46 359.535 C 215.765 360.705 212.838 359.295 211.769 357.773 C 210.386 355.807 211.067 350.746 211.769 347.201 C 212.508 343.467 215.488 340.423 216.321 335.924 C 217.337 330.444 216.728 323.489 216.321 316.19 C 215.959 309.676 213.853 302.766 213.294 295.047 C 212.27 290.224 213.417 280.148 211.837 275.965 C 210.504 272.437 208.751 270.097 206.145 268.565 C 203.475 266.995 197.226 268.313 195.901 266.803 C 194.856 265.613 195.983 262.432 196.658 261.517 C 197.107 260.912 197.556 260.963 198.557 260.812 C 200.376 260.536 204.926 260.03 207.662 260.812 C 210.355 261.583 212.862 263.218 214.872 265.393 C 215.604 266.185 216.293 267.056 216.932 268.012 C 218.946 259.638 221.347 251.413 222.99 246.95 C 221.833 246.412 221.065 245.522 220.015 244.178 C 217.951 241.534 215.633 236.865 213.945 231.492 C 213.659 230.587 213.423 229.489 213.221 228.258 C 212.489 231.552 211.583 234.662 210.47 237.127 C 207.522 243.657 202.284 249.491 197.949 252.985 C 194.509 255.758 189.442 259.021 187.325 257.919 C 185.053 256.736 185.239 249.97 185.428 244.88 C 185.648 238.959 186.759 230.943 189.377 223.872 C 187.795 224.867 186.229 225.677 184.728 226.205 C 181.587 227.313 177.796 227.448 175.622 226.911 C 174.011 226.513 173.249 226.05 172.207 224.444 C 170.395 221.649 168.407 214.145 167.655 208.938 C 166.911 203.807 166.238 198.674 167.655 193.433 C 168.529 190.2 171.608 186.651 174.099 183.271 C 168.531 187.537 161.365 194.04 156.55 195.773 C 151.475 197.6 147.496 197.505 142.891 196.478 C 137.77 195.336 130.105 191.274 127.335 188.373 C 125.407 186.355 124.875 183.574 125.058 182.029 C 125.191 180.905 125.351 180.679 126.954 179.563 C 131.159 176.64 151.506 166.697 159.585 164.762 C 163.262 163.881 165.664 163.836 168.262 164.173 C 166.252 159.214 165.101 151.855 166.136 146.917 C 167.084 142.391 170.353 137.014 173.346 135.288 C 174.35 134.71 175.557 134.472 176.797 134.451 C 173.994 122.36 172.48 100.581 173.881 96.183 C 174.422 94.489 175.012 94.171 176.538 94.421 C 180.067 94.999 192.441 102.741 197.406 109.574 C 197.662 109.925 197.913 110.289 198.159 110.663 C 200.047 107.474 202.223 104.907 203.699 103.573 C 205.089 102.318 205.734 102.182 207.493 102.162 Z M 187.384 139.869 C 189.217 141.98 191.547 147.99 193.208 150.468 C 193.85 150.839 194.463 151.006 194.964 150.864 C 195.998 147.289 193.603 130.618 194.436 121.345 C 194.414 121.298 194.394 121.251 194.371 121.204 C 191.839 115.75 184.793 106.291 182.989 107.107 C 180.946 108.032 183.061 123.95 184.506 131.07 C 185.022 133.616 185.731 136.354 186.544 138.917 C 186.819 139.221 187.097 139.54 187.384 139.869 Z M 209.391 109.915 C 207.431 110.699 204.491 114.179 203.32 119.078 C 203.195 119.597 203.096 120.183 203.015 120.826 C 205.086 126.696 206.338 132.987 206.513 137.766 C 206.677 142.273 205.968 147.287 204.477 151.085 C 204.808 155.212 205.006 158.664 204.837 160.661 C 204.561 163.925 203.856 164.584 203.32 166.299 C 202.839 167.841 202.856 169.482 201.802 170.527 C 200.668 171.654 198.485 173.657 196.49 172.642 C 194.013 171.382 190.443 163.249 187.192 156.217 C 184.484 153.64 181.968 149.103 179.945 144.14 C 178.697 142.889 177.582 142.148 176.76 142.336 C 175.53 142.617 174.586 145.293 174.484 147.975 C 174.324 152.161 175.337 162.018 178.776 166.665 C 182.447 167.89 185.974 169.428 187.284 170.753 C 187.552 171.024 187.752 171.299 187.899 171.58 C 190.986 172.575 193.866 173.438 194.972 174.756 C 196.485 176.557 196.951 179.019 195.732 180.395 C 194.033 182.311 185.374 180.902 182.072 183.214 C 178.875 185.451 177.075 189.668 176.001 193.785 C 174.791 198.433 175.152 205.511 176.001 209.996 C 176.697 213.665 177.749 218.368 179.795 219.158 C 181.67 219.882 184.603 217.61 187.384 215.634 C 191.208 212.918 196.542 207.762 200.285 202.947 C 204.176 197.942 206.903 188.897 210.15 186.033 C 212.19 184.233 214.655 182.438 216.22 183.919 C 219.498 187.019 217.898 212.191 220.015 221.977 C 221.575 229.191 224.017 236.727 226.086 238.892 C 227.088 239.94 228.044 240.311 229.122 239.597 C 231.369 238.103 235.225 229.5 236.71 222.682 C 238.525 214.344 234.684 196.78 237.468 192.376 C 238.99 189.97 242.117 189.096 244.299 190.261 C 246.934 191.671 249.487 200.373 251.833 206.173 C 253.828 207.795 256.222 210.495 258.387 213.455 C 258.494 213.477 258.603 213.499 258.716 213.519 C 261.376 214.013 266.744 213.383 269.341 212.11 C 271.529 211.036 273.095 209.824 273.894 207.177 C 275.14 203.043 274.097 193.53 272.376 187.442 C 270.72 181.584 267.459 173.484 264.029 171.233 C 261.578 169.623 258.582 170.487 255.681 171.233 C 252.301 172.1 247.656 176.372 245.057 176.871 C 243.417 177.186 242.251 176.886 241.263 176.166 C 240.16 175.361 238.684 173.199 238.987 171.936 C 239.307 170.596 241.693 170.676 243.539 168.413 C 247.113 164.032 255.77 150.871 257.957 143.041 C 259.786 136.495 258.727 128.703 257.957 124.717 C 257.487 122.278 257.295 120.222 255.681 119.783 C 253.478 119.184 247.811 121.939 244.299 124.717 C 240.103 128.034 235.575 134.18 232.915 139.517 C 230.3 144.765 230.142 153.61 228.362 156.431 C 227.424 157.921 226.381 158.339 225.327 158.546 C 224.351 158.738 223.228 158.418 222.291 157.841 C 221.173 157.153 219.935 156.547 219.256 154.317 C 217.871 149.773 220.572 135.117 219.256 127.535 C 218.154 121.189 215.396 113.791 213.185 111.325 C 211.976 109.977 210.683 109.399 209.391 109.915 Z M 161.482 172.515 C 154.441 173.965 135.61 181.613 134.923 184.497 C 134.474 186.38 140.529 188.27 144.029 188.725 C 147.988 189.24 153.199 188.517 157.688 186.611 C 162.83 184.428 170.929 177.606 172.865 175.334 C 173.704 174.35 174.184 173.726 173.625 173.22 C 172.553 172.253 166.421 171.499 161.482 172.515 Z M 242.665 94.818 C 241.196 95.319 231.296 119.039 231.282 121.6 C 231.279 122.266 231.605 122.537 232.041 122.305 C 233.509 121.518 241.182 109.002 242.665 103.98 C 243.732 100.362 243.595 94.5 242.665 94.818 Z M 293.141 128.826 C 291.588 128.165 286.96 131.734 283.275 135.17 C 277.82 140.258 264.814 156.772 264.305 159.133 C 264.173 159.739 264.428 159.863 265.063 159.837 C 267.121 159.756 278.547 155.276 283.275 151.38 C 287.786 147.662 291.721 141.422 293.141 137.284 C 294.219 134.141 294.532 129.419 293.141 128.826 Z M 206.675 212.106 C 205.478 212.216 199.712 220.965 197.57 226.203 C 195.316 231.714 193.451 242.503 193.775 244.528 C 193.875 245.155 194.095 245.356 194.534 245.232 C 195.637 244.921 199.492 241.083 201.364 237.479 C 203.848 232.697 206.013 222.172 206.675 217.746 C 207.072 215.096 207.456 212.037 206.675 212.106 Z M 248.267 218.8 C 247.532 221.623 247.214 230.367 248.267 235.715 C 249.293 240.923 252.851 248.69 254.338 250.516 C 254.93 251.241 255.436 251.581 255.855 251.22 C 256.759 250.445 257.121 244.178 257.373 240.648 C 257.624 237.13 258.391 233.759 257.373 230.077 C 256.577 227.194 254.074 222.296 252.069 219.284 C 250.914 218.518 249.896 217.654 249.067 216.898 C 248.73 217.259 248.482 217.973 248.267 218.8 Z M 219.753 165.839 C 221.471 165.782 224.19 165.734 225.446 167.248 C 227.188 169.349 228.176 177.016 226.964 179.582 C 226.047 181.523 223.146 182.841 221.272 182.754 C 219.35 182.664 216.705 180.857 215.58 178.877 C 214.254 176.545 214.585 170.88 214.821 169.01 C 214.944 168.044 215.003 167.733 215.58 167.248 C 216.368 166.588 218.22 165.889 219.753 165.839 Z" style="fill: rgb(255, 255, 255); fill-opacity: 1; fill-rule: nonzero; stroke: none; stroke-dasharray: none; stroke-dashoffset: 0px; stroke-linecap: butt; stroke-linejoin: miter; stroke-miterlimit: 4; stroke-opacity: 1; stroke-width: 1px; paint-order: normal; vector-effect: none; opacity: 1; mix-blend-mode: normal; isolation: auto;"/>
</svg>