<?xml version="1.0" encoding="utf-8"?>
<svg viewBox="0 0 500 500" xmlns="http://www.w3.org/2000/svg">
  <path d="M 64.066 62.277 L 378.891 62.277 L 378.891 371.664 L 64.066 371.664 Z" style="fill: rgb(196, 193, 193);"/>
  <path fill="rgb(255,0,0)" stroke="rgb(255,0,0)" stroke-width="0" opacity="0.9921568627450981" d="M 217.544 124.167 C 218.863 124.105 220.321 124.076 221.874 124.094 C 221.647 122.64 221.508 121.268 221.802 120.261 C 222.288 118.596 223.676 117.632 224.817 116.632 C 225.918 115.666 227.866 115.727 228.501 114.322 C 229.37 112.415 227.683 108.498 227.832 105.085 C 228.005 101.134 229.844 95.645 229.841 91.888 C 229.841 88.822 228.172 85.722 228.501 83.97 C 228.721 82.814 229.606 82.157 230.178 81.66 C 230.616 81.279 230.905 81.067 231.517 81.001 C 232.401 80.903 234.273 80.387 235.202 81.66 C 237.011 84.144 237.355 95.559 237.213 101.125 C 237.093 105.709 235.221 110.373 235.202 113.002 C 235.191 114.581 236.135 115.156 235.873 116.302 C 235.557 117.667 234.03 119.471 232.859 120.59 C 231.774 121.627 229.866 121.336 229.172 122.899 C 228.998 123.294 228.932 123.844 228.943 124.499 C 230.359 124.649 231.79 124.845 233.207 125.095 C 235.668 121.223 240.325 116.082 242.274 114.059 C 243.593 112.689 244.356 113.186 245.289 111.75 C 246.825 109.382 249.003 102.863 249.309 99.213 C 249.559 96.218 247.694 93.872 247.969 91.294 C 248.244 88.703 249.777 85.115 250.983 83.707 C 251.788 82.769 252.622 82.417 253.664 82.388 C 254.905 82.351 257.216 83.192 258.018 84.038 C 258.669 84.722 258.811 85.462 258.687 86.676 C 258.487 88.651 255.617 92.508 255.339 95.254 C 255.083 97.769 256.528 101.12 256.68 102.513 C 256.754 103.212 256.632 103.185 256.68 103.832 C 256.759 104.961 258.035 107.146 257.348 109.11 C 256.376 111.888 250.672 117.18 248.974 118.678 C 248.173 119.383 247.807 119.134 247.299 119.668 C 246.661 120.337 246.261 121.968 245.622 122.637 C 245.116 123.17 244.614 122.942 243.949 123.627 C 243.299 124.296 242.103 125.719 241.076 127.227 C 241.274 127.304 241.469 127.384 241.664 127.466 C 243.566 128.263 245.475 129.269 247.355 130.427 C 247.431 130.424 247.509 130.421 247.583 130.419 C 248.397 130.394 249.036 131.158 250.262 131.078 C 252.213 130.953 257.661 129.8 258.637 128.44 C 259.332 127.472 258 126.164 257.967 124.809 C 257.933 123.243 258.558 120.66 258.637 119.532 C 258.685 118.885 258.483 118.749 258.637 118.212 C 258.865 117.427 259.4 116.147 260.314 115.243 C 261.444 114.123 264.196 113.282 265.339 112.273 C 266.198 111.513 266.138 110.657 267.014 109.964 C 268.152 109.064 270.791 108.718 272.039 107.654 C 273.174 106.688 273.25 105.114 274.383 104.025 C 275.697 102.763 277.897 101.138 279.744 100.726 C 281.477 100.339 283.56 101.43 285.104 101.386 C 286.389 101.349 287.559 100.662 288.453 100.726 C 289.146 100.776 289.735 100.844 290.128 101.386 C 290.688 102.159 290.893 104.624 290.798 105.675 C 290.731 106.41 290.863 106.718 290.128 107.324 C 288.474 108.688 279.804 110.624 277.399 112.273 C 275.955 113.263 276.149 114.445 275.054 115.243 C 273.794 116.158 271.461 116.16 270.028 117.221 C 268.538 118.326 267.121 120.353 266.344 121.841 C 265.691 123.086 265.382 124.291 265.339 125.469 C 265.296 126.597 266.17 127.464 266.009 128.769 C 265.793 130.498 265.435 133.492 263.327 135.037 C 263.046 135.244 262.699 135.445 262.301 135.641 C 262.872 135.792 263.396 135.863 263.774 135.677 C 264.694 135.222 264.449 133.187 265.447 132.378 C 266.625 131.426 269.583 131.954 270.808 130.727 C 272.122 129.415 271.583 125.558 272.819 124.46 C 273.864 123.529 276.185 123.681 277.173 123.8 C 277.816 123.877 278.012 124.613 278.513 124.46 C 279.278 124.225 280.126 121.812 281.194 121.16 C 282.167 120.567 283.428 120.5 284.543 120.5 C 285.66 120.5 286.342 121.368 287.894 121.16 C 290.482 120.814 296.089 116.818 299.282 116.541 C 301.769 116.326 304.609 117.343 305.647 118.191 C 306.308 118.73 306.402 119.441 306.319 120.171 C 306.214 121.058 306.095 122.116 304.642 123.14 C 301.581 125.297 286.57 128.151 283.538 130.068 C 282.199 130.915 282.755 131.757 281.863 132.378 C 280.727 133.169 278.165 132.97 276.838 134.027 C 275.456 135.127 275.073 138.009 273.823 138.976 C 272.77 139.791 271.318 139.36 270.139 139.965 C 268.851 140.626 268.062 142.397 266.453 142.936 C 265.437 143.274 263.974 143.401 262.533 143.367 C 262.612 143.456 262.692 143.544 262.769 143.632 C 263.53 144.486 264.269 145.401 264.985 146.36 C 267.176 145.86 269.923 145.751 271.109 146.061 C 272.237 146.356 272.204 148.139 273.119 148.041 C 274.538 147.888 276.814 143.364 279.149 142.102 C 281.412 140.879 285.023 141.515 286.855 140.453 C 288.35 139.585 288.426 137.382 289.87 136.823 C 291.525 136.183 294.575 138.117 296.569 137.483 C 298.607 136.836 299.549 133.618 301.93 132.865 C 304.769 131.965 311.285 132.213 312.984 133.524 C 314.158 134.432 314.695 136.401 313.653 137.813 C 311.748 140.4 298.642 144.903 295.229 145.401 C 293.611 145.638 293.139 144.372 292.215 144.742 C 291.091 145.191 290.621 148.017 289.199 148.7 C 287.669 149.436 285.13 147.925 283.169 148.7 C 281.512 149.356 280.003 151.661 278.4 153.251 C 281.004 152.886 283.384 152.613 284.467 152.332 C 285.641 152.028 285.891 151.91 286.476 151.673 C 286.987 151.466 287.118 151.062 287.818 151.013 C 289.046 150.925 291.83 152.224 293.847 152.332 C 295.849 152.44 298.04 151.413 299.878 151.673 C 301.591 151.915 302.933 153.622 304.567 153.652 C 306.276 153.683 308.612 151.741 309.929 151.673 C 310.809 151.626 311.013 152.312 311.936 152.332 C 313.351 152.362 316.39 150.7 317.967 151.013 C 319.266 151.27 320.676 152.235 320.983 153.322 C 321.331 154.56 320.204 157.392 319.307 158.271 C 318.615 158.948 317.351 158.837 316.627 158.93 C 316.085 159.001 316.137 158.863 315.286 158.93 C 313.019 159.111 302.984 161.396 299.878 160.91 C 298.088 160.63 298.274 159.246 296.526 158.93 C 293.605 158.405 284.594 160.506 282.457 160.251 C 281.586 160.145 281.92 159.59 281.118 159.59 C 279.938 159.59 276.692 161.138 273.938 162.118 C 274.259 162.815 274.557 163.475 274.83 164.087 C 275.285 165.109 275.654 165.986 275.96 166.796 C 276.185 166.833 276.404 166.853 276.615 166.851 C 278.917 166.828 281.845 164.477 283.316 164.872 C 284.409 165.166 284.411 167.471 285.325 167.511 C 286.492 167.562 288.311 163.856 290.016 163.552 C 291.669 163.256 293.641 165.338 295.374 165.531 C 296.984 165.712 298.769 164.683 300.065 164.872 C 301.144 165.029 301.64 166.165 302.744 166.191 C 304.176 166.226 306.019 164.401 308.104 164.212 C 310.584 163.987 314.57 164.443 316.815 165.531 C 318.76 166.474 320.389 168.644 321.169 169.82 C 321.68 170.588 321.989 171.086 321.84 171.8 C 321.654 172.704 321.017 174.292 319.494 174.769 C 316.923 175.576 309.026 172.884 305.425 172.79 C 302.862 172.722 300.623 173.614 299.395 173.449 C 298.694 173.355 298.793 172.854 298.054 172.79 C 296.652 172.667 292.303 173.716 290.685 174.109 C 289.71 174.346 289.574 174.578 288.675 174.769 C 287.369 175.048 284.827 175.726 283.316 175.429 C 281.987 175.167 281.463 173.756 279.966 173.449 C 279.314 173.315 278.463 173.395 277.538 173.546 C 277.635 174.289 277.722 175.066 277.797 175.871 C 279.542 176.157 282.019 177.096 283.779 177.161 C 285.907 177.24 287.518 176.262 289.809 176.501 C 292.624 176.796 296.494 178.681 299.524 179.47 C 302.261 180.184 305.337 180.026 307.228 181.121 C 308.832 182.048 309.041 184.571 310.578 185.079 C 312.289 185.644 315.706 183.487 317.278 183.759 C 318.391 183.952 319.053 184.81 319.623 185.409 C 320.112 185.923 320.21 186.33 320.628 187.058 C 321.236 188.114 323.008 190.181 322.973 191.347 C 322.946 192.287 322.09 193.16 321.298 193.657 C 320.45 194.189 319.017 194.586 317.949 194.317 C 316.776 194.022 315.96 192.042 314.598 191.678 C 313.105 191.277 310.961 192.605 309.238 192.337 C 307.498 192.065 305.186 190.837 304.215 190.028 C 303.573 189.494 304.13 188.955 303.209 188.377 C 300.998 186.994 290.511 183.971 286.458 183.759 C 283.781 183.619 282.297 185.324 280.428 185.079 C 279.663 184.979 278.811 184.725 278.015 184.367 C 277.963 185.55 277.874 186.756 277.74 187.974 C 278.376 188.288 278.902 188.62 279.171 188.927 C 279.765 189.598 278.793 190.927 279.507 191.236 C 280.765 191.783 286.681 187.81 288.887 188.597 C 290.828 189.289 291.152 194.121 292.571 194.536 C 293.774 194.886 295.07 192.867 296.593 192.227 C 298.27 191.521 301.006 190.569 302.287 190.577 C 303.084 190.582 303.569 190.682 303.963 191.236 C 304.54 192.053 303.601 195.193 304.632 195.855 C 305.85 196.637 310.194 194.455 311.667 194.536 C 312.514 194.583 312.949 194.654 313.341 195.196 C 313.903 195.969 314.957 198.312 314.012 199.484 C 312.53 201.325 303.738 203.332 300.947 203.114 C 299.252 202.981 298.973 201.409 297.597 201.133 C 295.956 200.806 293.463 202.327 291.566 201.794 C 289.54 201.224 286.945 198.41 285.871 197.505 C 285.311 197.031 285.559 196.642 284.867 196.515 C 283.484 196.261 278.249 198.458 275.945 198.518 C 275.904 198.699 275.863 198.881 275.821 199.063 C 276.35 199.24 276.794 199.458 277.063 199.706 C 277.913 200.49 276.788 202.4 277.733 203.335 C 279.039 204.627 284.441 204.267 285.774 205.645 C 286.803 206.711 285.496 209.083 286.443 209.933 C 287.518 210.902 291.367 209.918 292.474 210.594 C 293.216 211.047 292.835 212.351 293.479 212.573 C 294.307 212.86 296.272 211.037 297.497 211.253 C 298.729 211.471 299.405 213.655 300.848 213.892 C 302.601 214.182 305.247 211.72 307.547 211.913 C 310.037 212.122 313.948 214.472 315.251 215.542 C 315.975 216.135 315.748 216.762 316.257 217.192 C 316.824 217.67 318.096 217.546 318.601 218.182 C 319.173 218.896 319.474 220.523 319.272 221.481 C 319.084 222.376 318.612 223.531 317.597 223.79 C 316.066 224.182 311.938 222.064 309.892 221.481 C 308.377 221.048 307.093 220.815 306.208 220.491 C 305.599 220.268 305.606 219.895 304.868 219.831 C 303.463 219.708 299.015 221.24 297.497 221.151 C 296.639 221.1 296.648 220.727 295.823 220.491 C 294.445 220.097 291.822 219.942 289.458 219.172 C 287.907 218.665 285.647 217.977 283.657 217.171 C 283.924 218.35 283.405 220.097 284.132 220.95 C 285.015 221.987 287.587 221.975 288.821 222.599 C 289.815 223.101 290.329 223.634 291.167 224.248 C 292.104 224.938 293.573 225.628 294.182 226.558 C 294.739 227.413 293.848 228.538 294.852 229.528 C 296.75 231.399 306.057 232.305 308.922 235.135 C 311.341 237.529 312.996 242.63 312.271 244.374 C 311.708 245.729 308.428 246.012 307.247 246.024 C 306.479 246.03 306.121 245.861 305.571 245.364 C 304.77 244.637 304.441 242.425 303.227 241.404 C 301.869 240.262 298.773 240.023 297.531 239.095 C 296.616 238.411 296.879 237.395 295.857 236.786 C 294.327 235.876 289.42 236.305 288.152 235.135 C 287.211 234.268 288.258 232.377 287.482 231.507 C 286.614 230.532 283.718 230.555 282.792 229.857 C 282.155 229.378 282.395 228.75 281.787 228.208 C 280.907 227.422 278.261 227.041 277.432 225.899 C 276.642 224.808 277.933 222.843 276.762 221.61 C 275.535 220.317 271.156 219.583 267.956 218.704 C 267.691 219.144 267.42 219.583 267.144 220.023 C 267.053 221.384 267.001 222.674 267.474 223.359 C 268.3 224.556 270.522 224.266 271.495 225.009 C 272.318 225.64 272.228 226.581 273.17 227.318 C 274.512 228.374 278.316 228.7 279.533 230.288 C 280.71 231.821 279.856 234.616 280.539 236.556 C 281.209 238.46 282.289 240.551 283.554 241.835 C 284.686 242.985 286.627 242.987 287.574 244.145 C 288.57 245.364 288.445 247.975 289.247 249.093 C 289.879 249.97 290.938 250.014 291.593 250.743 C 292.298 251.526 292.414 253.001 293.268 253.712 C 294.168 254.461 295.966 254.209 296.954 255.032 C 298.01 255.913 298.149 257.915 299.299 258.991 C 300.543 260.157 303.399 260.38 304.324 261.63 C 305.158 262.758 305.606 264.836 304.993 265.919 C 304.322 267.106 301.839 268.553 299.969 268.228 C 297.515 267.803 293.674 262.512 291.593 261.3 C 290.325 260.561 289.528 261.029 288.578 260.311 C 287.372 259.398 286.603 256.614 285.23 255.691 C 283.987 254.858 281.716 255.612 280.873 254.701 C 280.011 253.77 280.15 251.016 280.203 250.083 C 280.232 249.57 280.706 249.498 280.539 249.093 C 280.236 248.354 277.955 247.776 276.854 246.123 C 275.239 243.701 274.954 236.974 272.834 234.577 C 271.114 232.632 267.864 232.456 266.134 231.608 C 264.855 230.981 264.038 230.529 263.12 229.958 C 262.36 229.487 261.644 229.406 261.011 228.638 C 260.018 229.874 258.995 231.073 257.956 232.22 C 258.515 236.826 261.552 250.118 263.899 253.366 C 265.301 255.306 267.688 254.398 268.588 255.676 C 269.524 257.001 268.473 259.943 269.259 261.284 C 269.946 262.457 271.928 262.469 272.608 263.593 C 273.351 264.821 272.587 267.433 273.278 268.543 C 273.852 269.462 275.252 268.977 275.959 270.192 C 277.2 272.324 279.059 280.36 277.968 282.729 C 277.19 284.421 274.13 284.949 272.944 285.039 C 272.186 285.096 271.715 285.048 271.269 284.38 C 270.425 283.117 271.134 277.446 269.929 275.802 C 269.02 274.561 266.675 275.049 265.908 274.151 C 265.213 273.337 265.229 271.916 265.239 270.852 C 265.248 269.83 266.371 268.631 265.908 267.883 C 265.35 266.978 262.067 267.098 261.218 266.234 C 260.549 265.55 260.558 264.506 260.548 263.593 C 260.539 262.64 261.68 261.372 261.218 260.625 C 260.66 259.72 257.377 259.84 256.528 258.975 C 255.858 258.292 255.847 257.18 255.858 256.337 C 255.869 255.534 256.855 254.72 256.528 254.026 C 256.108 253.129 253.02 253.073 252.51 251.716 C 251.866 250.008 254.61 246.163 254.519 243.799 C 254.44 241.716 253.685 239.518 252.51 238.191 C 252.402 238.069 252.28 237.959 252.146 237.858 C 249.425 240.13 246.403 242.162 243.276 243.907 C 243.431 245.798 244.296 249.285 245.272 250.65 C 245.994 251.659 247.136 251.308 247.952 252.299 C 249.114 253.713 250.194 258.02 250.968 259.227 C 251.364 259.844 251.665 259.633 251.973 260.217 C 252.501 261.224 253.259 263.97 253.313 265.495 C 253.357 266.755 252.598 267.537 252.643 268.795 C 252.696 270.321 253.889 272.378 253.983 274.074 C 254.072 275.67 253.088 276.444 253.313 278.693 C 253.71 282.653 259.827 294.037 258.673 297.168 C 257.944 299.142 254.393 299.58 252.977 299.478 C 251.933 299.403 251.277 298.858 250.634 297.828 C 249.634 296.231 249.417 290.938 248.622 289.58 C 248.209 288.875 247.682 289.397 247.282 288.591 C 246.361 286.73 244.903 277.739 245.272 275.393 C 245.459 274.217 246.742 274.036 246.612 273.414 C 246.466 272.705 244.488 272.245 243.932 271.435 C 243.418 270.684 243.158 269.817 243.262 268.795 C 243.396 267.489 245.432 266.017 245.272 264.176 C 245.059 261.735 241.279 256.695 240.247 255.269 C 239.781 254.624 239.548 254.874 239.242 254.279 C 238.705 253.231 238.669 249.715 237.901 248.671 C 237.871 248.627 237.836 248.589 237.801 248.554 C 231.999 259.38 224.212 273.561 220.184 285.537 C 212.857 307.326 213.051 349.851 204.44 359.108 C 199.666 364.239 190.247 361.917 187.021 360.427 C 186.131 360.016 185.46 359.233 184.978 358.356 C 184.018 358.001 183.138 357.306 182.676 356.875 C 181.901 356.152 181.926 355.772 182.006 353.576 C 182.23 347.314 188.624 322.637 190.045 308.047 C 191.381 294.333 190.897 280.113 190.715 268.458 C 190.634 263.214 190.602 257.583 190.412 252.675 C 189.232 253.563 187.869 252.721 186.865 253.549 C 185.579 254.611 184.931 258.113 183.85 259.158 C 183.106 259.881 182.296 259.406 181.506 260.149 C 180.298 261.279 179.236 265.105 177.821 266.416 C 176.708 267.449 175.147 267.281 174.136 268.066 C 173.148 268.832 172.855 270.375 171.79 271.036 C 170.657 271.739 168.313 271.442 167.436 272.025 C 166.804 272.444 167.05 273.289 166.431 273.674 C 165.601 274.192 163.486 274.077 162.411 274.335 C 161.584 274.532 161.285 274.685 160.402 274.994 C 159.087 275.455 156.397 277.099 155.041 276.973 C 154.011 276.878 153.198 275.978 152.697 275.324 C 152.254 274.745 151.903 274.11 152.027 273.345 C 152.191 272.323 153.514 270.622 154.371 269.716 C 155.098 268.948 156.046 268.725 156.716 268.066 C 157.386 267.406 157.294 266.503 158.392 265.757 C 160.271 264.479 167.289 263.465 168.776 262.127 C 169.59 261.396 168.8 260.327 169.446 259.818 C 170.289 259.155 172.746 260.078 174.136 259.158 C 175.85 258.024 177.561 253.732 178.49 252.56 C 178.957 251.972 179.015 252.122 179.496 251.571 C 180.414 250.514 182.275 247.307 183.85 245.961 C 184.047 245.794 184.256 245.649 184.473 245.52 C 183.121 244.788 181.888 243.976 180.731 243.067 C 179.258 244.193 178.18 247.306 176.475 248.603 C 174.836 249.852 172.158 249.909 170.781 250.914 C 169.643 251.743 170.154 252.657 168.436 253.882 C 164.637 256.588 147.734 261.605 143.312 265.429 C 140.629 267.748 141.255 271.645 139.626 272.357 C 138.242 272.962 135.479 271.496 134.602 270.708 C 133.995 270.162 133.776 269.745 133.931 268.728 C 134.236 266.716 135.75 261.673 139.292 258.501 C 144.38 253.942 161.505 249.347 165.42 246.293 C 167.261 244.861 166.53 243.618 167.766 242.665 C 169.241 241.529 172.442 241.601 174.131 240.355 C 174.845 239.828 175.364 239.027 175.843 238.199 C 175.785 238.128 175.727 238.059 175.672 237.988 C 175.07 237.246 174.478 236.433 173.905 235.568 C 173.694 235.433 173.489 235.347 173.261 235.43 C 172.484 235.713 172.149 238.213 170.915 238.73 C 169.439 239.346 166.025 237.453 164.55 238.069 C 163.316 238.584 163.371 240.881 162.206 241.368 C 160.9 241.914 158.303 240.146 156.844 240.709 C 155.408 241.265 155.04 244.069 153.494 244.667 C 151.786 245.329 148.49 243.269 146.794 244.008 C 145.203 244.702 144.889 247.698 143.445 248.627 C 142.068 249.512 139.932 248.952 138.42 249.617 C 136.919 250.276 135.648 251.379 134.401 252.586 C 133.065 253.877 132.196 256.848 130.716 257.205 C 129.28 257.55 126.164 256.294 125.691 254.895 C 125.132 253.243 127.633 249.112 129.04 247.308 C 130.188 245.837 132.161 245.426 133.06 244.337 C 133.821 243.419 133.437 242.111 134.401 241.368 C 135.698 240.372 139.714 240.587 141.1 239.719 C 142.079 239.107 141.852 237.917 142.776 237.41 C 143.96 236.756 147 236.602 148.135 236.75 C 148.816 236.837 148.849 237.554 149.475 237.41 C 150.642 237.139 152.975 233.507 154.835 232.79 C 156.455 232.167 158.889 233.318 159.859 232.79 C 160.565 232.408 159.893 231.481 160.866 230.811 C 162.085 229.973 165.898 228.559 169.628 227.515 C 168.597 225.13 167.714 222.697 167.034 220.417 C 166.694 221.219 166.485 222.096 165.73 222.412 C 164.2 223.049 161.218 221.348 159.03 221.752 C 156.747 222.172 153.985 225.116 152.33 225.05 C 151.132 225.002 150.562 222.927 149.651 223.071 C 148.561 223.243 147.795 226.451 146.301 227.03 C 144.716 227.644 141.854 225.756 140.269 226.37 C 138.776 226.949 138.856 229.421 136.919 230.33 C 134.042 231.68 126.573 232.303 122.85 231.649 C 119.895 231.129 116.95 229.31 115.815 228.02 C 115.072 227.175 114.944 226.255 115.145 225.38 C 115.376 224.384 116.201 222.842 117.49 222.412 C 119.238 221.827 122.811 223.618 125.53 223.731 C 128.283 223.845 131.971 224.064 133.904 223.071 C 135.481 222.263 135.433 219.951 136.919 219.112 C 138.629 218.149 141.5 218.635 143.955 218.122 C 146.617 217.567 150.676 215.811 152.33 215.813 C 153.212 215.813 153.568 216.646 154.006 216.472 C 154.485 216.283 154.324 214.942 155.011 214.493 C 155.936 213.888 158.404 213.645 159.7 213.834 C 160.778 213.99 161.61 215.339 162.38 215.153 C 163.186 214.958 163.166 213.159 164.389 212.514 C 164.699 212.351 165.098 212.195 165.561 212.051 C 165.21 208.52 165.092 205.146 165.001 203.272 C 164.314 203.646 163.681 203.876 163.189 203.789 C 161.693 203.525 160.879 199.845 159.84 199.83 C 158.879 199.816 158.341 202.769 157.159 203.128 C 155.916 203.508 153.853 201.317 152.469 201.809 C 150.897 202.369 149.749 206.179 148.449 207.088 C 147.538 207.726 146.682 207.965 145.769 207.749 C 144.681 207.489 144.149 205.321 142.419 205.108 C 139.695 204.774 133.736 209.189 129.689 209.068 C 125.826 208.951 119.982 206.728 118.634 204.778 C 117.676 203.393 118.464 200.736 119.305 199.83 C 120.048 199.027 121.995 198.985 122.989 199.171 C 123.824 199.325 124.067 200.302 125 200.49 C 126.285 200.749 128.917 199.925 130.36 199.83 C 131.449 199.758 131.719 200.046 133.039 199.83 C 135.433 199.438 142.271 196.607 144.43 196.531 C 145.511 196.493 145.377 197.326 146.439 197.191 C 148.604 196.912 154.509 192.387 157.829 191.912 C 160.478 191.533 163.921 192.521 164.864 193.231 C 165.342 193.592 164.716 194.298 165.169 194.538 C 165.229 193.094 165.306 191.527 165.406 189.936 C 164.724 189.8 164.902 189.336 164.149 189.29 C 162.505 189.19 157.844 191.437 154.769 191.27 C 151.703 191.104 147.173 189.097 145.725 188.301 C 145.048 187.928 145.318 187.471 144.72 187.311 C 143.698 187.037 140.809 188.341 139.36 187.97 C 138.098 187.649 136.948 186.513 136.345 185.661 C 135.841 184.949 136.379 183.869 135.675 183.352 C 134.66 182.608 130.72 183.659 129.645 182.692 C 128.699 181.841 128.536 179.517 128.976 178.403 C 129.388 177.352 130.53 176.325 131.991 176.094 C 134.076 175.763 139.557 177.305 141.035 178.403 C 141.913 179.056 141.228 180.315 142.04 180.713 C 143.235 181.3 146.262 179.679 148.74 180.053 C 151.732 180.505 155.645 183.893 158.789 184.013 C 161.436 184.111 163.819 181.74 166.263 181.41 C 166.272 181.353 166.283 181.298 166.291 181.242 C 166.359 180.819 166.432 180.394 166.508 179.966 C 165.573 180.03 164.641 179.978 163.88 179.785 C 162.116 179.337 160.65 176.828 159.189 176.486 C 158.005 176.207 156.88 177.393 155.839 177.146 C 154.751 176.887 153.509 175.577 152.824 174.836 C 152.303 174.27 152.749 173.852 151.82 173.186 C 149.471 171.505 135.892 168.619 133.395 165.928 C 131.948 164.369 132.384 162.109 132.725 160.98 C 132.976 160.146 133.506 159.655 134.4 159.331 C 135.7 158.856 138.565 158.711 140.43 159.331 C 142.375 159.976 143.919 162.782 145.79 163.289 C 147.505 163.753 149.785 162.103 151.15 162.63 C 152.394 163.109 152.297 164.769 153.83 165.928 C 156.251 167.76 163.809 172.164 165.89 171.867 C 167.055 171.7 166.533 169.872 167.565 169.228 C 167.931 168.999 168.459 168.78 169.071 168.586 C 169.65 166.507 170.281 164.497 170.953 162.632 C 170.822 162.351 170.666 162.132 170.465 162.016 C 169.641 161.541 168.23 162.893 167.116 162.675 C 165.884 162.438 164.131 161.249 163.43 160.366 C 162.876 159.668 163.444 158.726 162.76 158.057 C 161.753 157.068 157.859 156.917 156.73 155.747 C 155.817 154.8 156.587 152.653 155.726 152.119 C 154.787 151.536 152.264 153.047 151.036 152.778 C 150.028 152.557 149.292 151.922 148.691 151.129 C 148.013 150.23 148.506 148.605 147.351 147.499 C 145.611 145.833 138.728 144.538 137.301 143.21 C 136.561 142.524 136.509 141.996 136.632 141.232 C 136.795 140.209 137.385 137.907 138.976 137.602 C 141.674 137.087 150.321 142.738 154.051 143.871 C 156.513 144.618 158.309 143.788 159.746 144.86 C 161.274 146.001 161.233 149.423 162.76 150.799 C 164.263 152.152 167.687 152.266 168.791 153.109 C 169.474 153.63 169.213 154.531 169.796 154.758 C 170.525 155.042 171.983 153.838 173.146 154.098 C 173.537 154.185 174.001 154.376 174.486 154.629 C 174.641 154.335 174.8 154.045 174.963 153.756 C 174.823 153.692 174.696 153.601 174.589 153.464 C 174.085 152.824 174.701 150.973 173.918 150.165 C 172.965 149.18 169.58 149.078 168.56 148.515 C 167.971 148.19 168.027 147.931 167.555 147.525 C 166.852 146.923 165.585 145.771 164.54 145.216 C 163.569 144.701 162.43 144.859 161.526 144.226 C 160.505 143.513 159.751 141.781 158.845 140.927 C 158.071 140.199 157.17 139.937 156.5 139.278 C 155.83 138.618 155.495 137.628 154.826 136.969 C 154.155 136.309 152.982 136.009 152.481 135.319 C 152.011 134.672 152.548 133.839 151.811 133.009 C 150.508 131.547 143.825 129.958 143.101 128.06 C 142.527 126.565 143.786 123.601 145.446 123.112 C 147.803 122.415 156.159 126.496 157.841 128.06 C 158.692 128.852 157.959 129.74 158.511 130.37 C 159.165 131.117 161.018 131.229 161.859 132.019 C 162.675 132.784 163.025 134.304 163.535 134.988 C 163.893 135.469 163.801 135.44 164.54 135.979 C 166.586 137.467 177.876 143.371 179.949 145.216 C 180.221 145.458 180.354 145.656 180.431 145.833 C 180.669 145.549 180.911 145.267 181.159 144.988 C 180.993 144.642 180.801 144.322 180.567 144.049 C 179.454 142.746 177.093 141.966 176.211 141.078 C 175.621 140.484 175.902 139.949 175.208 139.429 C 174.061 138.576 170.029 138.388 168.842 137.12 C 167.837 136.048 168.529 133.695 167.837 132.832 C 167.283 132.14 166.244 132.712 165.493 131.841 C 164.173 130.314 163.559 124.64 161.807 122.273 C 160.297 120.233 157.507 119.796 156.112 117.985 C 154.712 116.169 153.25 112.768 153.432 111.386 C 153.548 110.501 154.217 109.868 155.107 109.736 C 156.461 109.536 159.866 110.942 161.472 112.045 C 162.866 113.004 163.292 114.594 164.487 115.676 C 165.733 116.804 167.796 117.122 168.842 118.645 C 170.074 120.437 169.518 124.723 170.853 126.233 C 171.958 127.484 174.66 126.845 175.542 127.882 C 176.382 128.87 175.371 131.183 176.211 132.172 C 177.094 133.208 179.901 132.862 180.902 133.822 C 181.812 134.693 181.242 136.581 182.242 137.45 C 183.274 138.345 186.159 138.039 187.65 138.682 C 188.443 138.012 189.252 137.352 190.076 136.703 C 190.147 136.647 190.216 136.592 190.288 136.537 C 190.338 135.292 190.375 134.057 189.895 133.39 C 189.084 132.268 186.646 132.669 185.875 131.741 C 185.148 130.867 185.907 129.08 185.205 128.112 C 184.436 127.055 182.017 126.578 181.185 125.802 C 180.596 125.255 180.613 125.023 180.179 124.153 C 179.39 122.571 177.88 117.557 176.83 116.234 C 176.251 115.507 175.646 115.998 175.155 115.244 C 174.265 113.882 174.576 108.75 173.145 106.997 C 171.917 105.496 168.904 106.035 167.785 104.688 C 166.642 103.311 166.137 100.032 166.444 98.749 C 166.653 97.876 167.275 97.314 168.119 97.1 C 169.268 96.807 172.173 97.474 173.145 98.089 C 173.804 98.507 173.537 99.226 174.15 99.739 C 175.029 100.474 177.102 100.104 178.506 101.719 C 180.885 104.462 183.454 116.019 185.205 118.214 C 185.965 119.168 186.707 118.745 187.215 119.204 C 187.693 119.638 187.612 120.312 188.219 120.853 C 189.098 121.64 191.694 122.17 192.574 123.163 C 193.31 123.996 192.956 125.275 193.579 126.132 C 194.25 127.055 195.924 127.394 196.594 128.442 C 197.064 129.175 197.065 130.609 197.198 131.631 C 197.59 131.38 197.985 131.132 198.379 130.89 C 198.13 130.728 197.901 130.501 197.718 130.136 C 196.621 127.932 196.258 119.547 196.379 116.939 C 196.441 115.555 197.163 115.574 197.049 114.3 C 196.847 112.084 194.516 105.649 193.363 104.073 C 192.787 103.284 192.22 103.742 191.689 103.083 C 190.843 102.039 190.568 98.681 189.343 97.474 C 188.247 96.394 185.571 96.884 184.989 95.824 C 184.385 94.725 185.413 91.725 185.994 90.877 C 186.349 90.356 186.578 90.237 187.333 90.216 C 188.862 90.173 194 91.008 195.708 92.526 C 197.187 93.836 196.676 96.925 197.718 98.133 C 198.581 99.134 200.25 98.636 201.068 99.783 C 202.205 101.378 201.896 106.667 202.744 108.031 C 203.214 108.787 204.025 108.382 204.418 109.02 C 204.978 109.932 205.194 112.109 205.088 113.641 C 204.981 115.189 203.899 116.511 203.748 118.259 C 203.574 120.287 203.511 123.779 204.418 125.187 C 204.973 126.046 206.326 126.112 207.196 126.466 C 207.33 126.413 207.462 126.36 207.594 126.309 C 207.592 126.251 207.59 126.197 207.588 126.145 C 207.561 125.181 208.239 125.074 208.259 124.166 C 208.29 122.771 206.661 120.577 206.918 118.227 C 207.259 115.131 211.25 110.923 211.609 107.01 C 211.974 103.012 209.018 97.2 208.928 94.474 C 208.876 92.875 209.741 92.371 209.599 91.174 C 209.432 89.769 207.441 87.868 207.588 86.555 C 207.72 85.385 208.795 83.84 209.933 83.587 C 211.309 83.278 214.427 84.293 215.628 85.896 C 217.057 87.799 217.073 93.266 216.968 95.133 C 216.912 96.159 216.274 96.013 216.298 97.112 C 216.348 99.396 220.08 105.822 219.647 109.649 C 219.242 113.261 214.606 116.694 214.287 119.547 C 214.101 121.23 215.105 122.97 215.781 124.292 C 216.346 124.237 216.932 124.195 217.544 124.167 Z M 272.892 208.853 C 273.427 209.141 273.922 209.425 274.417 209.733 C 275.272 210.264 276.368 210.623 276.762 211.382 C 277.162 212.154 276.218 213.837 276.762 214.351 C 277.193 214.76 278.373 214.369 279.411 214.277 C 279.027 213.06 279.886 211.503 279.073 210.594 C 278.038 209.436 274.749 209.726 272.948 208.709 C 272.93 208.756 272.911 208.805 272.892 208.853 Z M 209.505 250.195 C 205.713 249.972 201.394 249.733 197.298 249.204 C 197.334 249.675 197.374 250.156 197.414 250.642 C 197.618 253.016 197.828 255.8 198.022 258.872 C 199.331 259.092 200.76 259.53 201.741 260.122 C 203.557 261.22 203.682 263.893 206.096 265.401 C 208.455 266.872 214.238 267.906 218.345 268.906 C 220.848 262.609 223.7 256.1 226.532 250.196 C 220.852 251.132 215.337 250.537 209.505 250.195 Z M 198.084 298.81 C 197.907 301.003 197.682 303.436 197.42 306.031 C 200.917 306.832 205.383 308.408 208.285 309.898 C 209.067 304.142 209.918 298.422 210.932 293.156 C 207.207 292.72 202.018 291.422 198.589 290.072 C 198.485 293.033 198.321 295.964 198.084 298.81 Z M 190.095 352.269 C 192.797 353.323 196.823 355.799 199.415 353.169 C 201.395 351.159 202.856 346.138 204.099 339.488 C 202.955 339.507 201.776 339.433 200.72 339.282 C 198.662 338.984 195.48 338.251 193.292 337.278 C 192.283 343.195 191.197 348.473 190.095 352.269 Z M 207.284 317.487 C 205.521 317.672 203.262 317.382 201.391 316.839 C 200.037 316.445 198.212 315.692 196.462 314.788 C 195.861 319.902 195.157 325.259 194.388 330.4 C 197.111 330.299 201.782 331.153 205.315 332.094 C 205.992 327.54 206.625 322.572 207.284 317.487 Z M 214.154 280.257 C 214.631 278.842 215.144 277.382 215.686 275.89 C 212.901 275.863 209.723 275.461 207.439 274.639 C 204.469 273.571 200.881 270.459 198.495 268.295 C 198.672 272.959 198.775 277.939 198.739 282.965 C 202.118 282.997 208.326 284.389 212.514 285.925 C 213.021 283.906 213.565 282.007 214.154 280.257 Z M 270.262 154.74 C 270.297 154.806 270.333 154.871 270.369 154.938 C 270.472 154.897 270.579 154.857 270.689 154.818 C 270.541 154.792 270.399 154.766 270.262 154.74 Z" style="fill: rgb(255, 255, 255); fill-opacity: 1; fill-rule: nonzero; stroke: none; stroke-dasharray: none; stroke-dashoffset: 0px; stroke-linecap: butt; stroke-linejoin: miter; stroke-miterlimit: 4; stroke-opacity: 1; stroke-width: 1px; paint-order: normal; vector-effect: none; opacity: 1; mix-blend-mode: normal; isolation: auto;"/>
</svg>