<?xml version="1.0" encoding="utf-8"?>
<svg viewBox="0 0 500 500" xmlns="http://www.w3.org/2000/svg">
  <path d="M 64.066 62.277 L 378.891 62.277 L 378.891 371.664 L 64.066 371.664 Z" style="fill: rgb(196, 193, 193);"/>
  <path fill="rgb(255,0,0)" stroke="rgb(255,0,0)" stroke-width="0" opacity="0.9725490196078431" d="M 225.092 278.231 C 226.419 284.066 226.213 290.26 225.862 297.281 C 227.195 296.259 228.443 295.723 230.101 295.324 C 232.435 294.767 235.902 294.47 238.319 295.324 C 240.764 296.191 243.138 297.739 244.668 300.553 C 246.812 304.493 248.493 314.21 247.656 318.677 C 247.038 321.976 245.055 324.677 242.8 325.994 C 240.645 327.254 236.826 327.328 234.584 326.693 C 232.563 326.119 231.199 324.529 229.729 322.858 C 228.037 320.937 227.155 316.492 225.247 315.54 C 224.925 315.379 224.555 315.349 224.158 315.397 C 223.626 318.955 222.952 322.447 222.103 325.629 C 219.932 333.77 215.804 345.463 212.766 348.283 C 211.254 349.688 209.816 349.349 208.284 348.981 C 206.469 348.545 203.71 346.708 202.682 345.147 C 201.759 343.747 201.665 342.801 201.935 340.267 C 202.406 335.837 206.835 326.519 208.831 318.012 C 208.611 318.073 208.391 318.129 208.174 318.182 C 203.79 319.251 197.807 319.279 193.98 318.182 C 190.703 317.245 187.728 315.541 186.137 312.956 C 184.355 310.062 183.706 304.496 184.643 301.106 C 185.516 297.95 189.202 294.575 190.993 293.09 C 192.118 292.156 192.461 291.986 193.98 291.696 C 196.511 291.212 202.433 290.741 205.932 291.696 C 207.896 292.231 209.797 293.311 211.475 294.5 C 211.622 289.747 211.479 285.265 210.898 281.716 C 210.309 278.128 208.804 275.51 207.332 272.943 C 206.575 273.719 205.813 274.422 205.069 274.98 C 201.708 277.5 197.236 279.726 193.865 280.556 C 191.136 281.228 188.97 281.25 186.394 280.556 C 183.399 279.751 178.81 277.574 177.057 275.329 C 175.537 273.383 175.125 271.342 175.563 268.358 C 176.216 263.905 182.079 252.881 183.779 250.584 C 184.429 249.706 184.755 249.96 185.274 249.538 C 185.869 249.054 185.914 248.181 187.141 247.796 C 189.548 247.042 197.333 247.053 201.334 247.796 C 201.923 247.905 202.512 248.03 203.094 248.172 C 203.169 246.549 203.283 244.943 203.428 243.38 C 203.701 240.43 204.209 236.811 204.851 233.337 C 201.914 232.847 198.929 232.107 196.23 231.116 C 185.931 227.33 170.52 216.442 162.988 208.81 C 157.036 202.776 153.655 196.137 151.784 190.338 C 150.202 185.435 150.116 180.237 151.038 176.397 C 151.818 173.147 153.4 169.96 155.893 168.381 C 158.455 166.76 162.718 166.339 166.351 166.988 C 170.516 167.731 178.01 172.317 179.423 173.609 C 179.936 174.078 179.682 174.681 179.797 174.655 C 179.935 174.624 180.112 173.984 180.169 172.912 C 180.315 170.285 178.057 161.517 179.423 156.183 C 180.829 150.699 185.222 142.866 188.76 140.5 C 191.282 138.813 194.235 139.109 196.978 139.803 C 200.086 140.588 203.35 141.965 206.315 145.727 C 210.522 151.068 214.395 171.971 218.03 176.552 C 218.067 163.814 219.057 144.424 216.481 134.61 C 213.699 124.018 206.897 113.58 203.035 109.866 C 200.994 107.902 197.915 107.574 197.433 107.775 C 197.182 107.88 197.686 108.198 197.806 108.82 C 198.077 110.22 199.113 114.826 198.553 117.185 C 198.06 119.259 196.97 121.501 195.191 122.413 C 193.242 123.41 189.112 123.089 186.974 122.413 C 185.181 121.844 183.707 120.822 182.866 119.276 C 181.863 117.431 181.522 114.131 182.118 111.607 C 182.761 108.898 185.112 105.562 186.974 103.592 C 188.544 101.933 190.053 100.726 192.205 100.107 C 194.661 99.399 198.158 99.08 201.167 100.107 C 204.747 101.327 208.881 104.819 212 108.123 C 215.285 111.604 218.021 115.93 220.215 120.669 C 222.601 125.82 224.282 130.623 225.445 138.095 C 226.129 142.494 226.59 149.606 226.857 156.696 C 227.873 152.958 228.97 149.499 230.219 147.121 C 233.989 139.948 237.16 134.901 243.292 129.348 C 250.53 122.789 264.819 113.101 272.423 111.224 C 277.454 109.983 282.439 110.729 284.749 112.967 C 287.083 115.226 286.953 121.703 286.244 124.817 C 285.667 127.341 284.131 129.626 282.134 130.742 C 280.067 131.896 275.609 131.615 273.918 131.439 C 272.956 131.338 272.503 131.459 272.05 130.742 C 271.186 129.372 271.171 122.842 271.303 121.332 C 271.358 120.692 272.062 120.228 271.677 120.286 C 270.234 120.505 252.677 130.612 245.906 138.06 C 239.075 145.572 234.336 156.225 230.966 165.245 C 229.113 170.205 227.445 177.497 226.496 182.968 C 226.959 185.122 227.689 187.837 226.939 188.98 C 226.678 189.376 226.227 189.717 225.681 189.994 C 225.692 190.142 225.71 190.258 225.736 190.338 C 225.86 190.718 226.157 190.686 226.483 190.338 C 227.769 188.973 230.418 176.656 233.953 170.124 C 237.66 163.275 244.148 154.364 248.52 150.258 C 251.481 147.478 253.82 146.179 256.737 145.38 C 259.558 144.606 263.511 144.215 265.701 145.38 C 267.814 146.503 269.073 149.336 269.809 152.002 C 270.665 155.1 270.92 158.636 269.809 163.153 C 268.253 169.483 258.398 184.791 258.604 186.853 C 258.662 187.437 258.92 187.185 259.725 187.202 C 262.239 187.251 275.006 183.459 279.893 184.413 C 283.515 185.121 285.936 187.074 287.738 189.641 C 289.769 192.54 291.671 197.532 290.724 201.491 C 289.645 206.011 285.12 211.281 279.893 215.084 C 273.698 219.591 263.717 223.428 254.496 225.539 C 244.756 227.769 227.808 225.157 222.749 227.629 C 220.459 228.75 221.394 231.205 220.301 232.558 C 219.601 239.524 217.995 250.603 218.052 258.315 C 221.271 253.954 225.363 249.363 226.903 247.823 C 227.977 246.75 227.977 246.716 229.145 246.428 C 231.033 245.964 235.604 245.685 238.11 246.428 C 240.37 247.101 242.111 248.461 243.711 250.263 C 245.564 252.348 247.193 255.353 248.193 258.627 C 249.345 262.398 250.59 268.184 249.687 271.87 C 248.895 275.101 246.609 278.46 244.084 279.886 C 241.688 281.241 238.113 281.552 235.121 280.583 C 231.517 279.419 226.3 273.854 224.289 271.87 C 223.182 270.779 222.971 269.517 222.422 269.431 C 222.017 269.367 221.949 270.094 221.345 270.451 C 222.829 272.95 224.41 275.234 225.092 278.231 Z M 204.175 265.684 C 203.602 263.006 203.257 260.061 203.096 257.015 C 200.274 255.529 194.18 254.41 191.249 255.463 C 188.153 256.576 185.715 261.072 184.527 263.828 C 183.514 266.174 183.033 269.283 183.779 270.799 C 184.38 272.018 185.654 272.829 187.514 272.889 C 190.577 272.988 198.718 270.025 201.707 268.009 C 202.744 267.311 203.572 266.551 204.191 265.752 C 204.186 265.73 204.18 265.706 204.175 265.684 Z M 193.616 147.471 C 191.206 148.047 188.493 152.801 187.639 157.229 C 186.46 163.349 187.304 173.925 190.628 182.322 C 194.382 191.806 207.675 210.762 210.796 210.901 C 212.846 210.992 212.171 203.886 212.29 199.052 C 212.448 192.685 212.628 183.076 210.796 175.352 C 208.936 167.502 204.672 156.885 201.086 152.35 C 198.745 149.389 195.772 146.955 193.616 147.471 Z M 259.351 153.046 C 258.27 153.187 257.261 153.562 255.617 155.137 C 252.156 158.452 244.114 168.728 239.93 176.746 C 235.545 185.146 230.112 202.007 230.219 204.628 C 230.246 205.303 230.408 205.516 230.966 205.325 C 233.064 204.603 245.234 192.355 250.386 185.111 C 255.344 178.143 260.093 168.486 261.593 162.805 C 262.597 158.997 262.431 155.099 261.593 153.743 C 261.115 152.973 260.198 152.937 259.351 153.046 Z M 160.749 174.655 C 158.867 175.225 158.313 178.03 158.508 180.928 C 158.819 185.584 162.269 195.295 166.724 201.143 C 171.349 207.213 179.643 212.311 186.146 216.478 C 192.098 220.29 200.434 224.523 204.074 225.539 C 204.922 225.776 205.777 226.057 206.453 226.172 C 206.703 225.274 206.957 224.453 207.214 223.735 C 203.479 215.765 183.167 187.943 174.941 180.928 C 169.554 176.334 163.335 173.871 160.749 174.655 Z M 269.809 192.081 C 263.035 193.074 250.751 200.312 243.664 205.325 C 237.421 209.74 227.349 217.782 228.725 219.963 C 230.26 222.398 248.85 219.51 257.11 217.175 C 264.562 215.067 273.371 209.149 276.532 207.416 C 277.895 206.668 277.985 206.811 278.774 206.022 C 279.93 204.863 282.172 202.358 282.508 200.446 C 282.827 198.634 282.561 196.231 281.013 194.869 C 279.02 193.115 274.457 191.401 269.809 192.081 Z M 233.254 253.398 C 231.046 253.783 226.237 259.162 225.784 261.066 C 225.503 262.245 226.165 262.687 227.277 263.855 C 229.358 266.039 237.903 272.875 239.976 272.916 C 240.994 272.936 241.336 272.076 241.47 270.826 C 241.746 268.265 239.631 258.976 237.735 256.188 C 236.513 254.389 234.905 253.111 233.254 253.398 Z M 198.089 298.666 C 196.378 298.513 195.322 299.153 194.355 300.06 C 193.242 301.102 191.955 303.275 192.113 304.939 C 192.285 306.753 193.761 309.5 195.849 310.516 C 198.362 311.738 204.161 311.185 207.053 310.516 C 208.131 310.266 209.29 309.878 210.246 309.417 C 210.435 307.937 210.612 306.415 210.767 304.871 C 210.54 304.658 210.296 304.448 210.042 304.242 C 207.774 302.408 200.855 298.913 198.089 298.666 Z M 231.97 302.993 C 230.673 303.148 229.105 304.304 228.981 305.78 C 228.784 308.122 232.991 314.819 234.957 316.933 C 236.213 318.283 237.971 319.148 238.692 319.024 C 239.185 318.941 239.335 318.489 239.44 317.631 C 239.676 315.691 239.62 308.181 237.946 305.78 C 236.653 303.929 233.527 302.806 231.97 302.993 Z" style="fill: rgb(255, 255, 255); fill-opacity: 1; fill-rule: nonzero; stroke: none; stroke-dasharray: none; stroke-dashoffset: 0px; stroke-linecap: butt; stroke-linejoin: miter; stroke-miterlimit: 4; stroke-opacity: 1; stroke-width: 1px; paint-order: normal; vector-effect: none; opacity: 1; mix-blend-mode: normal; isolation: auto;"/>
</svg>