<?xml version="1.0" encoding="utf-8"?>
<svg viewBox="0 0 500 500" xmlns="http://www.w3.org/2000/svg">
  <path d="M 64.066 62.277 L 378.891 62.277 L 378.891 371.664 L 64.066 371.664 Z" style="fill: rgb(196, 193, 193);"/>
  <path fill="rgb(255,0,0)" stroke="rgb(255,0,0)" stroke-width="0" opacity="0.9647058823529412" d="M 243.089 104.252 C 245.101 104.425 249.701 105.512 251.721 107.36 C 253.667 109.139 254.414 110.718 255.174 114.957 C 256.656 123.214 256.856 146.685 255.174 159.156 C 253.787 169.443 251.215 177.492 247.578 185.399 C 244.099 192.958 240.402 201.337 234.111 205.772 C 230.425 208.37 225.143 210.392 219.95 211.437 C 220.53 217.174 220.092 225.697 219.77 234.842 C 219.552 241.032 218.934 249.912 218.095 259.766 C 218.328 259.444 218.56 259.133 218.79 258.835 C 223.255 253.054 229.892 250.327 234.674 245.368 C 239.442 240.425 245.013 231.106 247.451 229.139 C 248.443 228.338 248.62 228.452 249.523 228.448 C 250.815 228.444 253.422 227.73 254.702 229.83 C 257.454 234.342 257.897 257.376 256.774 266.086 C 256.008 272.033 254.224 275.32 251.94 279.208 C 249.706 283.01 246.518 286.38 243.307 289.222 C 240.172 291.996 236.81 294.853 232.948 296.128 C 229.001 297.431 223.405 297.551 219.826 296.819 C 217.976 296.44 216.1 295.481 214.645 294.547 C 213.281 306.627 211.888 317.245 210.792 323.24 C 209.298 331.415 208.177 336.058 206.303 338.088 C 205.267 339.21 203.95 338.899 202.85 338.778 C 201.765 338.659 200.488 338.525 199.742 337.397 C 198.589 335.654 198.238 333.162 198.361 327.383 C 198.535 319.21 201.686 299.742 204.397 281.082 C 203.018 281.02 201.613 280.822 200.314 280.484 C 195.516 279.237 189.264 276.388 184.775 271.161 C 179.045 264.487 173.444 250.875 170.963 240.774 C 168.639 231.312 168.705 216.596 169.582 212.459 C 169.938 210.781 170.72 210.561 171.309 210.042 C 171.761 209.642 171.909 209.464 172.69 209.351 C 174.221 209.13 177.651 208.695 180.977 210.042 C 186.015 212.083 194.419 218.332 199.969 223.854 C 202.827 226.698 205.794 229.753 208.39 233.069 C 208.257 224.671 207.904 216.869 208.134 211.793 C 202.131 210.597 197.298 207.173 192.329 201.283 C 184.932 192.516 176.118 172.45 172.301 159.156 C 168.965 147.534 167.078 134.028 168.848 126.006 C 170.149 120.113 173.827 115.516 177.481 113.23 C 180.766 111.175 186.71 111.269 189.221 111.849 C 190.839 112.223 191.219 112.735 192.329 114.266 C 194.285 116.964 197.368 129.047 198.89 129.114 C 200.158 129.17 199.775 122.454 201.307 119.1 C 203.033 115.321 206.406 109.864 209.249 107.705 C 211.435 106.044 214.247 105.615 216.155 105.633 C 217.669 105.648 218.767 105.385 219.953 107.015 C 222.515 110.535 224.092 133.655 226.514 133.948 C 228.733 134.218 231.025 117.936 233.765 112.885 C 235.778 109.175 238.544 106.174 240.326 104.943 C 241.392 104.207 241.828 104.144 243.089 104.252 Z M 244.815 116.683 C 242.764 116.02 236.111 142.896 233.075 147.07 C 231.759 148.879 231.121 148.906 229.622 149.142 C 227.676 149.447 224.109 148.938 222.025 147.761 C 219.983 146.607 218.52 145.168 217.191 142.236 C 215.136 137.704 214.814 120.799 213.047 120.827 C 211.177 120.856 208.665 141.075 206.141 144.998 C 204.82 147.051 203.668 147.455 201.997 147.761 C 200.078 148.112 197.296 148.435 195.091 146.379 C 191.358 142.898 187.028 123.928 184.732 122.208 C 183.884 121.573 183.353 122.394 182.66 122.899 C 181.742 123.568 180.442 124.169 179.898 126.352 C 178.789 130.805 178.817 143.154 181.279 152.595 C 184.206 163.816 195.131 185.036 198.544 189.197 C 199.764 190.684 200.436 189.653 201.307 190.578 C 202.563 191.913 203.033 195.758 204.76 197.484 C 206.486 199.211 208.64 200.695 211.666 200.937 C 215.824 201.271 223.969 199.832 228.24 196.794 C 232.45 193.799 234.627 188.631 237.218 182.982 C 240.329 176.201 243.431 167.847 244.815 158.12 C 246.483 146.398 247.073 117.413 244.815 116.683 Z M 180.632 222.473 C 178.642 223.148 179.467 230.804 180.632 236.285 C 182.201 243.671 186.629 257.628 191.681 263.219 C 195.528 267.474 203.227 271.523 205.916 270.278 C 206.426 266.492 206.885 262.848 207.263 259.462 C 206.885 256.284 206.219 253.059 205.494 250.788 C 203.74 245.294 199.783 240.867 195.825 236.285 C 191.599 231.393 182.964 221.682 180.632 222.473 Z M 246.415 247.785 C 245.156 247.136 241.978 253.621 239.509 256.073 C 237.131 258.433 234.719 259.161 231.912 262.288 C 227.876 266.784 218.654 278.54 218.1 282.316 C 217.83 284.155 219.374 285.098 220.172 285.769 C 220.796 286.294 221.286 286.321 222.244 286.459 C 223.699 286.67 226.153 287.211 228.459 286.459 C 231.504 285.467 235.924 282.815 238.818 279.553 C 242.047 275.914 245.135 270.28 246.415 265.051 C 247.722 259.708 247.934 248.57 246.415 247.785 Z" style="fill: rgb(255, 255, 255); fill-opacity: 1; fill-rule: nonzero; stroke: none; stroke-dasharray: none; stroke-dashoffset: 0px; stroke-linecap: butt; stroke-linejoin: miter; stroke-miterlimit: 4; stroke-opacity: 1; stroke-width: 1px; paint-order: normal; vector-effect: none; opacity: 1; mix-blend-mode: normal; isolation: auto;"/>
</svg>