<?xml version="1.0" encoding="utf-8"?>
<svg viewBox="0 0 500 500" xmlns="http://www.w3.org/2000/svg">
  <path d="M 64.066 62.277 L 378.891 62.277 L 378.891 371.664 L 64.066 371.664 Z" style="fill: rgb(196, 193, 193);"/>
  <path fill="rgb(255,0,0)" stroke="rgb(255,0,0)" stroke-width="0" opacity="0.9725490196078431" d="M 247.919 145.714 C 252.241 146.896 258.523 150.585 263.276 154.158 C 264.665 151.12 265.926 147.948 266.303 145.094 C 267.329 137.336 266.067 123.894 264.231 120.232 C 263.347 118.466 262.238 117.619 260.778 118.16 C 257.99 119.192 251.88 128.069 249.038 134.734 C 247.837 137.551 247.13 141.44 246.578 145.426 C 247.001 145.49 247.445 145.585 247.919 145.714 Z M 273.816 168.159 C 274.905 172.124 274.435 176.746 273.816 181.28 C 273.437 184.063 272.907 186.963 272.085 189.883 C 272.459 189.937 272.834 189.972 273.209 189.983 C 277.609 190.116 285.065 190.499 288.403 187.911 C 291.559 185.464 292.508 179.185 293.237 175.48 C 293.84 172.418 293.868 169.667 293.237 167.193 C 292.644 164.866 291.142 162.635 289.784 160.978 C 288.568 159.494 287.484 157.912 285.64 157.525 C 283.357 157.044 279.252 157.984 276.662 159.596 C 275.11 160.562 273.682 162.514 272.413 164.347 C 272.994 165.563 273.449 166.823 273.816 168.159 Z M 261.604 209.704 C 260.491 211.666 259.224 213.234 258.043 213.769 C 257.927 213.822 257.807 213.868 257.684 213.908 C 255.466 215.767 254.057 216.2 250.681 216.847 C 249.628 217.049 248.447 217.209 247.157 217.331 C 249.524 223.31 251.706 229.689 253.182 231.42 C 254.331 232.768 254.56 232.763 255.944 232.801 C 258.293 232.865 263.706 231.99 266.994 229.348 C 271.048 226.09 276.447 216.906 277.353 212.773 C 277.931 210.134 277.576 208.551 275.972 206.558 C 274.583 204.833 270.684 202.907 267.194 201.238 C 265.517 204.179 263.526 207.232 261.604 209.704 Z M 225.128 216.847 C 220.645 216.418 214.828 215.747 208.669 214.889 C 209.326 221.027 209.32 229.192 210.364 232.801 C 211.349 236.205 212.597 238.187 213.817 239.707 C 214.701 240.808 215.204 241.368 216.579 241.779 C 218.595 242.38 223.243 242.974 225.557 241.779 C 227.814 240.613 229.236 238.434 230.392 234.873 C 231.533 231.359 230.928 223.651 231.022 217.32 C 229.101 217.197 227.129 217.038 225.128 216.847 Z M 162.628 198.546 C 160.216 195.582 158.627 191.948 157.631 188.295 C 154.139 192.472 147.673 201.816 146.138 206.558 C 144.979 210.133 145.335 213.72 146.138 215.536 C 146.685 216.774 147.59 217.278 148.9 217.607 C 150.699 218.059 154.159 218.462 156.497 216.917 C 159.602 214.864 162.558 206.392 164.784 203.795 C 165.298 203.196 165.704 202.7 166.093 202.298 C 164.829 201.139 163.729 199.898 162.628 198.546 Z M 157.104 172.302 C 158.052 168.857 159.762 164.799 162.083 161.07 C 162.063 161.039 162.042 161.008 162.021 160.978 C 161.383 160.078 160.56 159.516 159.95 158.906 C 159.431 158.387 159.131 158.087 158.568 157.525 C 157.826 156.782 157.238 155.298 155.806 154.762 C 153.808 154.014 149.126 154.111 146.828 154.762 C 145.013 155.276 144.129 155.924 142.684 157.525 C 140.524 159.918 136.348 166.115 135.778 169.265 C 135.376 171.487 136.049 173.415 137.16 174.79 C 138.307 176.209 140.258 177.237 142.684 177.552 C 145.98 177.98 152.611 175.552 155.806 175.48 C 156.033 175.475 156.253 175.469 156.465 175.463 C 156.603 174.419 156.811 173.365 157.104 172.302 Z M 190.943 154.692 C 183.995 156.087 178.921 159.933 175.059 163.67 C 171.624 166.994 169.171 171.896 168.153 175.41 C 167.348 178.193 167.469 180.249 168.153 183.007 C 168.73 185.33 169.061 188.263 170.667 190.87 C 171.625 188.1 172.744 185.457 173.692 184.132 C 174.96 182.358 175.94 181.654 177.835 181.369 C 180.436 180.979 186.496 181.458 188.54 183.786 C 190.693 186.24 190.5 192.097 189.921 196.217 C 189.779 197.227 189.555 198.391 189.262 199.598 C 193.709 200.64 198.507 201.553 203.04 202.328 C 202.345 200.582 202.427 198.115 202.991 195.856 C 203.887 192.271 207.873 186.205 210.243 183.77 C 211.877 182.091 213.223 181.165 215.077 181.008 C 217.181 180.83 220.707 181.166 222.328 183.425 C 224.651 186.66 224.885 197.486 224.4 202.071 C 224.286 203.15 224.122 204.159 223.894 205.079 C 229.876 205.349 235.249 205.065 237.214 205.106 C 238.149 205.126 238.145 204.999 238.595 205.106 C 238.746 205.142 238.896 205.227 239.044 205.324 C 239.493 205.38 239.932 205.494 240.35 205.673 C 240.686 205.474 241.022 205.106 241.358 205.106 C 241.818 205.106 242.164 205.747 242.739 205.797 C 243.473 205.861 244.767 205.042 245.501 205.106 C 246.076 205.156 246.243 205.779 246.883 205.797 C 247.263 205.808 247.754 205.794 248.299 205.696 C 247.023 201.278 246.284 195.734 246.648 192.705 C 247.067 189.214 249.334 186.257 251.137 184.763 C 252.558 183.586 254.248 183.138 255.971 183.382 C 257.573 183.608 259.816 184.391 261.412 185.854 C 262.246 183.257 262.795 180.644 262.767 178.173 C 262.731 175.029 262.083 171.723 260.7 168.827 C 259.698 168.213 258.822 167.415 258.707 165.812 C 258.702 165.747 258.7 165.68 258.699 165.611 C 256.188 162.471 251.666 158.991 248.47 157.751 C 249.689 161.367 249.381 168.595 248.59 172.4 C 247.854 175.941 246.277 179.53 244.101 181.032 C 242.128 182.395 238.481 182.29 236.505 181.723 C 234.848 181.247 233.573 180.183 232.706 178.615 C 231.632 176.671 231.042 173.278 231.325 170.328 C 231.541 168.082 232.558 164.691 233.626 162.252 C 233.116 161.768 232.685 161.145 232.463 160.287 C 232.456 160.26 232.449 160.232 232.443 160.204 C 231.028 160.077 229.702 159.85 228.927 159.526 C 227.788 159.05 228.537 158.05 226.855 157.454 C 225.751 157.063 223.627 156.594 220.911 156.133 C 219.071 158.195 215.575 158.443 213.817 158.215 C 212.297 158.018 211.166 157.648 210.364 155.453 C 210.288 155.244 210.219 155.003 210.158 154.734 C 209.442 154.665 208.72 154.6 207.998 154.541 C 208.018 154.571 208.039 154.6 208.058 154.63 C 209.365 156.613 209.357 159.502 208.748 162.227 C 208.013 165.515 205.351 171.187 202.878 172.931 C 200.905 174.322 198.079 174.226 195.972 173.622 C 193.811 173.002 191.308 171.058 190.102 169.133 C 188.919 167.244 188.422 164.808 188.72 162.227 C 188.952 160.22 190.013 157.075 191.196 154.643 C 191.111 154.659 191.026 154.675 190.943 154.692 Z M 222.45 97.442 C 224.063 97.206 228.718 97.149 231.428 98.132 C 234.126 99.112 236.559 100.677 238.679 103.312 C 241.331 106.609 242.602 116.956 245.24 117.469 C 247.632 117.935 250.036 110.23 253.527 108.491 C 257.127 106.698 263.317 106.392 266.649 107.11 C 269.233 107.667 270.872 108.8 272.519 110.908 C 274.65 113.639 276.392 118.493 277.353 123.339 C 278.484 129.042 278.294 139.743 278.044 143.367 C 277.924 145.103 276.641 145.828 277.353 146.475 C 278.538 147.553 285.337 145.598 288.748 146.475 C 291.972 147.303 294.908 148.811 297.381 151.309 C 300.215 154.173 303.086 158.767 304.287 163.395 C 305.595 168.438 305.672 175.141 304.287 180.66 C 302.866 186.318 299.107 193.445 295.654 196.889 C 292.91 199.626 287.713 198.621 286.331 201.378 C 284.743 204.547 288.916 211.318 288.403 215.881 C 287.908 220.276 285.848 224.66 283.568 228.312 C 281.333 231.893 278.196 234.94 274.936 237.635 C 271.643 240.358 267.457 243.476 263.886 244.541 C 260.81 245.459 258.025 245.408 254.908 244.541 C 251.278 243.531 245.536 239.892 243.513 237.98 C 242.314 236.848 242.354 234.673 241.787 234.873 C 240.965 235.161 240.87 240.828 239.37 243.505 C 237.756 246.384 235.546 249.743 232.118 251.447 C 228.03 253.479 220.084 254.33 215.544 253.519 C 212.078 252.9 209.32 251.237 206.9 248.993 C 206.12 258.666 205.064 269.552 203.995 278.888 C 201.904 297.139 198.473 327.915 195.707 335.518 C 194.672 338.364 193.859 338.577 192.6 339.316 C 191.416 340.011 189.705 340.158 188.456 340.007 C 187.308 339.868 186.112 339.965 185.348 338.626 C 183.872 336.038 183.848 328.147 183.967 321.015 C 184.123 311.671 188.353 295.392 187.42 286.485 C 186.728 279.87 183.512 272.048 181.895 270.946 C 181.158 270.443 180.366 271.3 179.824 271.982 C 179.103 272.886 178.084 275.42 178.442 276.471 C 178.752 277.379 180.617 277.257 181.205 278.197 C 181.896 279.304 182.297 281.594 181.895 283.032 C 181.493 284.472 180.43 286.426 178.788 286.83 C 176.563 287.377 170.72 286.167 168.774 283.722 C 166.64 281.042 166.525 274.439 167.393 270.601 C 168.2 267.029 170.587 263.166 173.263 261.278 C 175.826 259.469 179.957 258.76 182.931 259.206 C 185.811 259.637 189.142 261.878 190.873 263.695 C 192.309 265.201 192.527 269.754 193.29 268.874 C 194.29 267.722 194.774 254.131 195.454 240.909 C 193.982 243.09 192.529 245.561 191.372 246.613 C 189.781 248.06 189.044 248.861 187.229 249.375 C 184.931 250.027 180.7 250.148 178.251 249.375 C 176.109 248.7 174.715 247.323 173.071 245.577 C 171.112 243.496 168.859 240.557 167.546 237.29 C 166.086 233.655 166.923 225.451 165.129 224.513 C 163.692 223.763 161.432 227.827 158.914 228.657 C 156.041 229.604 151.955 230.116 148.555 229.348 C 144.927 228.528 140.234 225.775 137.85 223.478 C 135.93 221.627 135.023 219.797 134.397 217.262 C 133.65 214.238 133.559 210.339 134.397 206.212 C 135.429 201.13 142.682 192.889 141.303 188.947 C 140.076 185.439 131.662 185.345 128.872 182.732 C 126.564 180.57 125.435 177.936 124.729 175.135 C 123.991 172.206 123.692 169.094 124.729 165.466 C 126.078 160.742 130.578 152.924 134.052 149.237 C 136.813 146.307 139.9 144.735 143.03 143.712 C 146.013 142.738 150.742 145.013 152.353 143.022 C 154.292 140.625 151.219 133.133 151.662 128.174 C 152.114 123.12 153.154 116.869 155.115 112.98 C 156.744 109.753 158.845 106.967 161.676 105.729 C 164.649 104.429 169.057 104.408 172.726 105.729 C 177.005 107.27 182.491 111.781 185.502 115.743 C 188.323 119.454 189.159 128.829 190.682 128.519 C 192.455 128.157 193.11 113.372 195.171 108.837 C 196.619 105.649 198.049 103.606 200.35 102.276 C 202.729 100.9 206.568 100.5 209.328 100.895 C 211.956 101.271 214.613 104.843 216.579 104.348 C 218.51 103.862 219.98 99.133 221.068 98.132 C 221.642 97.605 221.653 97.558 222.45 97.442 Z M 226.248 109.182 C 224.222 110.523 222.933 121.375 222.104 128.519 C 221.585 132.997 222.233 139.444 222.47 145.044 C 227.112 145.681 231.288 146.221 234.41 146.369 C 234.793 144.432 235.109 142.566 235.226 140.95 C 235.632 135.349 236.095 130.006 235.226 125.066 C 234.4 120.372 232.29 114.524 230.392 111.944 C 229.136 110.238 227.415 108.409 226.248 109.182 Z M 210.364 120.232 C 209.907 116.836 209.177 115.258 208.292 114.016 C 207.691 113.173 206.976 111.95 206.22 112.635 C 204.448 114.24 202.828 132.605 200.125 142.495 C 203.222 142.662 206.506 142.981 209.808 143.368 C 210.097 134.749 210.914 124.315 210.364 120.232 Z M 177.215 124.375 C 174.64 120.259 169.874 116.286 167.546 116.779 C 165.413 117.23 164.096 122.006 163.403 125.757 C 162.523 130.519 162.243 138.296 164.093 143.712 C 165.081 146.605 167.759 149.363 170.153 151.943 C 173.528 149.116 177.461 146.575 182.119 144.792 C 180.651 138.419 179.764 128.449 177.215 124.375 Z M 177.215 229.348 C 178.5 233.63 181.797 237.922 182.74 238.326 C 183.104 238.481 183.078 237.935 183.43 237.635 C 184.015 237.137 185.081 236.816 186.193 235.563 C 188.139 233.371 191.953 228.13 193.789 223.823 C 195.096 220.757 195.483 216.297 196.13 212.929 C 188.402 211.571 181.182 209.977 176.422 208.254 C 176.8 214.929 175.873 224.874 177.215 229.348 Z" style="fill: rgb(255, 255, 255); fill-opacity: 1; fill-rule: nonzero; stroke: none; stroke-dasharray: none; stroke-dashoffset: 0px; stroke-linecap: butt; stroke-linejoin: miter; stroke-miterlimit: 4; stroke-opacity: 1; stroke-width: 1px; paint-order: normal; vector-effect: none; opacity: 1; mix-blend-mode: normal; isolation: auto;"/>
</svg>