<?xml version="1.0" encoding="utf-8"?>
<svg viewBox="0 0 500 500" xmlns="http://www.w3.org/2000/svg">
  <path d="M 64.066 62.277 L 378.891 62.277 L 378.891 371.664 L 64.066 371.664 Z" style="fill: rgb(196, 193, 193);"/>
  <path fill="rgb(255,0,0)" stroke="rgb(255,0,0)" stroke-width="0" opacity="0.9686274509803922" d="M 216.281 91.431 C 218.163 88.154 219.66 86.195 222.249 84.208 C 225.087 82.027 229.293 80.003 232.927 79.182 C 236.418 78.394 241.338 78.349 243.605 79.182 C 245.136 79.745 245.412 80.328 246.432 82.009 C 248.273 85.044 251.689 92.885 252.713 98.341 C 253.694 103.565 253.523 109.4 252.713 114.044 C 252.516 115.172 252.232 116.389 251.894 117.594 C 252.042 117.664 252.191 117.736 252.339 117.811 C 254.291 115.214 257.807 111.955 260.899 109.944 C 264.992 107.282 271.48 104.915 275.346 104.291 C 278.148 103.838 279.862 103.985 282.256 104.919 C 285.159 106.052 288.628 108.536 291.364 111.514 C 294.475 114.902 297.8 119.138 299.53 124.705 C 301.65 131.531 302.588 143.741 301.414 150.459 C 300.505 155.661 297.924 160.022 295.447 162.708 C 294.746 163.468 294.028 164.076 293.269 164.574 C 295.331 165.675 297.168 167.225 298.471 168.808 C 300.205 170.914 301.033 173.287 301.612 176.345 C 302.325 180.12 302.937 185.442 301.612 190.165 C 300.097 195.561 294.992 203.289 291.876 206.81 C 289.72 209.245 288.451 209.969 285.594 211.207 C 281.745 212.876 274.263 215.904 269.891 214.976 C 268.785 214.742 267.673 214.253 266.605 213.607 C 266.617 215.184 266.544 216.787 266.402 218.247 C 265.88 223.611 263.848 230.646 261.377 235.835 C 259.048 240.725 256.148 246.058 252.269 248.712 C 248.619 251.21 243.529 251.931 239.078 251.852 C 234.529 251.772 229.443 250.365 225.259 248.084 C 222.17 246.399 218.875 243.868 216.309 241.106 C 215.351 250.921 212.991 263.941 211.84 270.954 C 211.66 272.051 211.497 273.064 211.342 274.015 C 211.511 274.244 211.67 274.501 211.818 274.789 C 214.317 279.659 212.908 295.389 214.959 307.453 C 217.356 321.551 226.625 349.032 226.265 354.563 C 226.152 356.306 226.344 356.096 224.695 356.762 C 219.273 358.951 179.375 362.498 171.931 361.159 C 169.043 360.639 168.903 359.831 167.848 358.332 C 166.538 356.47 165.074 352.075 165.336 350.166 C 165.398 349.711 165.564 349.306 165.793 348.947 C 165.647 348.269 165.668 347.449 165.986 346.331 C 167.35 341.528 176.496 330.736 181.689 321.205 C 187.605 310.351 195.122 298.25 199.277 284.145 C 202.383 273.604 203.692 256.048 204.891 243.554 C 204.873 243.566 204.855 243.579 204.837 243.591 C 201.17 246.097 195.211 246.204 191.646 245.475 C 188.651 244.863 186.499 242.944 184.423 240.764 C 182.136 238.363 179.92 234.709 178.769 231.342 C 177.789 228.473 177.231 225.641 177.382 222.326 C 174.059 224.068 169.831 224.838 166.351 224.327 C 162.509 223.763 157.848 220.776 155.359 218.36 C 153.291 216.352 152.223 213.941 151.59 211.45 C 150.948 208.922 150.766 206.765 151.59 203.284 C 152.464 199.596 155.662 192.126 158.249 187.022 C 158.075 187.008 157.899 186.994 157.722 186.98 C 153.959 186.689 148.727 186.703 145.159 185.095 C 141.774 183.57 138.525 181.18 136.679 177.872 C 134.619 174.178 133.969 167.877 134.167 163.424 C 134.347 159.352 135.492 155.507 137.307 152.118 C 139.141 148.695 142.968 144.791 145.159 143.01 C 146.599 141.839 147.033 141.467 148.928 141.125 C 150.728 140.801 153.858 140.745 157.006 140.94 C 156.674 140.103 156.389 139.269 156.161 138.468 C 155.247 135.257 155.37 131.99 155.533 128.418 C 155.712 124.498 155.732 120.038 157.418 115.855 C 159.318 111.138 163.044 105.245 167.154 101.722 C 171.152 98.295 176.686 95.719 181.601 94.812 C 186.325 93.941 191.719 94.73 196.048 96.069 C 200.149 97.337 204.15 99.539 207.041 102.35 C 208.062 103.343 209.151 104.629 210.131 105.989 C 211.508 101.537 214.324 94.84 216.281 91.431 Z M 190.483 324.974 C 185.449 334.072 178.136 346.882 174.222 351.286 C 174.316 351.463 174.482 351.618 174.758 351.737 C 178.625 353.399 209.174 355.094 214.331 347.968 C 219.512 340.808 207.534 321.132 205.537 308.709 C 205.015 305.46 204.497 301.811 204.035 298.141 C 200.169 306.843 194.901 316.991 190.483 324.974 Z M 255.336 210.52 C 253.84 211.997 252.278 213.457 250.685 214.849 C 250.833 214.969 250.966 215.112 251.074 215.28 C 252.104 216.872 252.49 222.239 251.702 225.33 C 250.916 228.415 248.468 232.41 246.363 233.81 C 244.685 234.926 242.894 235.059 240.71 234.438 C 237.639 233.566 230.863 229.262 229.717 226.901 C 229.652 226.766 229.598 226.625 229.556 226.479 C 228.921 226.621 228.301 226.745 227.698 226.852 C 224.666 227.389 222.763 227.654 219.505 226.983 C 219.672 228.287 219.89 229.69 220.548 230.81 C 222.15 233.538 224.909 236.755 228.4 238.661 C 232.455 240.876 241.378 242.736 244.103 242.43 C 245.437 242.281 245.749 241.322 246.302 240.86 C 246.718 240.511 246.773 240.547 247.244 239.918 C 248.357 238.431 251.457 234.616 253.212 230.182 C 255.176 225.217 256.662 213.509 258.116 207.729 C 257.183 208.685 256.252 209.616 255.336 210.52 Z M 240.261 222.455 C 238.821 223.259 237.352 223.945 235.891 224.528 C 236.858 225.715 237.734 227.35 238.825 228.157 C 240.177 229.156 241.95 230.411 243.222 230.041 C 244.601 229.641 245.982 227.23 246.677 225.33 C 247.448 223.223 247.453 219.397 247.305 217.793 C 247.301 217.751 247.296 217.711 247.29 217.671 C 244.921 219.536 242.541 221.182 240.261 222.455 Z M 170.369 187.233 C 170.112 188.075 169.38 188.668 168.864 189.151 C 168.375 189.61 167.893 189.184 167.294 190.093 C 165.721 192.481 160.542 205.702 161.012 209.566 C 161.287 211.825 162.932 212.756 164.467 213.649 C 166.117 214.608 168.963 215.254 170.748 214.905 C 172.361 214.589 173.432 213.559 174.831 212.078 C 176.686 210.117 178.72 204.733 180.609 203.12 C 179.861 202.33 179.148 201.538 178.477 200.749 C 177.194 202.837 175.578 205.038 174.51 205.806 C 173.233 206.725 171.851 206.712 170.741 206.434 C 169.66 206.164 168.517 205.418 167.914 204.236 C 167.129 202.696 166.757 199.532 167.286 197.326 C 167.84 195.021 170.184 191.766 171.369 190.731 C 171.507 190.61 171.639 190.513 171.767 190.435 C 171.26 189.38 170.795 188.314 170.369 187.233 Z M 198.804 218.058 C 198.506 217.866 198.206 217.669 197.902 217.467 C 197.84 217.686 197.788 217.902 197.753 218.114 C 197.406 220.195 196.678 224.487 197.125 225.024 C 197.361 225.307 197.88 224.926 198.382 224.395 C 199.046 223.692 200.067 221.309 201.03 219.428 C 200.273 218.984 199.529 218.527 198.804 218.058 Z M 190.439 212.025 C 189.297 213.885 188.038 215.85 187.563 217.523 C 186.761 220.353 186.189 222.868 186.935 225.689 C 187.813 229.007 191.217 234.631 193.531 236.053 C 195.149 237.048 197.138 236.639 198.556 236.053 C 199.958 235.474 200.816 234.283 202.011 232.598 C 203.6 230.358 205.356 224.518 207.026 222.563 C 206.362 222.253 205.697 221.932 205.033 221.598 C 204.158 224.289 202.787 227.354 201.522 228.478 C 199.783 230.025 196.433 230.132 194.927 229.735 C 193.82 229.443 193.179 228.793 192.728 227.536 C 192.007 225.526 192.22 220.209 192.728 217.486 C 192.922 216.443 193.167 215.325 193.496 214.371 C 192.483 213.62 191.459 212.836 190.439 212.025 Z M 261.932 124.779 C 262.822 125.613 262.433 125.463 263.188 126.663 C 263.78 127.604 264.96 129.203 266.38 131.181 C 266.73 130.328 267.377 129.29 268.002 128.665 C 268.892 127.775 269.75 127.037 271.457 126.781 C 274.154 126.376 281.526 126.268 283.706 128.351 C 285.668 130.227 285.644 135.327 284.962 137.773 C 284.386 139.839 282.805 141.232 280.879 142.484 C 279.471 143.4 277.018 144.421 274.873 145.046 C 275.22 145.85 275.517 146.636 275.751 147.392 C 276.641 150.266 277.184 153.308 277.453 156.406 C 279.81 156.244 284.493 157.676 286.653 157.055 C 288.305 156.58 289.247 155.982 290.107 154.228 C 291.512 151.365 292.038 143.905 291.992 139.153 C 291.948 134.729 291.817 130.515 290.107 126.59 C 288.291 122.421 284.264 116.827 280.999 114.969 C 278.42 113.502 275.68 113.492 272.834 114.341 C 269.356 115.379 264.324 119.958 261.841 122.193 C 261.34 122.644 260.942 123.115 260.599 123.575 C 261.138 124.045 261.589 124.458 261.932 124.779 Z M 172.108 137.97 C 173.856 134.401 175.501 131.515 178.443 128.426 C 178.425 128.414 178.408 128.401 178.391 128.388 C 177.18 127.427 176.399 121.804 176.821 119.28 C 177.181 117.129 178.733 115.161 179.962 113.941 C 180.987 112.923 181.826 112.194 183.417 112.056 C 185.732 111.856 191.275 112.95 193.153 114.569 C 193.66 115.006 194.103 115.645 194.445 116.337 C 196.913 114.814 199.384 113.409 201.648 112.274 C 200.781 110.763 199.904 109.074 198.561 108.003 C 196.277 106.182 192.611 104.833 189.767 104.234 C 187.182 103.691 184.89 103.418 182.229 104.234 C 178.994 105.227 174.574 108.152 171.865 110.83 C 169.325 113.34 167.387 116.088 166.212 119.624 C 164.872 123.654 164.233 130.149 164.955 134.071 C 165.548 137.29 167.382 140.114 169.038 141.923 C 169.344 142.257 169.707 142.531 170.096 142.766 C 170.674 141.118 171.342 139.534 172.108 137.97 Z M 269.47 193.246 C 268.752 194.553 267.957 195.828 267.105 197.073 C 267.311 197.268 267.508 197.478 267.692 197.702 C 268.912 199.188 269.197 203.185 270.519 204.298 C 271.546 205.163 272.526 205.376 274.288 204.926 C 277.514 204.102 286.143 198.836 289.049 195.818 C 291.073 193.715 291.611 192.133 292.19 189.536 C 292.905 186.326 292.975 180.38 292.19 177.602 C 291.637 175.646 290.92 174.351 289.363 173.519 C 287.404 172.472 283.12 172.718 280.569 172.891 C 279.066 172.993 277.673 173.733 276.436 174.054 C 276.338 174.549 276.234 175.045 276.123 175.542 C 277.412 175.392 279.093 175.59 280.297 176.006 C 282.201 176.663 284.638 178.275 285.637 180.089 C 286.648 181.927 286.625 184.904 286.265 186.999 C 285.927 188.962 285.046 191.368 283.752 192.338 C 282.566 193.228 281.039 193.06 279.041 192.966 C 277.005 192.871 272.901 192.505 270.253 191.774 C 269.997 192.272 269.736 192.763 269.47 193.246 Z M 230.211 114.415 C 230.936 114.589 232.078 114.709 233.476 114.815 C 233.181 111.673 233.552 106.907 232.851 106.283 C 232.363 105.848 231.453 106.458 230.966 107.225 C 230.251 108.352 230.746 112.528 230.107 114.39 C 230.141 114.398 230.175 114.406 230.211 114.415 Z M 241.663 115.383 C 242.274 110.688 243.734 103.813 243.291 99.597 C 242.835 95.255 241.682 90.126 239.522 88.605 C 237.734 87.345 234.54 88.315 232.299 89.233 C 229.912 90.21 227.855 91.676 225.703 94.572 C 223.47 97.578 221.164 105.08 219.049 110.045 C 221.1 110.437 223.328 111.371 225.176 112.204 C 225.219 112.014 225.265 111.82 225.313 111.622 C 225.914 109.154 227.895 102.54 230.024 101.258 C 231.677 100.263 234.58 100.623 235.991 102.2 C 237.701 104.109 238.392 111.537 238.499 115.142 C 239.535 115.211 240.601 115.288 241.663 115.383 Z M 209.796 119.44 C 204.312 121.219 192.613 129.188 187.811 133.259 C 184.558 136.017 183.243 137.674 181.53 140.797 C 179.561 144.387 177.941 148.733 177.133 153.988 C 176.141 160.441 175.909 170.705 177.133 177.229 C 178.158 182.694 179.223 186.264 182.786 191.048 C 187.542 197.432 199.215 206.685 206.027 211.148 C 211.165 214.515 215.297 216.769 219.846 217.43 C 224.083 218.045 228.351 217.102 232.409 215.545 C 236.745 213.883 240.671 211.18 244.972 207.38 C 250.245 202.72 257.507 195.129 261.304 188.535 C 264.77 182.515 266.666 175.974 267.585 169.691 C 268.473 163.621 268.512 157.215 266.957 151.475 C 265.391 145.695 261.724 139.542 258.163 135.143 C 254.935 131.156 251.475 127.575 246.931 125.751 C 246.673 125.744 246.403 125.707 246.118 125.665 C 245.568 125.583 244.825 125.357 244.106 125.023 C 239.39 124.338 233.449 125.482 229.269 124.465 C 224.887 123.399 221.431 120.208 217.962 119.44 C 215.025 118.789 213.249 118.319 209.796 119.44 Z M 220.342 147.483 C 223.639 146.647 228.253 147.016 231.02 148.111 C 233.372 149.042 234.715 150.578 236.36 152.822 C 238.465 155.695 241.1 160.762 242.013 164.757 C 242.871 168.511 243.188 172.466 242.013 176.063 C 240.751 179.926 237.072 184.445 234.161 187.056 C 231.657 189.301 228.721 190.75 225.995 191.453 C 223.486 192.099 221.222 192.227 218.458 191.453 C 214.982 190.479 209.543 187.566 206.837 184.857 C 204.499 182.516 203.13 179.344 202.44 176.691 C 201.827 174.333 201.653 172.652 202.44 169.782 C 203.616 165.497 207.818 156.912 211.234 153.136 C 213.961 150.122 217.043 148.32 220.342 147.483 Z M 211.862 171.352 C 211.322 173.552 211.759 175.383 212.687 176.965 C 212.258 175.246 211.976 173.014 211.997 170.891 C 211.943 171.052 211.898 171.206 211.862 171.352 Z M 227.363 157.077 C 226.593 156.781 225.683 156.698 224.835 156.706 C 225.633 156.775 226.501 156.899 227.363 157.077 Z M 166.202 152.432 C 163.591 150.92 154.472 149.845 151.44 150.548 C 149.568 150.982 149.071 152.036 147.986 153.374 C 146.624 155.054 144.962 157.683 144.217 160.284 C 143.416 163.081 142.957 167.135 143.589 169.706 C 144.128 171.901 144.777 173.752 147.043 175.045 C 150.509 177.022 160.787 177.585 165.26 177.558 C 166.073 177.553 166.833 177.44 167.54 177.284 C 167.231 175.572 167.023 173.748 166.896 171.872 C 164.704 172.334 156.676 170.282 154.858 168.358 C 153.494 166.915 153.757 164.716 154.23 162.705 C 154.802 160.273 157.288 156.455 158.941 154.853 C 160.153 153.679 161.126 153.08 162.71 152.969 C 163.793 152.893 165.569 153.201 167.187 153.67 C 166.998 153.18 166.714 152.728 166.202 152.432 Z M 213.688 132.692 C 216.668 132.091 220.385 134.095 221.853 133.948 C 222.576 133.876 222.279 133.318 223.11 133.32 C 225.292 133.326 233.202 135.144 238.185 137.717 C 243.787 140.61 251.614 145.706 254.831 150.594 C 257.577 154.766 258.078 159.055 257.971 164.413 C 257.84 171.018 255.14 181.798 252.318 187.654 C 250.081 192.298 246.749 195.495 243.838 198.018 C 241.386 200.145 239.728 201.311 236.301 202.415 C 231.56 203.943 222.539 205.82 216.828 204.928 C 211.697 204.126 205.777 200.194 203.323 198.332 C 201.94 197.283 202.324 196.691 201.125 195.506 C 199.147 193.551 193.646 190.825 191.389 187.654 C 189.22 184.606 187.757 179.001 187.62 176.976 C 187.551 175.966 188.153 175.651 188.248 175.091 C 188.327 174.625 188.315 174.343 188.248 173.835 C 188.158 173.157 187.576 172.734 187.62 171.322 C 187.714 168.3 189.109 159.625 191.389 154.363 C 193.693 149.042 197.49 143.272 201.439 139.601 C 205.027 136.265 210 133.435 213.688 132.692 Z M 214.002 137.717 C 210.328 138.35 208.439 140.306 205.836 142.742 C 202.737 145.642 199.258 150.497 197.042 154.677 C 194.92 158.68 193.362 163.068 192.645 167.239 C 191.959 171.233 192.029 176.059 192.645 179.174 C 193.118 181.569 194.009 183.44 195.157 184.827 C 196.171 186.052 198.237 186.606 198.926 187.34 C 199.358 187.799 199.081 188.116 199.554 188.596 C 200.396 189.45 203.405 190.568 204.58 191.737 C 205.548 192.701 205.155 193.808 206.464 194.878 C 208.687 196.695 215.163 200.286 219.027 200.531 C 222.417 200.746 225.652 197.73 228.449 197.39 C 230.782 197.107 232.75 198.429 234.73 198.018 C 236.73 197.604 238.423 196.567 240.384 194.878 C 242.972 192.647 246.438 189.258 248.549 184.827 C 251.156 179.356 253.413 168.865 253.574 163.471 C 253.688 159.695 253.73 157.718 251.69 154.677 C 248.753 150.298 240.523 143.671 234.102 140.858 C 227.92 138.149 218.965 136.862 214.002 137.717 Z M 189.07 117.71 C 188.175 116.942 186.464 115.961 185.301 116.453 C 183.781 117.096 181.678 121.054 181.218 123.049 C 181.037 123.834 181.32 124.697 181.588 125.476 C 183.773 123.622 186.677 121.458 189.817 119.332 C 189.65 118.71 189.481 118.062 189.07 117.71 Z M 280.565 135.889 C 281.379 134.451 280.763 131.963 279.623 131.178 C 278.233 130.221 273.289 130.983 271.771 131.806 C 270.745 132.363 270.986 134.024 270.201 134.319 C 269.798 134.47 269.143 134.374 268.497 134.18 C 269.761 136.01 271.076 138.001 272.259 140.006 C 275.124 138.738 279.686 137.44 280.565 135.889 Z M 275.9 187.313 C 277.64 187.43 279.304 188.568 280.297 187.941 C 281.337 187.285 282.521 184.545 281.868 183.23 C 281.212 181.912 277.016 181.258 274.87 180.302 C 274.184 182.571 273.379 184.813 272.476 186.979 C 273.749 187.091 275.019 187.254 275.9 187.313 Z M 166.165 158.308 C 165.497 157.961 165.317 157.261 164.594 157.366 C 163.379 157.542 160.191 159.969 159.255 161.449 C 158.509 162.629 157.894 164.125 158.627 165.218 C 159.483 166.493 164.322 167.212 166.747 168.164 C 166.7 165.012 166.84 161.822 167.082 158.853 C 166.736 158.639 166.418 158.44 166.165 158.308 Z M 171.683 201.095 C 171.79 201.35 172.472 200.973 172.939 200.467 C 173.539 199.818 174.164 197.573 174.927 196.008 C 174.715 195.686 174.508 195.363 174.305 195.039 C 173.473 197.078 171.495 200.65 171.683 201.095 Z" style="fill: rgb(255, 255, 255); fill-opacity: 1; fill-rule: nonzero; stroke: none; stroke-dasharray: none; stroke-dashoffset: 0px; stroke-linecap: butt; stroke-linejoin: miter; stroke-miterlimit: 4; stroke-opacity: 1; stroke-width: 1px; paint-order: normal; vector-effect: none; opacity: 1; mix-blend-mode: normal; isolation: auto;"/>
</svg>