<?xml version="1.0" encoding="utf-8"?>
<svg viewBox="0 0 500 500" xmlns="http://www.w3.org/2000/svg">
  <path d="M 64.066 62.277 L 378.891 62.277 L 378.891 371.664 L 64.066 371.664 Z" style="fill: rgb(196, 193, 193);"/>
  <path fill="rgb(255,0,0)" stroke="rgb(255,0,0)" stroke-width="0" opacity="0.9647058823529412" d="M 158.19 164.298 C 158.398 170.155 156.818 176.563 157.562 181.886 C 158.238 186.73 159.953 191.444 161.959 195.077 C 163.734 198.293 164.832 200.477 168.554 202.928 C 174.228 206.664 189.355 209.006 196.193 212.979 C 201.179 215.876 203.911 218.228 207.185 222.507 C 206.071 219.391 204.849 215.881 203.231 214.06 C 200.728 211.242 195.764 210.887 194.123 208.72 C 192.805 206.981 194.071 203.538 192.867 202.753 C 191.663 201.968 188.323 204.255 186.899 204.009 C 185.871 203.832 185.323 203.484 184.701 202.439 C 183.652 200.677 183.542 193.018 182.502 192.703 C 181.658 192.447 180.846 197.23 179.362 197.728 C 177.835 198.24 174.502 197.142 173.394 195.529 C 172.115 193.667 174.081 187.435 173.08 186.421 C 172.421 185.754 170.985 187.255 169.939 187.05 C 168.786 186.822 167.096 186.481 166.485 184.851 C 165.395 181.945 169.74 169.918 168.369 167.577 C 167.575 166.22 164.835 168.259 163.972 166.949 C 162.553 164.795 165.231 154.247 164.6 151.56 C 164.286 150.22 163.461 149.345 163.03 149.361 C 162.64 149.376 162.757 150.967 162.088 151.245 C 161.264 151.588 158.955 151.619 157.614 150.771 C 158.25 154.765 158.042 160.148 158.19 164.298 Z M 211.751 229.293 C 211.742 229.26 211.734 229.228 211.725 229.195 C 211.713 229.193 211.701 229.19 211.689 229.188 C 211.71 229.223 211.73 229.258 211.751 229.293 Z M 186.6 182.432 C 184.667 177.976 184.566 177.328 184.087 173.638 C 183.448 168.71 183.985 161.136 184.087 154.793 C 184.191 148.366 185.861 142.096 184.715 135.321 C 183.446 127.818 178.777 115.38 175.921 111.766 C 174.435 109.884 171.981 110.804 171.524 109.567 C 171.34 109.07 171.373 108.232 171.564 107.335 C 170.817 106.968 170.168 106.78 169.728 106.949 C 168.206 107.536 167.033 111.69 167.53 113.231 C 167.982 114.629 170.979 114.641 171.927 116.057 C 172.955 117.593 173.253 121.002 173.183 122.339 C 173.142 123.123 172.852 123.403 172.555 123.909 C 172.237 124.452 171.151 124.785 171.299 125.479 C 171.549 126.66 175.601 128.328 176.952 130.505 C 178.41 132.853 179.572 136.669 179.465 139.299 C 179.37 141.629 177.043 143.072 176.952 145.58 C 176.839 148.706 180.27 153.344 180.093 156.886 C 179.926 160.229 176.469 163.026 176.324 166.309 C 176.174 169.715 179.283 174.57 179.465 176.987 C 179.575 178.456 178.316 179.097 178.837 180.128 C 179.594 181.628 183.677 182.237 185.746 184.525 C 188.303 187.352 189.925 193.998 192.342 196.773 C 192.898 197.411 193.621 197.907 194.372 198.326 C 194.394 198.335 194.416 198.345 194.437 198.356 C 194.503 198.389 194.568 198.426 194.631 198.467 C 195.498 198.928 196.38 199.298 197.067 199.677 C 192.543 192.595 188.368 186.507 186.6 182.432 Z M 173.723 103.6 C 173.848 103.549 173.986 103.508 174.134 103.475 C 174.794 99.981 176.109 95.481 176.896 94.357 C 177.4 93.637 177.639 93.73 178.466 93.729 C 180.017 93.727 184.726 94.1 186.318 95.927 C 188.035 97.899 186.033 104.368 187.888 105.664 C 189.724 106.945 195.134 102.931 197.31 103.779 C 199.155 104.498 200.152 106.967 200.765 109.118 C 201.463 111.568 201.033 115.362 200.765 117.912 C 200.538 120.07 199.052 121.828 199.509 123.566 C 199.993 125.405 203.197 126.74 203.906 128.591 C 204.569 130.322 204.195 132.032 203.906 134.244 C 203.537 137.062 201.272 141.023 201.393 144.294 C 201.513 147.511 204.547 150.61 204.534 153.716 C 204.521 156.786 200.693 161.291 201.393 162.824 C 201.909 163.955 204.954 162.872 205.79 163.767 C 206.622 164.657 206.595 166.466 206.418 168.164 C 206.195 170.306 203.196 174.083 203.906 175.701 C 204.543 177.154 208.692 176.306 209.559 177.9 C 210.597 179.807 207.28 185.719 208.303 187.322 C 208.972 188.372 211.458 187.365 212.744 187.82 C 214.113 185.693 215.901 183.976 216.834 181.355 C 218.406 176.938 217.931 168.656 219.661 165.965 C 220.724 164.311 223.368 165.259 223.744 163.767 C 224.31 161.516 219.491 155.511 218.719 151.832 C 218.057 148.681 218.202 144.888 218.719 143.038 C 219.041 141.884 219.568 141.26 220.289 140.839 C 221.025 140.41 222.741 141.348 223.116 140.525 C 223.761 139.105 219.897 132.528 219.975 129.847 C 220.031 127.934 221.877 127.318 221.859 125.45 C 221.835 122.869 218.091 118.246 218.09 115.4 C 218.09 113.074 221.035 110.92 220.603 109.432 C 220.207 108.067 216.939 108.191 216.206 106.606 C 215.302 104.652 216.041 99.937 216.834 97.812 C 217.438 96.193 218.554 95.087 219.661 94.357 C 220.674 93.689 222.02 94.422 223.116 93.415 C 224.821 91.848 226.688 85.002 227.827 83.679 C 228.33 83.094 228.423 83.184 229.083 83.051 C 230.234 82.818 233.281 82.472 234.736 83.051 C 235.28 83.267 235.796 83.571 236.243 83.954 C 237.064 83.058 237.855 82.307 238.377 81.912 C 239.137 81.337 239.387 81.283 240.262 81.284 C 241.639 81.286 244.97 81.265 246.229 82.854 C 247.838 84.884 248.073 90.982 247.485 94.161 C 246.978 96.904 243.687 98.543 243.717 101.07 C 243.75 103.925 248.563 107.533 248.742 110.492 C 248.902 113.151 245.68 115.329 245.601 118.03 C 245.516 120.951 248.776 124.986 248.742 127.452 C 248.716 129.294 246.623 130.32 246.857 131.849 C 247.132 133.646 250.556 135.52 251.254 137.502 C 251.889 139.306 251.533 140.904 251.254 143.156 C 250.891 146.091 248.934 150.326 248.742 153.834 C 248.555 157.232 250.342 160.698 249.998 163.884 C 249.665 166.969 247.278 169.65 246.857 172.678 C 246.435 175.721 248.044 180.004 247.485 182.1 C 247.106 183.523 246.089 184.295 245.287 184.927 C 244.604 185.465 243.718 184.938 243.088 185.869 C 241.856 187.692 241.897 194.972 240.576 198.432 C 240.047 199.817 239.311 201.232 238.552 202.469 C 240.1 202.855 241.977 204.033 242.944 203.168 C 244.753 201.548 243.281 192.436 244.828 190.605 C 245.815 189.436 247.644 189.757 248.911 189.977 C 250.153 190.192 251.731 192.317 252.366 191.861 C 253.147 191.301 251.749 187.397 252.366 185.266 C 253.024 182.991 254.579 179.734 256.449 178.67 C 258.201 177.673 262.086 179.512 263.044 178.67 C 263.784 178.02 263.288 176.808 263.044 175.215 C 262.646 172.619 259.808 166.48 259.903 163.909 C 259.964 162.272 260.849 161.187 261.474 160.454 C 261.941 159.906 262.917 160.276 263.044 159.512 C 263.309 157.916 258.492 151.13 258.647 148.834 C 258.745 147.396 259.986 146.747 260.846 146.007 C 261.671 145.297 263.509 145.097 263.672 144.437 C 263.824 143.822 262.933 143.006 262.102 142.238 C 260.932 141.156 257.51 140.612 256.763 138.783 C 255.894 136.66 256.953 131.226 258.333 129.675 C 259.396 128.481 262.589 129.837 263.044 128.733 C 263.629 127.315 259.225 122.628 259.275 120.567 C 259.312 119.063 260.277 117.58 261.474 117.112 C 262.905 116.553 266.541 119.25 267.755 118.369 C 269.011 117.457 267.206 112.411 268.697 111.459 C 270.44 110.347 276.444 111.252 278.748 113.658 C 280.182 115.155 281.372 118.983 282.068 122.538 C 282.657 121.251 283.569 119.811 284.333 118.948 C 285.63 117.481 287.742 116.101 289.358 115.807 C 290.764 115.551 292.51 115.525 293.441 116.749 C 294.858 118.615 295.503 125.622 294.697 128.684 C 294.042 131.175 290.142 132.932 290.3 134.337 C 290.431 135.507 293.297 135.452 294.069 136.85 C 295.032 138.594 295.742 143.351 294.697 144.702 C 293.779 145.887 289.521 144.394 289.044 145.33 C 288.564 146.27 290.726 149.126 291.87 150.355 C 292.868 151.427 294.648 151.537 295.325 152.553 C 295.984 153.542 296.177 155.287 295.953 156.322 C 295.758 157.223 295.057 157.825 294.383 158.521 C 293.629 159.3 292.147 159.628 291.556 160.719 C 290.861 162.003 290.426 164.902 290.928 166.058 C 291.324 166.969 293.218 166.962 293.441 167.629 C 293.645 168.241 293.022 169.304 292.498 169.827 C 291.975 170.351 290.775 170.165 290.3 170.769 C 289.766 171.449 289.517 172.553 289.672 173.91 C 289.904 175.939 292.483 180.595 292.813 182.076 C 292.964 182.757 293.011 182.779 292.813 183.332 C 292.468 184.29 290.619 185.686 289.986 187.415 C 289.223 189.498 289.613 193.397 289.044 195.267 C 288.645 196.574 288.287 197.515 287.473 198.093 C 286.632 198.691 284.83 197.668 284.019 198.722 C 282.691 200.444 284.521 208.519 282.762 210.656 C 281.338 212.388 277.437 210.401 275.853 212.227 C 273.751 214.648 275.6 224.789 273.34 226.36 C 271.479 227.654 267.021 222.531 264.86 223.847 C 262.089 225.536 262.014 237.382 259.835 239.551 C 258.546 240.834 257.113 240.485 255.438 240.179 C 253.274 239.783 250.762 235.364 247.9 236.41 C 244.057 237.815 237.399 251.335 233.278 257.476 C 232.676 267.338 234.344 286.832 233.78 294.768 C 234.173 296.867 234.584 299.501 234.982 302.494 C 235.282 302.658 235.479 302.873 235.554 303.118 C 235.656 303.454 235.551 303.99 235.246 304.547 C 235.442 306.122 235.633 307.777 235.815 309.491 C 236.504 309.653 237.016 309.975 237.156 310.347 C 237.348 310.855 236.851 311.763 236.129 312.599 C 236.355 314.951 236.561 317.382 236.738 319.839 C 237.537 319.842 238.004 320.044 238.265 320.502 C 238.667 321.208 238.809 323.253 237.637 324.271 C 237.485 324.403 237.286 324.537 237.046 324.67 C 237.79 338.182 237.492 351.472 234.658 356.031 C 230.77 362.286 217.931 362.562 214.872 360.743 C 212.589 359.385 213.834 356.077 213.929 351.006 C 214.112 341.326 218.793 314.367 218.954 302.011 C 218.959 301.662 218.959 301.314 218.954 300.966 C 218.8 300.795 218.645 300.574 218.492 300.29 C 216.706 296.989 215.327 281.509 213.825 267.677 C 212.077 265.433 209.989 259.652 207.8 257.811 C 205.768 256.102 202.512 256.872 201.204 255.298 C 199.899 253.728 201.366 249.284 199.948 248.389 C 198.448 247.443 193.766 251.171 192.096 250.273 C 190.523 249.428 190.191 246.099 189.898 243.678 C 189.575 241.016 190.8 237.283 190.526 234.884 C 190.308 232.977 189.733 230.192 188.955 230.173 C 188.047 230.15 187.106 235.699 185.187 236.454 C 183.125 237.266 178.478 235.927 176.707 234.256 C 175.037 232.681 176.42 227.989 174.508 227.032 C 172.136 225.845 164.498 230.548 161.945 230.173 C 160.419 229.949 159.736 229.259 159.119 227.974 C 158.222 226.106 159.963 220.079 158.491 218.866 C 157.142 217.755 152.888 220.422 151.267 220.123 C 150.18 219.922 149.977 219.034 149.069 218.552 C 147.966 217.968 146.014 218.01 144.986 216.982 C 143.837 215.833 142.982 213.591 142.787 211.643 C 142.577 209.536 144.828 206.191 144.043 204.733 C 143.339 203.424 139.8 204.42 139.018 202.849 C 137.937 200.675 141.921 192.984 140.903 190.914 C 140.207 189.499 137.294 190.125 136.506 189.344 C 135.914 188.756 135.759 188.143 135.878 187.145 C 136.069 185.533 139.078 181.819 139.018 180.236 C 138.979 179.188 138.097 178.564 137.448 178.037 C 136.829 177.536 135.529 177.856 135.249 177.095 C 134.824 175.935 136.189 171.843 137.134 170.499 C 137.809 169.539 139.307 169.958 139.646 168.929 C 140.162 167.369 137.474 162.807 137.762 160.763 C 137.978 159.229 138.988 158.095 139.96 157.309 C 140.892 156.555 143.162 156.729 143.415 156.052 C 143.648 155.432 142.316 154.143 141.845 153.54 C 141.503 153.102 141.146 153.137 140.903 152.597 C 140.509 151.724 140.017 149.773 140.275 148.2 C 140.576 146.358 141.458 142.947 143.101 142.233 C 144.245 141.736 146.54 142.19 148.429 142.956 C 149.447 140.432 152.495 136.616 153.608 135.542 C 154.157 135.012 154.29 134.978 154.864 134.914 C 155.692 134.821 157.46 134.553 158.319 135.542 C 159.636 137.059 159.119 144.651 160.203 145.592 C 160.799 146.109 161.543 144.846 162.402 144.964 C 163.541 145.121 165.5 145.578 166.485 147.163 C 167.987 149.579 168.362 157.491 168.369 160.354 C 168.373 162.033 167.257 163.073 167.741 163.808 C 168.245 164.574 170.808 163.397 171.51 164.751 C 172.824 167.284 167.831 180.797 169.625 183.281 C 170.68 184.74 174.214 182.62 175.921 182.96 C 175.843 182.86 175.767 182.754 175.696 182.64 C 173.309 178.838 172.584 167.267 173.183 161.912 C 173.633 157.899 177.171 155.129 176.952 152.489 C 176.766 150.241 173.788 148.795 173.183 146.836 C 172.621 145.016 172.674 142.948 173.183 141.183 C 173.702 139.384 176.418 137.841 176.324 136.158 C 176.225 134.387 173.695 132.219 172.241 130.819 C 170.953 129.578 168.935 129.236 168.158 127.992 C 167.415 126.802 167.336 125.04 167.53 123.595 C 167.73 122.107 169.793 120.503 169.414 119.198 C 168.992 117.742 165.297 116.914 164.389 115.429 C 163.599 114.137 163.477 112.691 163.761 111.032 C 164.121 108.933 165.522 104.929 167.216 103.809 C 168.69 102.834 170.96 103.247 172.869 103.809 C 172.983 103.842 173.101 103.88 173.224 103.921 C 173.384 103.779 173.551 103.67 173.723 103.6 Z M 228.691 300.184 C 227.94 300.047 226.961 300.035 226.152 299.332 C 225.713 300.19 225.09 300.476 224.459 300.918 C 224.005 301.236 223.439 301.424 222.858 301.514 C 222.879 302.624 222.894 303.739 222.901 304.848 C 225.098 303.985 228.023 303.155 230.308 302.655 C 230.243 301.753 230.183 300.884 230.13 300.053 C 229.668 300.206 229.185 300.274 228.691 300.184 Z M 217.07 356.346 C 219.373 359.314 227.952 358.466 230.889 353.833 C 231.706 352.544 232.21 350.296 232.485 347.392 C 232.261 347.702 231.984 347.984 231.647 348.207 C 229.393 349.695 220.055 351.143 216.29 350.935 C 216.103 353.435 216.29 355.341 217.07 356.346 Z M 232.737 338.467 C 229.551 339.621 221.823 340.595 219.813 339.953 C 219.232 339.767 218.722 339.395 218.415 338.98 C 217.744 341.958 217.142 344.796 216.739 347.305 C 221.047 345.713 229.625 343.851 231.647 343.81 C 232.116 343.8 232.456 343.83 232.7 343.914 C 232.759 342.224 232.768 340.395 232.737 338.467 Z M 232.182 326.33 C 228.538 327.219 224.271 327.782 222.875 327.412 C 222.123 327.212 221.504 326.688 221.275 326.131 C 220.544 329.785 219.639 333.618 218.798 337.295 C 221.172 335.861 229.71 333.685 232.591 333.657 C 232.49 331.284 232.348 328.822 232.182 326.33 Z M 231.405 316.115 C 230.262 316.749 229.078 317.286 228.048 317.57 C 226.483 318.002 224.168 318.226 222.556 318.089 C 222.342 320.221 221.966 322.551 221.501 324.978 C 222.696 323.845 227.829 322.008 231.786 320.87 C 231.663 319.274 231.534 317.684 231.405 316.115 Z M 230.688 307.514 C 228.213 308.472 225.045 309.417 222.888 309.724 C 222.867 311.371 222.83 312.967 222.777 314.472 C 222.852 314.466 222.933 314.453 223.023 314.429 C 224.269 314.102 227.959 311.993 230.945 310.61 C 230.857 309.557 230.771 308.523 230.688 307.514 Z M 237.333 90.345 C 237.343 90.367 237.353 90.389 237.362 90.412 C 238.731 93.691 233.367 102.762 233.593 110.513 C 233.872 120.026 239.958 133.652 241.131 143.804 C 242.158 152.695 243.096 160.136 241.131 168.302 C 239.014 177.096 230.079 186.587 227.94 194.683 C 226.152 201.453 227.197 204.081 227.312 213.528 C 227.361 217.577 227.698 223.846 228.16 231.164 C 228.612 230.187 229.127 229.095 229.662 227.952 C 229.248 227.832 228.862 227.503 228.641 227.013 C 227.581 224.658 228.643 211.806 230.526 206.598 C 232.029 202.439 235.648 200.969 237.435 197.176 C 239.457 192.882 239.839 183.929 241.518 181.786 C 242.377 180.691 243.778 181.908 244.345 180.844 C 245.372 178.914 243.217 171.669 243.717 167.653 C 244.172 163.985 246.742 160.681 246.857 157.603 C 246.96 154.877 244.905 152.891 244.973 150.065 C 245.052 146.732 248.358 141.147 248.114 138.759 C 247.965 137.304 246.93 136.567 246.229 135.932 C 245.65 135.408 244.777 135.687 244.345 134.99 C 243.702 133.953 243.615 131.214 243.717 129.337 C 243.819 127.445 245.033 125.908 244.973 123.683 C 244.897 120.876 242.268 116.413 242.46 113.633 C 242.616 111.371 245.248 109.736 244.973 107.98 C 244.69 106.169 241.284 104.805 240.576 102.955 C 239.913 101.224 240.12 99.405 240.576 97.301 C 241.138 94.705 244.28 90.691 244.345 88.507 C 244.39 86.999 243.701 85.362 242.774 85.053 C 241.723 84.702 239.281 85.912 238.063 87.251 C 237.931 87.397 237.808 87.572 237.693 87.771 C 237.635 88.595 237.485 89.507 237.333 90.345 Z M 234.15 216.673 C 234.68 213.696 233.101 212.052 233.522 209.763 C 233.707 208.754 234.038 207.507 234.486 206.324 C 234.422 206.397 234.358 206.486 234.294 206.598 C 233.277 208.377 232.78 217.049 232.032 222.73 C 233.054 220.353 233.886 218.153 234.15 216.673 Z M 218.277 203.754 C 218.408 200.221 218.684 197.132 219.146 194.683 C 221.504 182.196 230.143 176.803 232.337 168.302 C 234.288 160.742 233.814 154.214 232.965 146.317 C 232.008 137.409 227.219 125.533 226.056 117.422 C 225.14 111.036 224.664 105.943 225.427 101.091 C 226.112 96.742 228.412 91.328 229.824 89.47 C 230.572 88.487 231.061 88.237 232.023 88.214 C 232.321 88.206 232.709 88.214 233.143 88.251 C 233.208 88.101 233.284 87.947 233.369 87.788 C 233.299 87.006 233.152 86.411 232.852 86.191 C 231.977 85.549 229.963 86.512 228.769 87.762 C 227.07 89.538 226.407 95.903 224.686 97.498 C 223.497 98.6 221.433 97.405 220.603 98.44 C 219.57 99.729 219.221 104.087 219.975 105.664 C 220.59 106.95 223.01 106.769 223.744 107.862 C 224.483 108.963 224.603 110.707 224.372 112.259 C 224.108 114.031 221.944 115.66 221.859 117.912 C 221.754 120.699 224.785 124.959 225 127.963 C 225.183 130.517 223.543 132.368 223.744 134.872 C 223.974 137.748 227.506 142.756 226.884 144.294 C 226.471 145.317 224.326 145.265 223.43 145.236 C 222.766 145.215 222.084 144.091 221.859 144.608 C 221.237 146.041 227.079 162.349 226.884 165.651 C 226.802 167.051 226.353 167.191 225.628 167.85 C 224.683 168.708 222.335 168.327 221.231 170.048 C 219.453 172.821 220.097 183.584 218.719 186.066 C 218.02 187.323 216.869 186.445 216.206 187.636 C 214.996 189.81 214.268 196.707 214.322 200.827 C 214.327 201.186 214.352 201.556 214.395 201.932 C 215.669 202.385 217.166 202.722 218.277 203.754 Z M 182.831 107.055 C 186.939 111.518 191.071 122.769 192.881 132.808 C 195.01 144.615 189.595 161.873 192.881 174.266 C 195.541 184.294 203.52 193.223 208.709 201.476 C 208.71 198.446 211.248 192.869 210.187 191.091 C 209.253 189.524 205.401 190.96 204.534 189.52 C 203.496 187.797 206.738 182.271 205.79 180.412 C 205.019 178.901 201.548 179.875 200.765 178.214 C 199.68 175.913 203.768 168.091 202.649 165.965 C 201.855 164.455 198.305 165.971 197.624 164.395 C 196.591 162.003 201.898 153.023 201.393 149.947 C 201.069 147.977 198.812 147.785 198.252 146.179 C 197.611 144.336 197.913 141.774 198.252 139.269 C 198.642 136.394 201.386 132.108 200.765 129.847 C 200.261 128.011 197.209 128.312 196.368 126.078 C 195.057 122.594 198.43 111.207 196.996 108.49 C 196.175 106.934 193.736 106.662 192.913 106.92 C 192.299 107.112 192.732 108.459 191.971 108.804 C 190.702 109.38 186.16 109.738 184.433 108.176 C 182.381 106.319 182.835 97.79 181.607 96.87 C 180.955 96.381 180.023 96.916 179.408 97.812 C 178.784 98.721 178.509 101.477 178.21 104.032 C 179.841 104.636 181.544 105.656 182.831 107.055 Z M 218.527 222.167 C 218.461 220.771 218.404 219.389 218.355 218.029 C 217.68 215.391 216.992 212.51 216.248 210.105 C 216.319 210.667 216.318 211.144 216.206 211.505 C 215.975 212.251 215.36 212.717 214.761 212.934 C 216.175 215.816 217.389 218.583 218.527 222.167 Z M 210.033 203.68 C 210.28 204.115 210.517 204.547 210.742 204.978 C 210.715 204.616 210.69 204.248 210.667 203.875 C 210.445 203.82 210.231 203.758 210.033 203.68 Z M 176.535 193.645 C 176.824 194.271 177.36 194.517 177.791 194.273 C 178.586 193.824 179.301 189.288 180.304 188.306 C 180.965 187.658 181.729 187.578 182.502 187.678 C 182.912 187.731 183.389 187.82 183.857 188.015 C 183.475 187.257 183.059 186.592 182.605 186.095 C 181.139 184.49 178.594 184.886 176.821 183.768 C 177.679 186.012 175.943 192.364 176.535 193.645 Z M 187.213 200.24 C 187.772 200.636 188.614 200.374 189.555 199.924 C 189.013 199.42 188.561 198.974 188.259 198.658 C 187.429 197.789 187.559 197.607 187.002 196.459 C 186.694 195.825 186.363 194.832 185.991 193.692 C 186.096 196.442 186.139 199.478 187.213 200.24 Z M 199.462 208.406 C 200.626 209.678 202.233 210.19 203.81 210.834 C 202.041 207.665 200.162 204.575 198.309 201.634 C 198.176 202.328 197.75 203.127 197.221 203.672 C 197.823 205.488 198.468 207.32 199.462 208.406 Z M 210.954 247.841 C 209.209 241.006 207.935 238.232 205.301 234.021 C 202.621 229.739 200.029 225.778 194.936 222.401 C 188.297 217.998 172.842 215.009 166.67 211.722 C 162.726 209.622 161.276 208.765 158.818 205.755 C 155.616 201.834 151.744 196.036 150.024 188.795 C 147.813 179.485 150.458 160.179 149.396 152.991 C 149.272 152.152 149.089 151.398 148.876 150.714 C 148.44 150.548 148.055 150.335 147.812 150.085 C 147.203 149.458 147.385 147.722 147.208 146.707 C 147.124 146.502 147.053 146.308 146.999 146.122 C 146.962 146.072 146.919 146.032 146.87 146.002 C 146.239 145.616 144.419 146.223 144.043 146.944 C 143.613 147.771 144.629 149.399 144.986 151.027 C 145.44 153.104 147.35 157.01 146.556 158.565 C 145.868 159.911 142.236 159.016 141.531 160.449 C 140.653 162.235 144.014 167.12 143.415 169.557 C 142.891 171.692 139.299 172.507 139.018 174.582 C 138.694 176.979 142.961 181.295 142.787 183.376 C 142.664 184.848 140.119 185.591 140.275 186.517 C 140.438 187.488 143.281 187.687 144.043 189.03 C 144.948 190.622 145.062 193.93 144.672 195.939 C 144.32 197.748 141.744 199.777 142.159 200.65 C 142.544 201.461 145.666 200.24 146.556 201.278 C 147.675 202.584 147.231 206.895 147.184 209.13 C 147.146 210.956 146.001 213.31 146.556 213.841 C 147.035 214.299 148.684 213.219 149.697 212.899 C 150.671 212.591 151.894 211.604 152.523 211.957 C 153.2 212.336 153.457 214.652 153.466 215.412 C 153.47 215.866 152.903 216.205 153.151 216.354 C 153.676 216.668 157.959 214.838 159.433 215.097 C 160.476 215.281 161.126 215.613 161.631 216.668 C 162.476 218.43 160.329 225.09 162.259 226.404 C 164.481 227.916 173.297 222.959 175.765 223.263 C 177.047 223.422 177.311 223.836 177.963 224.834 C 179.01 226.436 179.208 232.456 180.476 233.314 C 181.328 233.89 182.649 233.273 183.616 232.371 C 185.046 231.038 185.759 225.425 187.385 224.52 C 188.633 223.825 190.709 223.921 191.782 225.462 C 193.797 228.356 191.114 244.949 193.667 247.133 C 195.398 248.614 199.966 244.653 201.518 244.62 C 202.342 244.603 202.613 244.619 203.089 245.248 C 203.994 246.447 203.71 251.636 205.287 253.414 C 206.755 255.068 210 254.12 211.883 255.927 C 212.082 256.118 212.29 256.346 212.504 256.604 C 212.017 253.048 211.505 250 210.954 247.841 Z M 283.653 128.388 C 283.509 130.58 280.483 134.338 279.884 137.182 C 279.341 139.767 279.677 141.268 279.884 144.719 C 280.21 150.146 282.572 160.627 282.397 167.96 C 282.234 174.812 281.688 180.806 279.256 187.433 C 276.515 194.903 271.663 203.895 265.751 210.36 C 259.764 216.906 248.225 220.961 243.452 226.378 C 239.802 230.52 238.815 234.272 237.171 238.94 C 236.212 241.662 235.411 244.225 234.759 247.147 C 238.132 241.289 242.278 234.607 245.388 233.269 C 249.158 231.647 255.213 237.091 256.694 236.41 C 257.535 236.024 256.588 234.999 257.008 233.583 C 257.82 230.848 260.5 221.505 262.976 220.078 C 264.723 219.072 267.869 220.923 268.943 221.649 C 269.604 222.095 269.622 223.415 269.885 223.219 C 270.373 222.856 269.979 217.369 270.828 214.739 C 271.666 212.139 273.257 208.419 274.91 207.516 C 276.199 206.812 278.232 209.105 279.307 208.144 C 280.948 206.678 279.968 197.389 281.506 195.581 C 282.455 194.464 284.469 195.997 285.275 194.953 C 286.462 193.415 284.857 186.711 285.903 184.903 C 286.59 183.716 288.554 184.63 289.044 183.332 C 289.896 181.073 286.272 174.063 286.531 169.513 C 286.791 164.955 289.375 157.881 290.614 156.008 C 291.161 155.181 292.129 155.403 292.184 155.066 C 292.233 154.769 291.754 154.553 291.242 154.124 C 290.317 153.348 287.536 152.343 286.531 150.669 C 285.412 148.805 284.671 144.606 285.275 143.131 C 285.703 142.086 287.075 141.727 288.101 141.561 C 289.163 141.389 291.07 142.68 291.556 142.189 C 292.059 141.682 291.638 139.308 290.928 138.42 C 290.199 137.508 287.65 138.28 287.159 136.85 C 286.306 134.361 291.504 123.575 291.556 121.146 C 291.577 120.165 291.449 119.63 290.928 119.576 C 290.01 119.48 286.31 122.441 285.275 123.659 C 284.6 124.453 284.909 125.612 284.333 125.857 C 284.091 125.96 283.657 125.962 283.199 125.88 C 283.564 126.561 283.717 127.425 283.653 128.388 Z M 242.51 214.757 C 247.975 209.452 257.911 206.438 262.925 200.624 C 267.669 195.121 270.538 188.318 272.347 181.151 C 274.268 173.539 273.746 163.995 273.603 156.026 C 273.469 148.55 270.721 140.268 271.718 134.669 C 272.5 130.281 274.905 125.602 277.058 124.305 C 277.22 124.207 277.394 124.127 277.576 124.064 C 276.63 120.508 275.748 116.199 274.665 115.228 C 273.764 114.42 272.369 114.625 271.838 115.228 C 271.154 116.005 272.77 119.41 271.838 120.567 C 270.832 121.817 266.673 122.534 265.557 122.138 C 264.844 121.884 264.987 120.231 264.615 120.253 C 264.173 120.279 263.075 121.782 263.044 123.08 C 262.998 125.013 266.922 129.528 266.185 131.246 C 265.524 132.785 260.553 132.199 259.903 133.444 C 259.339 134.524 260.48 136.51 261.474 137.841 C 262.624 139.382 266.276 140.162 266.813 141.924 C 267.357 143.71 265.598 147.462 264.615 148.519 C 263.984 149.197 262.662 148.33 262.416 149.148 C 261.923 150.786 266.692 159.324 266.813 161.396 C 266.866 162.313 266.615 162.562 266.185 162.967 C 265.667 163.453 264.066 162.856 263.672 163.909 C 262.867 166.06 268.425 176.276 266.813 179.612 C 265.427 182.48 258.807 181.465 256.763 184.009 C 254.701 186.576 256.205 193.292 254.564 195.002 C 253.37 196.246 250.802 195.917 249.539 195.63 C 248.557 195.407 247.892 193.685 247.341 194.06 C 246.453 194.663 246.088 200.606 246.084 202.854 C 246.082 204.458 247.287 205.829 246.713 206.622 C 246.083 207.492 243.404 207.768 242.001 207.565 C 240.707 207.377 239.405 205.155 238.547 205.68 C 237.336 206.421 236.82 212.071 236.662 214.788 C 236.542 216.858 237.576 218.109 237.411 220.233 C 238.948 218.362 240.639 216.573 242.51 214.757 Z M 155.492 139.311 C 154.98 139.244 154.168 141.816 153.342 144.398 C 154.447 144.894 155.495 145.579 156.17 146.51 C 155.935 143.311 156.115 139.393 155.492 139.311 Z" style="fill: rgb(255, 255, 255); fill-opacity: 1; fill-rule: nonzero; stroke: none; stroke-dasharray: none; stroke-dashoffset: 0px; stroke-linecap: butt; stroke-linejoin: miter; stroke-miterlimit: 4; stroke-opacity: 1; stroke-width: 1px; paint-order: normal; vector-effect: none; opacity: 1; mix-blend-mode: normal; isolation: auto;"/>
</svg>