<?xml version="1.0" encoding="utf-8"?>
<svg viewBox="0 0 500 500" xmlns="http://www.w3.org/2000/svg">
  <path d="M 64.066 62.277 L 378.891 62.277 L 378.891 371.664 L 64.066 371.664 Z" style="fill: rgb(196, 193, 193);"/>
  <path fill="rgb(255,0,0)" stroke="rgb(255,0,0)" stroke-width="0" opacity="0.9294117647058824" d="M 151.372 109.266 C 152.067 108.972 153.464 109.014 155.141 110.209 C 158.695 112.741 168.526 122.813 171.473 129.681 C 174.126 135.866 173.805 144.059 173.357 149.153 C 173.255 150.318 173.116 151.501 172.924 152.62 C 173.105 152.46 173.271 152.283 173.416 152.085 C 175.332 149.484 174.908 142.337 176.557 138.894 C 177.923 136.04 180.081 133.713 181.896 132.299 C 183.339 131.175 184.913 130.583 186.293 130.415 C 187.512 130.265 188.857 129.787 189.748 131.043 C 191.564 133.603 190.219 151.391 191.946 151.771 C 193.575 152.13 196.188 138.097 199.484 135.44 C 201.969 133.436 206.217 133.226 208.278 134.183 C 210.14 135.049 211.063 137.418 211.733 140.151 C 212.663 143.949 213.222 151.242 211.733 155.854 C 210.294 160.308 205.715 165.797 203.253 167.475 C 201.758 168.493 199.931 168.587 199.17 168.103 C 198.509 167.683 198.136 166.275 198.542 165.276 C 199.13 163.826 202.718 162.385 204.195 160.565 C 205.621 158.808 206.742 157.182 207.336 154.598 C 208.111 151.218 207.921 144.056 207.336 141.407 C 207.002 139.897 206.688 138.881 205.765 138.58 C 204.611 138.204 201.956 138.718 200.426 140.465 C 198.04 143.189 197.198 154.622 195.087 156.796 C 193.93 157.988 192.446 157.613 191.318 157.425 C 190.263 157.249 189.242 157.258 188.491 155.854 C 186.919 152.913 188.134 136.693 186.293 135.44 C 185.15 134.661 183.13 137.188 181.582 139.523 C 179.119 143.236 177.188 155.285 174.358 158.053 C 172.811 159.566 170.465 159.76 169.128 159.441 C 167.689 159.715 165.363 159.646 162.922 159.115 C 158.023 158.049 146.539 149.896 142.821 150.949 C 140.326 151.656 138.264 156.211 139.366 158.173 C 140.926 160.95 154.709 160.823 157.582 163.826 C 159.639 165.975 160.214 169.408 158.839 171.992 C 156.913 175.612 144.976 179.02 142.507 182.042 C 141.044 183.833 140.7 185.969 141.251 187.067 C 141.765 188.094 143.814 188.947 145.334 188.638 C 147.355 188.227 149.623 184.136 152.243 182.985 C 154.858 181.836 159.37 181.602 161.037 181.728 C 161.896 181.793 162.223 181.683 162.607 182.356 C 163.382 183.715 163.65 188.624 163.236 192.093 C 162.769 195.997 159.163 202.1 159.467 204.655 C 159.647 206.175 160.787 207.203 161.665 207.482 C 162.482 207.741 163.525 207.695 164.492 206.54 C 166.574 204.053 168.202 190.259 171.087 187.381 C 172.908 185.566 176.032 186.055 177.369 186.125 C 178.153 186.166 178.494 185.918 178.939 186.753 C 180.16 189.047 179.572 203.512 180.824 207.796 C 181.554 210.296 182.553 211.669 183.65 212.507 C 184.5 213.155 185.71 213.988 186.477 213.135 C 188.207 211.212 187.03 193.168 188.989 191.15 C 189.967 190.144 191.949 190.954 192.758 192.093 C 193.172 192.674 193.436 193.65 193.585 194.836 C 194.314 194.819 194.979 194.857 195.428 194.961 C 196.461 195.2 196.867 195.349 197.626 196.531 C 199.191 198.968 201.803 206.764 202.651 212.235 C 203.522 217.849 203.856 224.221 202.651 229.823 C 201.447 235.422 199.098 241.134 195.428 245.84 C 191.52 250.851 181.851 255.152 179.41 258.717 C 177.939 260.865 177.314 263.066 178.154 264.37 C 179.117 265.866 183.153 266.693 186.006 266.569 C 189.259 266.427 194.57 262.659 196.684 262.8 C 197.876 262.88 198.22 263.188 198.883 264.37 C 200.212 266.743 202.033 276.919 202.023 279.446 C 202.019 280.559 201.799 279.832 201.395 281.33 C 199.849 287.074 186.33 333.343 188.204 336.921 C 189.016 338.471 191.85 333.808 194.172 333.152 C 196.707 332.436 199.756 332.021 202.966 333.152 C 207.194 334.642 215.211 341.959 217.099 343.516 C 217.772 344.072 217.48 344.215 218.041 344.458 C 218.998 344.874 221.916 345.202 223.066 345.087 C 223.808 345.012 224.038 345.091 224.636 344.458 C 225.881 343.144 227.226 336.588 229.347 335.036 C 231.076 333.772 234.148 334.138 235.629 334.408 C 236.657 334.596 237.299 335.112 237.827 335.664 C 238.318 336.177 238.066 337.061 238.77 337.549 C 239.846 338.295 243.64 339.601 244.737 338.805 C 245.827 338.015 245.858 336.564 245.365 332.838 C 244.053 322.928 228.983 280.059 226.521 266.255 C 225.182 258.749 225.022 254.253 225.893 251.179 C 226.427 249.291 227.346 248.264 228.719 247.725 C 230.327 247.094 233.124 246.873 235.315 248.353 C 238.578 250.558 243.501 263.637 245.051 263.428 C 246.354 263.253 246.684 255.933 245.365 251.808 C 243.716 246.652 237.626 238.415 233.744 235.162 C 230.922 232.796 227.216 233.478 225.265 231.707 C 223.51 230.114 222.678 227.848 222.124 225.426 C 221.501 222.701 221.208 219.9 222.124 216.004 C 223.45 210.363 230.087 196.585 231.86 194.333 C 232.432 193.606 232.356 193.721 233.116 193.705 C 234.832 193.667 240.659 194.024 243.481 196.531 C 244.78 197.685 246.231 199.957 247.513 202.462 C 248.495 202.236 251.308 202.988 253.109 204.675 C 255.828 207.222 258.674 217.513 260.96 218.808 C 262.211 219.517 263.865 218.748 264.415 217.866 C 265.077 216.804 264.708 214.142 263.787 212.213 C 262.622 209.773 258.131 207.618 256.877 204.675 C 255.631 201.75 255.87 197.245 256.249 194.625 C 256.537 192.633 256.828 190.839 258.134 189.914 C 259.64 188.846 263.411 188.694 265.357 189.286 C 267.08 189.809 267.851 190.913 269.44 192.74 C 271.921 195.594 276.543 205.492 278.548 206.245 C 279.526 206.612 280.251 205.653 280.747 204.675 C 281.496 203.198 282.51 199.495 281.375 197.137 C 279.946 194.17 272.568 191.931 270.697 188.971 C 269.203 186.61 269.137 183.479 269.44 181.434 C 269.689 179.759 269.831 178.351 271.639 177.351 C 274.914 175.538 289.069 178.086 292.053 175.466 C 294.152 173.625 293.175 169.631 292.681 166.987 C 292.2 164.405 290.771 160.974 289.227 159.763 C 288.006 158.806 286.777 159.091 284.83 159.135 C 281.924 159.2 275.946 161.456 272.895 161.019 C 270.945 160.74 268.934 159.833 267.974 158.786 C 267.556 158.998 267.073 159.172 266.646 159.1 C 266.388 159.057 266.093 158.923 265.799 158.741 C 265.129 158.568 264.402 158.211 264.006 157.258 C 263.103 155.089 264.948 147.827 264.006 144.067 C 263.172 140.742 261.066 136.933 259.295 135.587 C 258.035 134.63 256.252 133.944 255.212 134.959 C 253.387 136.739 252.423 145.986 252.699 151.604 C 252.983 157.392 257.614 165.778 257.096 169.192 C 256.8 171.142 255.792 171.788 254.269 172.647 C 252.2 173.815 247.462 176.064 244.847 174.532 C 241.445 172.537 239.803 159.82 237.31 157.572 C 235.943 156.339 234.14 156.161 233.227 156.944 C 232.004 157.992 231.409 162.88 231.97 165.424 C 232.515 167.888 235.409 170.31 236.367 172.019 C 237.025 173.192 237.31 173.859 237.624 174.846 C 237.941 175.847 238.458 176.941 238.252 177.986 C 238.025 179.14 237.034 181.051 236.053 181.441 C 235.124 181.811 233.248 180.988 232.599 180.499 C 232.152 180.163 231.999 179.852 231.97 179.243 C 231.924 178.266 233.57 176.536 233.227 174.846 C 232.759 172.541 228.479 169.517 227.573 166.68 C 226.736 164.056 227.066 160.866 227.573 158.514 C 228.019 156.449 228.681 154.171 230.086 153.175 C 231.5 152.172 233.963 152.053 236.053 152.547 C 238.529 153.131 242.082 154.7 243.905 157.258 C 246.019 160.223 245.146 169.031 247.046 170.135 C 248.459 170.956 252.041 169.237 252.699 167.308 C 253.616 164.619 249.006 157.936 248.302 153.489 C 247.651 149.375 247.518 145.374 248.302 141.554 C 249.087 137.731 250.723 132.194 253.013 130.562 C 254.852 129.251 257.942 129.925 259.923 130.562 C 261.775 131.157 263.306 132.299 264.634 134.017 C 265.712 135.411 266.722 137.288 267.48 139.429 C 269.045 134.385 271.151 128.495 273.241 124.867 C 275.711 120.58 278.979 117.806 281.721 115.131 C 284.087 112.822 286.726 109.829 288.631 109.477 C 289.983 109.228 291.29 109.549 292.085 111.048 C 293.615 113.93 293.605 124.735 292.714 130.52 C 291.917 135.69 289.929 140.6 287.688 144.339 C 285.718 147.628 283.39 150.027 280.465 152.191 C 278.834 153.398 276.307 154.524 274.049 155.474 C 275.58 156.044 277.176 156.57 278.548 156.622 C 282.174 156.759 287.174 154.232 289.855 154.738 C 291.773 155.1 292.81 156.078 293.938 157.564 C 295.352 159.429 296.54 162.791 297.078 165.73 C 297.647 168.837 297.912 173.33 297.078 175.781 C 296.43 177.685 295.779 178.919 293.624 179.863 C 290.029 181.439 276.888 179.471 274.465 181.12 C 273.238 181.955 273.631 183.601 273.837 184.574 C 274.023 185.451 274.439 185.832 275.408 186.773 C 277.173 188.489 283.42 190.79 285.144 193.997 C 286.858 197.185 286.425 203.012 285.772 205.931 C 285.293 208.07 284.395 209.836 282.945 210.642 C 281.416 211.493 278.498 211.326 276.664 210.642 C 274.835 209.961 273.686 208.588 271.953 206.559 C 269.463 203.645 265.43 194.615 263.473 193.683 C 262.544 193.24 261.768 193.864 261.274 194.625 C 260.546 195.747 259.912 198.584 260.646 200.906 C 261.64 204.048 267.586 208.155 268.812 211.585 C 269.816 214.394 269.405 217.85 268.812 219.75 C 268.386 221.117 267.857 221.966 266.614 222.577 C 264.882 223.428 261.117 224.79 258.448 223.205 C 256.337 221.951 253.373 217.439 250.961 213.057 C 250.606 213.996 249.258 214.365 248.192 213.805 C 245.867 212.585 241.38 200.745 238.77 198.73 C 237.358 197.64 236.22 197.392 235.001 198.102 C 233.133 199.189 231.033 203.955 229.662 207.838 C 228.05 212.401 225.938 220.409 226.521 224.169 C 226.917 226.729 228.166 227.957 229.976 229.509 C 232.214 231.428 236.756 231.55 239.712 234.22 C 243.274 237.438 247.435 244.133 249.134 248.667 C 250.54 252.42 250.714 256.053 250.39 259.345 C 250.089 262.403 249.43 266.973 247.564 267.825 C 245.679 268.686 241.505 266.568 239.084 264.37 C 236.209 261.762 233.852 253.228 232.174 252.122 C 231.419 251.624 230.701 251.794 230.29 252.436 C 229.511 253.651 229.416 256.787 230.29 261.858 C 232.118 272.465 244.239 305.119 247.249 319.019 C 249.228 328.154 250.364 336.182 249.762 339.747 C 249.471 341.472 249.05 341.958 247.878 342.574 C 246.185 343.463 241.621 343.567 239.398 343.202 C 237.674 342.919 236.274 342.142 235.315 341.318 C 234.503 340.62 234.411 339.028 233.744 338.805 C 233.132 338.601 232.241 338.957 231.546 339.747 C 230.395 341.057 230.548 345.947 228.405 347.599 C 225.959 349.485 219.38 349.91 216.785 349.484 C 215.084 349.204 214.363 348.204 213.33 347.285 C 212.261 346.333 211.944 345.101 210.503 343.83 C 208.412 341.987 203.744 338.427 201.081 337.549 C 199.157 336.914 197.779 336.903 196.056 337.549 C 193.931 338.346 190.616 341.867 189.461 342.888 C 188.909 343.375 189.053 343.538 188.518 343.83 C 187.643 344.308 185.277 345.256 184.121 345.087 C 183.185 344.949 182.166 345.182 181.923 343.516 C 181.079 337.747 195.185 297.578 196.998 285.099 C 198.022 278.054 197.755 273.654 196.998 270.652 C 196.541 268.839 195.985 267.427 194.8 267.197 C 193.26 266.899 190.438 270.324 187.89 270.966 C 185.226 271.637 181.527 271.764 179.096 270.966 C 176.913 270.249 174.622 268.887 173.757 266.883 C 172.766 264.587 173.358 259.995 174.385 257.461 C 175.303 255.197 176.836 254.21 179.096 252.122 C 182.365 249.102 190.016 245.332 193.229 241.129 C 196.102 237.372 197.399 233.06 198.254 228.566 C 199.148 223.875 198.91 218.318 198.254 213.491 C 197.617 208.802 196.339 201.486 194.486 199.986 C 194.247 199.793 193.971 199.731 193.673 199.748 C 193.613 200.784 193.513 201.815 193.386 202.771 C 192.79 207.266 190.995 215.562 188.675 217.532 C 187.125 218.849 184.798 218.145 183.022 217.532 C 181.118 216.875 178.931 216.045 177.683 213.449 C 175.663 209.249 177.488 192.806 175.798 191.15 C 174.993 190.361 173.686 191.314 172.658 192.721 C 170.593 195.545 169.611 209.357 166.69 211.879 C 164.784 213.526 161.578 212.489 159.781 211.879 C 158.272 211.367 157.114 210.479 156.326 209.052 C 155.349 207.284 154.897 204.554 155.07 201.515 C 155.298 197.509 160.676 188.3 158.839 186.753 C 156.909 185.129 146.701 193.157 142.821 193.035 C 140.13 192.95 137.74 191.485 136.854 189.58 C 135.846 187.414 137.045 182.604 138.11 180.158 C 139.01 178.092 140.322 176.625 142.193 175.447 C 144.345 174.091 149.312 173.771 150.673 172.934 C 151.355 172.515 151.149 172.142 151.615 171.678 C 152.263 171.033 154.26 170.447 154.442 169.479 C 154.644 168.407 153.785 166.263 152.243 165.397 C 149.991 164.132 143.318 165.816 140.308 164.768 C 137.918 163.936 135.801 162.601 134.969 160.686 C 134.069 158.613 134.673 154.9 135.597 152.52 C 136.494 150.209 138.112 147.498 140.308 146.552 C 142.704 145.521 145.867 146.308 149.731 147.18 C 151.533 147.587 154.139 148.314 156.9 149.185 C 155.465 146.007 154.184 142.019 153.257 137.847 C 151.6 130.396 150.474 114.263 150.744 110.837 C 150.833 109.708 150.874 109.477 151.372 109.266 Z M 157.025 119.317 C 155.342 119.93 156.689 131.665 157.654 136.905 C 158.516 141.59 160.018 146.722 162.051 149.467 C 162.668 150.301 163.507 151.128 164.366 151.799 C 165.612 152.289 166.75 152.776 167.701 153.237 C 167.702 153.237 167.703 153.236 167.704 153.236 C 168.724 152.886 168.814 150.516 168.96 148.211 C 169.184 144.672 169.551 137.833 167.704 133.136 C 165.747 128.161 158.704 118.705 157.025 119.317 Z M 288.317 116.387 C 287.785 115.908 286.971 117.044 285.804 118.271 C 283.415 120.784 277.113 127.73 274.498 133.347 C 271.854 139.024 268.713 150.533 270.101 152.191 C 271.054 153.331 274.829 150.654 277.01 149.05 C 279.468 147.244 282.083 144.62 283.92 141.513 C 285.961 138.059 287.592 133.187 288.317 128.95 C 289.024 124.809 289.243 117.22 288.317 116.387 Z M 220.46 94.36 C 221.612 93.533 222.679 94.523 223.915 95.931 C 226.317 98.665 230.601 107.652 232.081 114.147 C 233.602 120.82 234.293 128.84 232.709 135.503 C 231.133 142.131 225.599 152.249 222.659 154.034 C 221.074 154.996 218.817 153.878 218.262 153.091 C 217.777 152.405 219.075 151.511 218.89 149.951 C 218.55 147.081 214.834 141.251 213.865 136.132 C 212.794 130.477 212.307 123.88 213.237 117.287 C 214.261 110.023 218.051 96.09 220.46 94.36 Z M 222.031 103.782 C 220.278 104.002 218.27 113.668 217.634 118.858 C 216.987 124.131 217.237 130.563 218.262 135.189 C 219.135 139.134 221.023 145.211 222.659 145.24 C 224.359 145.269 227.366 138.894 228.312 134.561 C 229.442 129.384 228.945 121.091 227.684 115.717 C 226.59 111.056 223.666 103.577 222.031 103.782 Z M 206.607 169.435 C 209.434 168.84 217.708 169.191 220.426 170.063 C 222.009 170.571 222.349 171.243 223.253 172.262 C 224.358 173.509 225.808 175.11 226.393 177.287 C 227.133 180.042 227.429 184.431 226.393 187.965 C 225.249 191.869 222.241 197.662 219.17 199.586 C 216.522 201.245 212.841 201.181 209.747 200.214 C 206.232 199.116 201.413 195.73 199.383 192.362 C 197.412 189.092 196.748 183.991 197.499 180.428 C 198.219 177.01 201.702 173.102 203.466 171.32 C 204.607 170.167 204.945 169.785 206.607 169.435 Z M 208.805 173.832 C 208.069 173.909 208.107 173.926 207.549 174.46 C 206.329 175.629 202.616 180.02 201.896 182.626 C 201.295 184.801 201.45 186.968 202.524 188.908 C 203.806 191.221 207.557 194.098 210.062 195.189 C 212.161 196.103 214.498 196.779 216.343 195.817 C 218.6 194.64 221.101 189.993 221.996 187.023 C 222.808 184.333 222.665 181.042 221.996 178.857 C 221.43 177.006 219.695 174.774 218.856 174.46 C 218.366 174.278 218.336 175.012 217.599 175.089 C 216.059 175.249 210.346 173.672 208.805 173.832 Z M 179.93 165.208 C 181.285 165.048 185.854 164.809 187.154 166.15 C 188.429 167.465 188.887 171.279 187.782 173.059 C 186.504 175.119 180.389 176.979 178.674 177.142 C 177.831 177.222 177.482 177.131 177.104 176.514 C 176.428 175.411 176.056 171.163 176.476 169.291 C 176.81 167.8 177.996 166.485 178.674 165.836 C 179.116 165.413 179.229 165.29 179.93 165.208 Z M 253.312 177.267 C 254.752 176.888 257.141 177.287 258.024 178.21 C 258.879 179.104 258.933 181.281 258.652 182.607 C 258.379 183.89 257.616 185.362 256.453 186.061 C 255.127 186.859 252.007 187.53 250.8 186.69 C 249.553 185.821 248.743 182.315 249.23 180.722 C 249.689 179.218 251.809 177.663 253.312 177.267 Z M 211.239 179.785 C 212.345 179.644 214.505 179.741 215.322 180.727 C 215.732 181.221 216.031 182.198 216.186 183.256 C 216.235 183.33 216.278 183.408 216.316 183.488 C 216.902 184.736 216.596 188.75 215.688 189.455 C 214.974 190.01 212.976 189.174 212.085 188.622 C 210.999 188.71 209.658 188.627 209.041 187.951 C 208.253 187.088 208.341 184.473 208.413 183.24 C 208.466 182.319 208.589 181.612 209.041 181.041 C 209.511 180.447 210.336 179.9 211.239 179.785 Z M 126.293 168.775 C 126.988 168.481 129.371 169.214 130.062 169.717 C 130.522 170.052 130.747 170.492 130.69 170.974 C 130.616 171.6 129.831 172.947 129.12 173.172 C 128.38 173.407 126.859 172.774 126.293 172.23 C 125.812 171.768 125.651 170.938 125.665 170.346 C 125.678 169.79 125.795 168.986 126.293 168.775 Z M 142.475 211.489 C 143.216 211.216 145.354 210.913 145.93 211.489 C 146.506 212.065 146.474 214.11 145.93 214.944 C 145.365 215.809 143.21 216.888 142.475 216.514 C 141.71 216.125 141.35 213.263 141.533 212.431 C 141.648 211.905 141.969 211.675 142.475 211.489 Z M 172.511 224.631 C 172.99 224.535 174.238 224.788 174.709 225.259 C 175.18 225.73 175.364 226.8 175.337 227.457 C 175.313 228.04 175.125 228.663 174.709 229.028 C 174.239 229.439 173.168 229.683 172.511 229.656 C 171.928 229.632 171.151 229.526 170.94 229.028 C 170.646 228.333 171.527 225.95 171.882 225.259 C 172.079 224.876 172.182 224.697 172.511 224.631 Z M 282.506 225.467 C 283.239 225.049 285.631 225.695 285.961 226.41 C 286.299 227.141 285.184 229.498 284.391 229.864 C 283.671 230.197 281.912 229.6 281.564 228.922 C 281.19 228.192 281.773 225.886 282.506 225.467 Z M 302.855 193.403 C 303.384 192.859 305.913 193.668 306.623 194.345 C 307.228 194.92 307.595 196.199 307.252 196.858 C 306.851 197.624 304.538 198.85 303.797 198.428 C 302.962 197.953 302.263 194.009 302.855 193.403 Z M 308.829 148.591 C 309.401 148.567 311.407 149.369 311.656 150.162 C 311.921 151.007 310.886 153.195 310.086 153.616 C 309.367 153.995 307.626 153.625 307.259 152.988 C 306.846 152.272 307.846 149.911 308.201 149.219 C 308.398 148.837 308.488 148.606 308.829 148.591 Z M 257.287 114.456 C 257.857 114.365 259.542 114.79 260.114 115.398 C 260.655 115.973 261.086 117.252 260.742 117.911 C 260.342 118.677 258.191 119.429 257.287 119.481 C 256.634 119.519 255.928 119.351 255.717 118.853 C 255.423 118.158 256.304 115.775 256.659 115.084 C 256.856 114.701 256.936 114.512 257.287 114.456 Z M 185.949 119.883 C 186.802 119.582 190.451 120.563 190.974 121.454 C 191.391 122.163 190.753 123.905 190.032 124.28 C 189.206 124.711 186.691 123.958 185.949 123.338 C 185.399 122.878 185.307 122.046 185.321 121.454 C 185.334 120.899 185.408 120.074 185.949 119.883 Z" style="fill: rgb(255, 255, 255); fill-opacity: 1; fill-rule: nonzero; stroke: none; stroke-dasharray: none; stroke-dashoffset: 0px; stroke-linecap: butt; stroke-linejoin: miter; stroke-miterlimit: 4; stroke-opacity: 1; stroke-width: 1px; paint-order: normal; vector-effect: none; opacity: 1; mix-blend-mode: normal; isolation: auto;"/>
</svg>