<?xml version="1.0" encoding="utf-8"?>
<svg viewBox="0 0 500 500" xmlns="http://www.w3.org/2000/svg">
  <path d="M 64.066 62.277 L 378.891 62.277 L 378.891 371.664 L 64.066 371.664 Z" style="fill: rgb(196, 193, 193);"/>
  <path fill="rgb(255,0,0)" stroke="rgb(255,0,0)" stroke-width="0" opacity="0.9882352941176471" d="M 242.159 249.917 C 241.976 250.024 241.787 250.131 241.592 250.238 C 242.517 255.688 244.553 263.365 246.281 268.108 C 249.042 275.688 256.004 287.218 258.021 289.517 C 258.69 290.278 259.134 290.655 259.402 290.207 C 260.13 288.991 258.854 277.833 257.331 271.561 C 255.724 264.948 252.854 256.292 249.734 251.533 C 248.732 250.006 247.323 248.26 245.938 246.814 C 244.919 247.965 243.693 249.018 242.159 249.917 Z M 224.203 254.752 C 222.002 254.799 219.537 254.592 217.005 254.206 C 216.293 268.849 214.499 293.321 215.203 302.983 C 215.717 310.03 217.157 317.779 218.311 317.141 C 220.011 316.201 223.118 291.203 224.181 279.503 C 224.967 270.854 224.369 262.302 224.582 254.741 C 224.455 254.746 224.329 254.749 224.203 254.752 Z M 214.168 117.555 C 215.662 117.6 219.739 117.187 222.11 120.663 C 227.169 128.081 229.858 174.406 233.505 176.257 C 235.749 177.396 236.139 167.328 240.065 160.718 C 246.239 150.326 265.936 123.608 271.488 118.936 C 273.545 117.206 274.238 117.426 275.632 117.555 C 277.114 117.693 279.065 117.722 280.121 119.972 C 282.389 124.809 281.565 144.299 280.811 154.503 C 280.161 163.301 278.564 171.054 276.668 177.983 C 274.996 184.09 268.656 192.089 270.452 194.213 C 272.244 196.331 281.026 191.377 287.372 190.76 C 294.714 190.045 308.001 188.301 312.234 190.76 C 314.993 192.362 316.543 194.973 315.342 198.702 C 312.893 206.299 280.809 227.617 280.121 234.959 C 279.727 239.159 285.976 238.266 289.789 242.901 C 296.336 250.857 313.955 277.741 314.651 284.337 C 314.942 287.094 312.911 287.971 311.543 288.826 C 310.235 289.643 309.303 290.479 306.709 289.517 C 300.252 287.121 274.902 265.534 269.071 260.166 C 266.547 257.843 266.117 255.84 265.273 255.677 C 264.788 255.583 264.32 255.879 264.237 256.713 C 264.003 259.059 268.662 267.977 269.761 275.359 C 271.111 284.421 269.565 299.839 270.452 307.818 C 271.062 313.305 273.584 317.445 273.215 320.249 C 272.971 322.098 271.83 323.18 270.797 324.047 C 269.841 324.85 268.618 325.561 267.344 325.428 C 265.798 325.267 264.422 325.026 262.165 322.32 C 256.673 315.74 241.51 272.374 236.267 272.942 C 231.458 273.463 233.678 306.396 230.397 317.486 C 227.997 325.595 224.024 333.328 221.074 335.787 C 219.412 337.171 217.781 336.754 216.239 336.478 C 214.671 336.197 213.178 336.106 211.75 334.061 C 208.956 330.059 205.532 316.706 204.154 307.818 C 202.783 298.979 203.45 289.497 203.463 280.884 C 203.475 272.73 205.119 258.863 204.154 257.403 C 203.829 256.912 203.664 257.165 202.773 258.094 C 198.711 262.33 170.872 307.922 163.753 314.378 C 161.083 316.8 160.064 316.665 158.228 316.45 C 156.264 316.221 153.693 315.378 152.358 312.652 C 150.067 307.974 149.453 294.274 150.977 285.718 C 152.485 277.248 156.301 269.695 161.336 261.547 C 167.094 252.228 184.622 235.87 184.817 233.232 C 184.883 232.341 183.873 232.784 182.4 232.887 C 178.725 233.143 165.588 237.004 158.919 237.721 C 153.57 238.296 149.761 239.429 145.107 237.721 C 139.539 235.677 132.529 229.594 128.187 224.254 C 123.972 219.071 119.218 209.656 119.209 206.298 C 119.204 204.549 120.326 203.853 121.626 203.191 C 123.32 202.327 125.329 202.434 129.223 202.5 C 136.473 202.623 156.691 203.506 165.134 205.953 C 170.953 207.64 176.236 212.962 177.565 212.859 C 178.042 212.822 178.134 212.624 177.911 211.823 C 176.956 208.401 160.592 188.723 156.502 176.602 C 152.654 165.199 150.478 146.793 153.049 141.381 C 154.504 138.318 157.948 137.533 160.991 138.274 C 165.356 139.336 171.159 146.122 176.529 152.431 C 183.141 160.197 191.494 171.677 197.37 183.082 C 194.506 172.479 191.316 160.388 187.79 151.042 C 180.299 131.192 161.16 97.638 160.856 90.268 C 160.758 87.889 162.548 87.781 163.273 87.16 C 163.772 86.734 163.927 86.505 164.654 86.47 C 165.969 86.407 168.596 85.518 171.215 88.196 C 177.614 94.743 190.762 125.968 198.149 145.517 C 199.898 150.147 201.808 155.58 203.7 161.258 C 203.82 159.722 203.971 158.162 204.154 156.575 C 205.491 144.962 210.849 121.653 212.786 118.246 C 213.317 117.312 213.413 117.533 214.168 117.555 Z M 262.51 232.887 C 272.305 229.538 294.885 205.28 295.314 202.155 C 295.485 200.91 293.173 201.606 290.825 201.809 C 286.242 202.207 272.831 204.68 267.344 206.644 C 263.617 207.978 261.595 209.162 259.402 211.133 C 257.23 213.085 256.904 216.386 254.223 218.384 C 253.492 218.929 252.515 219.505 251.408 220.071 C 251.573 223.957 251.283 228.493 250.967 231.913 C 254.63 233.146 258.866 234.133 262.51 232.887 Z M 250.079 202.5 C 251.825 200.766 252.378 201.472 253.877 199.392 C 256.865 195.249 262.971 183.747 265.618 174.53 C 268.479 164.567 270.667 143.272 269.761 141.381 C 269.497 140.828 269.172 141.293 268.38 142.072 C 265.649 144.757 254.072 158.923 248.353 169.696 C 244.341 177.253 241.208 190.381 238.182 200.002 C 241.221 202.007 243.914 204.547 245.885 206.676 C 247.611 204.93 249.147 203.426 250.079 202.5 Z M 216.93 151.395 C 215.686 150.821 214.429 169.804 215.203 178.674 C 215.65 183.791 217.895 190.038 219.567 195.299 C 221.219 195.246 222.89 195.317 224.532 195.491 C 223.181 183.109 218.264 152.01 216.93 151.395 Z M 166.17 158.301 C 164.446 158.381 165.615 167.819 168.242 174.876 C 171.398 183.352 183.087 202.64 190.213 213.111 C 191.366 211.308 192.737 209.578 194.326 207.971 C 192.268 201.483 189.45 193.879 186.889 188.688 C 181.673 178.113 168.535 158.192 166.17 158.301 Z M 137.855 216.312 C 136.839 218.113 143.967 225.246 148.905 226.671 C 154.746 228.357 170.845 225.272 171.695 223.218 C 172.339 221.664 166.426 218.265 162.027 217.003 C 156.103 215.304 139.08 214.141 137.855 216.312 Z M 176.529 259.82 C 171.216 267.384 164.293 279.577 162.717 286.064 C 161.71 290.211 161.407 296.153 163.408 295.732 C 167.068 294.962 191.863 261.618 198.422 248.465 C 195.46 246.833 192.928 244.85 191.028 243.005 C 186.639 246.1 180.737 253.831 176.529 259.82 Z M 271.143 244.627 C 270.869 244.633 273.025 246.31 273.905 247.39 C 274.875 248.579 275.344 250.115 276.668 251.533 C 278.332 253.317 281.743 255.43 283.574 257.058 C 285.017 258.342 286.937 260.78 287.027 260.511 C 287.149 260.146 284.015 254.12 281.502 251.533 C 278.816 248.768 271.577 244.617 271.143 244.627 Z" style="fill: rgb(255, 255, 255); fill-opacity: 1; fill-rule: nonzero; stroke: none; stroke-dasharray: none; stroke-dashoffset: 0px; stroke-linecap: butt; stroke-linejoin: miter; stroke-miterlimit: 4; stroke-opacity: 1; stroke-width: 1px; paint-order: normal; vector-effect: none; opacity: 1; mix-blend-mode: normal; isolation: auto;" transform="matrix(-1, 0, 0, -1, 434.961945, 423.038101)"/>
</svg>