<?xml version="1.0" encoding="utf-8"?>
<svg viewBox="0 0 500 500" xmlns="http://www.w3.org/2000/svg">
  <path d="M 64.066 62.277 L 378.891 62.277 L 378.891 371.664 L 64.066 371.664 Z" style="fill: rgb(196, 193, 193);"/>
  <path fill="rgb(255,0,0)" stroke="rgb(255,0,0)" stroke-width="0" opacity="0.9686274509803922" d="M 156.363 173.789 C 159.024 173.291 162.889 173.012 166.413 174.417 C 170.849 176.186 176.292 180.648 180.546 185.41 C 185.306 190.736 189.918 198.864 193.109 205.51 C 196.047 211.628 197.435 216.813 199.391 223.726 C 200.956 229.26 202.932 236.982 204.292 243.499 C 204.943 238.553 204.576 233.385 204.038 227.176 C 203.162 217.063 200.263 202.679 197.128 191.372 C 194.124 180.536 189.895 169.49 185.822 160.593 C 182.283 152.865 179.073 147.224 174.515 140.493 C 169.578 133.201 158.817 122.958 156.927 118.508 C 156.028 116.39 156.513 115.346 156.927 114.111 C 157.309 112.973 157.701 112.431 159.126 111.284 C 161.843 109.097 170.063 103.803 174.829 102.49 C 178.697 101.424 182.455 101.504 185.508 102.49 C 188.357 103.411 190.385 104.781 192.731 107.829 C 196.217 112.358 200.966 122.925 202.782 129.814 C 204.359 135.799 205.017 141.216 204.038 146.774 C 203.024 152.53 196.606 156.879 196.5 163.734 C 196.365 172.464 204.964 185.129 207.807 195.769 C 207.862 195.976 207.917 196.183 207.972 196.391 C 210.712 187.064 214.552 175.756 215.722 168.057 C 217.321 157.539 218.415 148.702 216.979 139.791 C 215.585 131.144 209.069 122.108 207.556 115.293 C 206.407 110.116 206.198 106.201 206.928 102.102 C 207.63 98.163 209.279 92.912 211.639 91.11 C 213.604 89.61 217.336 90.384 219.177 90.482 C 220.431 90.549 221.208 91.486 222.004 91.11 C 222.941 90.667 223.514 88.031 224.202 87.341 C 224.639 86.903 224.748 86.852 225.458 86.713 C 226.851 86.442 230.463 86.039 232.996 86.713 C 235.798 87.459 239.255 89.083 241.476 91.424 C 243.832 93.907 245.125 97.317 246.501 101.474 C 248.228 106.693 249.294 112.012 250.27 120.947 C 251.78 134.774 253.909 165.612 252.783 179.992 C 252.762 180.26 252.739 180.527 252.713 180.792 C 256.007 177.316 263.411 169.019 265.093 162.794 C 266.882 156.174 261.882 147.894 263.208 141.437 C 264.471 135.288 268.869 128.43 272.316 124.792 C 274.998 121.961 277.647 120.569 281.11 119.766 C 285.034 118.857 290.826 119.112 294.929 120.395 C 298.842 121.617 303.64 124.489 305.294 126.99 C 306.56 128.906 307.445 129.795 305.922 133.271 C 301.721 142.858 262.91 179.155 253.786 193.573 C 250.948 198.057 249.348 201.415 248.285 204.566 C 248.403 204.915 248.471 205.27 248.386 205.746 C 248.191 206.838 247.661 208.599 246.884 209.819 C 246.664 210.852 246.46 211.917 246.248 213.045 C 245.274 218.227 244.846 223.503 245.552 228.785 C 245.69 229.294 245.767 229.852 245.804 230.398 C 245.93 231.104 246.078 231.811 246.248 232.518 C 246.523 233.657 246.975 234.888 247.541 236.167 C 248.6 233.112 250.12 229.796 252.341 225.873 C 257.511 216.741 267.797 200.873 277.152 191.639 C 285.847 183.059 299.291 173.983 306.047 171.539 C 309.926 170.136 312.858 170.792 314.841 171.539 C 316.288 172.084 317.587 172.769 317.668 174.366 C 317.742 175.838 316.762 178.19 315.234 180.912 C 317.801 181.271 321.112 182.227 322.092 182.984 C 322.799 183.53 322.956 184.329 322.72 184.868 C 322.435 185.523 321.014 186.447 319.894 186.438 C 318.496 186.428 316.63 183.687 314.869 183.926 C 314.266 184.008 313.563 184.351 312.838 184.837 C 311.983 186.15 311.065 187.491 310.13 188.813 C 308.037 191.772 304.517 195.96 300.696 200.274 C 301.51 200.528 302.169 200.829 302.549 201.178 C 303.685 202.22 303.551 204.798 303.177 205.575 C 302.923 206.102 302.13 206.203 301.607 206.203 C 301.083 206.203 300.447 205.959 300.036 205.575 C 299.588 205.155 299.814 204.125 299.094 203.69 C 298.842 203.538 298.48 203.379 298.048 203.232 C 292.25 209.648 286.354 215.786 284.062 218.021 C 283.02 219.037 282.696 219.102 282.237 219.383 C 285.028 219.705 287.813 220.485 288.276 221.246 C 288.759 222.042 287.246 223.963 286.077 224.387 C 284.641 224.908 282.184 222.651 279.796 223.131 C 279.246 223.241 278.604 223.462 277.909 223.761 C 275.108 226.872 271.62 231.042 269.301 234.667 C 268.325 236.192 267.476 237.518 266.687 238.846 C 268.721 239.524 270.85 240.695 271.917 241.742 C 273.284 243.084 274.125 245.812 273.801 246.767 C 273.567 247.458 272.36 247.992 271.603 247.709 C 270.502 247.297 269.606 243.601 268.148 242.684 C 267.296 242.148 266.197 241.674 265.126 241.644 C 263.701 244.39 262.323 247.656 260.507 252.883 C 254.116 271.271 248.019 335.584 236.323 347.418 C 229.731 354.089 219.579 348.925 213.082 348.675 C 207.885 348.475 203.129 346.683 199.891 346.79 C 198.288 346.843 197.04 347.58 195.993 347.909 C 195.757 348.891 195.436 349.693 194.994 350.296 C 193.875 351.821 191.613 351.636 190.283 351.553 C 189.174 351.483 188.133 351.299 187.456 350.296 C 186.438 348.789 186.415 346.478 186.2 341.817 C 185.756 332.218 188.239 306.582 187.456 289.681 C 187.014 280.14 186.38 270.195 185.22 260.819 C 184.614 259.977 184.022 259.271 183.537 258.79 C 182.646 257.905 181.7 257.557 181.025 257.534 C 180.513 257.516 180.247 257.965 179.768 258.162 C 179.219 258.388 178.559 258.508 177.884 258.79 C 177.109 259.113 176.101 259.999 175.371 260.046 C 174.776 260.085 173.907 259.937 173.801 259.418 C 173.629 258.57 174.88 255.065 176.628 254.393 C 178.21 253.785 181.638 254.194 184.45 255.214 C 183.739 250.545 182.872 246.077 181.803 241.942 C 181.057 239.056 180.218 236.337 179.3 233.731 C 176.313 235.042 172.27 238.763 171.019 238.442 C 170.069 238.197 169.725 236.66 170.076 235.615 C 170.598 234.063 173.536 230.906 176.044 230.276 C 176.587 230.14 177.219 230.041 177.902 229.99 C 175.931 225 173.673 220.347 171.239 215.597 C 168.312 215.327 162.681 219.436 161.134 218.861 C 160.156 218.498 159.801 216.982 160.191 216.035 C 160.748 214.684 163.933 212.536 166.159 211.952 C 167.048 211.718 168.126 211.645 169.215 211.689 C 169.015 211.306 168.814 210.921 168.612 210.535 C 163.121 200.026 149.811 184.724 149.139 179.756 C 148.859 177.684 150.257 177.259 151.338 176.302 C 152.565 175.214 154.256 174.183 156.363 173.789 Z M 213.46 226.548 C 213.516 227.135 213.573 227.71 213.629 228.275 C 218.774 227.981 229.69 225.123 236.281 224.366 C 236.272 223.483 236.274 222.604 236.286 221.735 C 229.964 221.993 219.138 220.091 215.296 221.153 C 214.386 221.405 213.613 221.737 212.968 222.117 C 213.16 223.645 213.325 225.127 213.46 226.548 Z M 213.46 246.648 C 213.089 248.271 212.532 250.14 211.852 252.107 C 212.382 252.609 212.933 252.993 213.412 253.188 C 215.414 254.002 220.53 251.512 221.892 250.676 C 222.573 250.257 221.967 249.917 222.834 249.42 C 224.72 248.338 233.988 245.197 239.873 243.807 C 239.139 242.352 238.514 240.872 238.083 239.427 C 237.853 238.657 237.648 237.841 237.468 236.988 C 230.19 239.037 219.702 241.662 213.946 244.098 C 213.819 244.931 213.659 245.779 213.46 246.648 Z M 204.847 267.36 C 206.781 277.64 207.733 302.828 207.515 314.373 C 207.355 322.891 206.256 332.71 205.075 337.203 C 206.025 337.259 207.019 337.32 208.057 337.368 C 212.074 337.555 218.064 341.008 223.345 341.299 C 222.533 338.206 224.302 328.748 226.568 318.326 C 229.349 305.541 237.646 272.611 243.368 254.399 C 242.82 255.061 242.248 255.711 241.678 256.329 C 238.92 259.32 234.962 263.575 231 265.123 C 227.185 266.614 220.382 265.692 218.437 265.751 C 217.663 265.775 217.957 265.809 217.18 265.751 C 215.684 265.64 209.557 265.414 206.301 264.843 C 205.811 265.75 205.323 266.596 204.847 267.36 Z M 236.826 212.417 C 236.944 211.293 237.095 210.221 237.275 209.19 C 235.725 209.113 233.908 209.196 232.256 209.219 C 228.047 209.276 219.832 211.589 217.18 211.103 C 216.349 210.95 215.914 210.765 215.569 210.404 C 214.616 213.1 213.708 215.106 212.896 216.11 C 212.675 216.383 212.448 216.609 212.216 216.793 C 212.295 217.302 212.372 217.808 212.447 218.311 C 212.76 218.205 213.083 218.106 213.412 218.013 C 218.262 216.641 231.506 218.967 236.394 218.215 C 236.491 216.124 236.643 214.156 236.826 212.417 Z M 238.335 201.349 C 238.339 201.311 238.343 201.273 238.348 201.234 C 236.246 201.189 234.079 201.056 232.256 201.053 C 228.157 201.045 222.8 199.948 220.321 200.425 C 219.52 200.579 218.873 200.753 218.385 201.031 C 217.988 202.526 217.59 203.959 217.195 205.308 C 217.353 206.142 217.725 206.905 218.437 207.334 C 220.909 208.823 231.607 205.737 238.05 205.437 C 238.034 204.203 238.183 202.81 238.335 201.349 Z M 242.732 185.017 C 242.967 183.333 243.142 181.596 243.268 179.803 C 239.088 181.182 228.958 178.726 225.346 179.696 C 224.452 179.936 223.674 180.251 223.039 180.62 C 222.691 182.369 222.328 184.138 221.952 185.906 C 222.188 186.188 222.48 186.43 222.834 186.606 C 225.751 188.054 238.239 184.53 242.306 185.349 C 242.431 185.374 242.553 185.4 242.672 185.427 C 242.693 185.291 242.713 185.154 242.732 185.017 Z M 243.36 159.263 C 243.343 158.642 243.325 158.002 243.306 157.346 C 237.474 159.689 229.18 161.93 226.024 163.421 C 225.914 164.201 225.794 165.019 225.665 165.868 C 225.931 165.872 226.243 165.871 226.603 165.877 C 229.266 165.918 238.564 164.31 243.487 164.425 C 243.453 162.75 243.409 161.03 243.36 159.263 Z M 240.22 117.178 C 238.627 108.868 235.894 100.147 233.624 97.391 C 232.491 96.015 230.869 95.462 230.169 96.135 C 229.085 97.178 230.919 104.502 230.169 107.128 C 229.624 109.038 228.707 110.73 227.343 111.21 C 225.855 111.735 222.973 111.059 221.376 109.64 C 219.439 107.92 218.135 100.356 217.293 100.532 C 216.416 100.716 215.586 107.059 216.35 111.524 C 217.412 117.726 224.091 126.648 225.772 134.766 C 225.993 135.834 226.189 136.881 226.359 137.916 C 226.924 137.505 227.327 137.478 227.859 136.982 C 228.67 136.225 228.934 135.082 230.371 133.842 C 232.46 132.04 238.701 128.995 241.573 126.88 C 241.202 123.293 240.757 119.978 240.22 117.178 Z M 229.728 339.252 C 239.922 329.892 249.661 268.161 249.211 256.874 C 249.04 256.746 248.868 256.581 248.66 256.356 C 243.868 280.826 230.91 331.179 226.455 341.03 C 227.631 340.727 228.735 340.164 229.728 339.252 Z M 200.446 271.728 C 200.19 271.998 199.941 272.227 199.705 272.407 C 198.368 273.426 196.601 271.117 195.622 273.035 C 192.741 278.675 197.399 320.993 196.878 334.279 C 196.834 335.407 196.801 336.492 196.771 337.531 C 196.971 337.47 197.174 337.416 197.379 337.368 C 198.485 337.112 199.738 337.031 201.131 337.038 C 201.439 332.973 203.385 324.904 203.747 318.77 C 204.265 309.989 204.434 298.6 203.747 289.247 C 203.352 283.864 201.977 276.897 201.001 271.546 C 200.817 271.622 200.631 271.682 200.446 271.728 Z M 161.702 183.839 C 160.972 185.435 175.615 203.813 180.546 213.362 C 184.995 221.975 188.065 230.154 190.597 238.487 C 192.816 245.795 194.452 258.948 195.379 261.83 C 195.646 261.384 195.938 260.921 196.25 260.443 C 196.26 256.254 192.873 236.823 190.597 227.809 C 188.76 220.537 186.97 215.296 184.315 209.593 C 181.713 204.004 178.765 198.232 174.893 193.889 C 171.172 189.716 162.244 182.656 161.702 183.839 Z M 296.939 187.871 C 295.443 188.002 289.255 193.445 285.004 197.921 C 279.584 203.628 267.913 218.358 267.416 220.534 C 267.292 221.076 267.572 221.328 268.044 221.162 C 269.811 220.542 282.079 205.98 284.376 203.574 C 285.187 202.725 284.882 203.115 285.632 202.318 C 287.518 200.313 296.934 191.145 297.567 189.127 C 297.796 188.396 297.51 187.82 296.939 187.871 Z M 267.416 221.162 C 267.231 221.143 266.072 222.901 266.16 223.046 C 266.233 223.167 267.212 222.744 267.416 222.418 C 267.612 222.106 267.562 221.177 267.416 221.162 Z M 265.532 223.675 C 265.429 223.655 264.824 224.755 264.904 224.931 C 264.961 225.058 265.413 225.068 265.532 224.931 C 265.689 224.75 265.63 223.693 265.532 223.675 Z M 175.772 111.912 C 173.005 112.802 167.677 114.096 167.606 117.565 C 167.479 123.703 188.273 150.142 192.103 150.857 C 193.96 151.204 194.181 146.877 194.616 144.575 C 195.084 142.095 195.346 139.895 194.616 136.41 C 193.524 131.203 188.652 119.61 186.45 115.681 C 185.248 113.536 184.845 112.594 183.309 111.912 C 181.486 111.102 178.249 111.115 175.772 111.912 Z M 282.052 129.817 C 280.918 129.995 280.985 130.169 280.168 131.073 C 278.47 132.953 273.761 138.757 272.63 143.008 C 271.529 147.146 271.051 155.924 273.258 156.199 C 276.439 156.594 295.956 135.585 295.243 131.701 C 294.747 128.996 284.358 129.454 282.052 129.817 Z M 229.115 261.982 C 234.439 260.024 239.175 253.946 241.364 250.99 C 241.876 250.299 242.412 249.529 242.829 248.812 C 242.34 248.08 241.855 247.319 241.386 246.54 C 236.294 248.138 223.144 255.283 218.437 256.329 C 215.211 257.046 213.379 257.164 211.527 256.329 C 211.175 256.17 210.834 255.966 210.507 255.725 C 209.701 257.758 208.809 259.804 207.891 261.716 C 212.949 261.653 223.894 263.903 229.115 261.982 Z M 232.884 227.435 C 228.699 227.728 219.67 231.437 214.005 232.104 C 214.27 234.985 214.438 237.665 214.31 240.399 C 221.196 238.096 230.985 235.861 236.934 233.915 C 236.638 231.8 236.454 229.55 236.358 227.277 C 235.321 227.278 234.156 227.346 232.884 227.435 Z M 230.371 196.656 C 233.232 196.572 236.461 197.682 239.023 198.092 C 239.802 195.376 241.034 192.283 241.913 188.973 C 239.741 188.261 235.941 188.32 232.884 188.49 C 229.448 188.682 224.638 190.905 222.206 190.374 C 221.784 190.282 221.407 190.145 221.067 189.97 C 220.469 192.642 219.851 195.27 219.224 197.774 C 222.788 197.155 227.378 196.744 230.371 196.656 Z M 225.974 175.927 C 229.289 175.194 234.623 175.731 237.281 175.927 C 239.003 176.054 240.006 176.726 241.05 176.555 C 241.935 176.41 242.58 176.104 243.248 175.299 C 243.323 175.208 243.407 175.104 243.497 174.988 C 243.556 172.834 243.566 170.601 243.545 168.28 C 241.151 167.782 237.439 167.818 234.768 167.761 C 232.044 167.703 228.1 168.797 225.131 169.206 C 224.746 171.524 224.305 174.006 223.821 176.577 C 224.55 176.306 225.281 176.08 225.974 175.927 Z M 229.115 148.917 C 228.463 148.924 227.826 148.99 227.213 149.084 C 227.186 152.075 226.975 155.278 226.582 158.918 C 230.799 157.027 238.189 154.588 243.156 152.638 C 243.113 151.4 243.066 150.127 243.014 148.83 C 238.405 148.653 232.003 148.885 229.115 148.917 Z M 242.877 145.628 C 242.665 141.001 242.386 136.181 242.009 131.605 C 238.954 134.342 230.685 138.945 226.914 142.129 C 227.032 143.33 227.115 144.536 227.164 145.766 C 230.606 146.284 237.489 145.833 242.877 145.628 Z M 146.652 107.776 C 147.627 107.533 150.268 107.847 150.735 108.718 C 151.235 109.651 150.082 112.577 149.165 113.429 C 148.395 114.144 146.712 114.558 146.024 114.057 C 145.214 113.469 144.804 110.422 145.082 109.346 C 145.286 108.556 145.896 107.964 146.652 107.776 Z M 315.48 121.634 C 316.175 121.216 318.569 120.898 319.248 121.634 C 320.047 122.5 319.946 126.316 319.248 127.288 C 318.715 128.031 317.132 128.365 316.422 127.916 C 315.541 127.359 314.862 124.311 314.851 123.205 C 314.844 122.485 314.975 121.938 315.48 121.634 Z" style="fill: rgb(255, 255, 255); fill-opacity: 1; fill-rule: nonzero; stroke: none; stroke-dasharray: none; stroke-dashoffset: 0px; stroke-linecap: butt; stroke-linejoin: miter; stroke-miterlimit: 4; stroke-opacity: 1; stroke-width: 1px; paint-order: normal; vector-effect: none; opacity: 1; mix-blend-mode: normal; isolation: auto;"/>
</svg>