<?xml version="1.0" encoding="utf-8"?>
<svg viewBox="0 0 500 500" xmlns="http://www.w3.org/2000/svg">
  <path d="M 64.066 62.277 L 378.891 62.277 L 378.891 371.664 L 64.066 371.664 Z" style="fill: rgb(196, 193, 193);"/>
  <path fill="rgb(255,0,0)" stroke="rgb(255,0,0)" stroke-width="0" opacity="0.9529411764705882" d="M 210.922 128.493 C 217.334 127.932 226.454 127.488 233.076 129.984 C 239.796 132.517 245.54 138.836 250.878 143.761 C 256.054 148.536 258.775 154.343 264.724 159.028 C 269.95 163.143 281.139 167.177 286.948 170.602 C 289.258 168.31 292.292 164.813 293.771 161.219 C 295.7 156.532 297.926 145.883 296.144 144.463 C 294.692 143.303 288.977 147.101 286.65 149.304 C 284.451 151.385 284.222 156.319 282.299 157.123 C 280.662 157.806 277.249 157.423 276.365 155.261 C 274.657 151.083 284.122 127.235 283.485 125.471 C 283.312 124.991 282.966 125.474 282.299 125.843 C 280.567 126.802 274.156 130.737 271.617 133.664 C 269.359 136.266 268.842 140.879 267.266 142.228 C 266.262 143.088 265.082 143.15 264.1 142.973 C 263.102 142.793 261.931 142.047 261.331 141.11 C 260.641 140.037 260.282 138.585 260.541 136.643 C 260.93 133.706 264.527 128.591 265.287 124.726 C 265.989 121.159 265.513 116.887 265.287 114.299 C 265.131 112.508 265.564 110.465 264.496 110.203 C 262.889 109.811 257.349 113.823 254.21 116.534 C 250.843 119.442 247.187 125.807 245.112 127.333 C 244.087 128.086 243.568 128.064 242.737 128.078 C 241.859 128.092 240.599 128.18 239.968 127.333 C 238.968 125.989 239.155 122.258 239.177 118.769 C 239.207 114.163 241.486 102.824 240.759 101.639 C 240.51 101.233 240.158 101.707 239.573 102.011 C 238.381 102.631 235.607 103.891 233.638 106.108 C 230.852 109.243 227.845 118.614 225.331 120.63 C 223.934 121.751 222.603 121.654 221.374 121.375 C 220.089 121.083 218.597 120.521 217.814 118.769 C 216.431 115.68 219.016 102.369 217.418 101.267 C 216.355 100.532 214.135 103.092 212.275 105.362 C 209.341 108.944 205.631 121.267 202.385 122.864 C 200.388 123.847 198.092 122.773 196.45 121.003 C 193.959 118.315 193.362 105.637 191.307 104.99 C 189.781 104.509 187.716 108.135 186.165 111.321 C 183.809 116.161 183.102 131.266 180.231 133.291 C 178.557 134.472 176.013 132.814 174.296 131.429 C 172.188 129.728 171.083 123.39 169.153 122.864 C 167.582 122.437 165.11 124.098 164.01 126.216 C 162.353 129.407 163.038 137.556 163.22 142.601 C 163.383 147.161 165.005 153.018 164.802 155.261 C 164.704 156.333 164.69 156.684 164.01 157.123 C 162.984 157.787 159.711 158.265 158.077 157.868 C 156.615 157.513 155.748 156.523 154.515 155.261 C 152.883 153.591 150.559 147.768 149.373 148.186 C 147.934 148.692 146.985 156.705 147.395 161.964 C 147.671 165.495 149.647 170.772 151.321 175.42 C 157.191 168.438 166.661 151.842 174.525 144.879 C 181.654 138.566 190.096 134.955 196.679 132.217 C 201.938 130.03 205.473 128.971 210.922 128.493 Z M 275.011 181.372 C 267.129 184.35 253.82 194.589 242.041 200.438 C 240.805 207.547 233.537 221.835 230.953 234.488 C 227.047 253.594 223.906 284.691 222.249 304.494 C 220.915 320.438 222.448 339.557 220.666 345.456 C 219.947 347.837 219.2 348.466 217.898 348.806 C 216.413 349.195 213.642 348.109 211.963 346.946 C 210.171 345.702 209.833 342.464 207.612 341.36 C 205.047 340.085 199.708 340.185 196.723 340.589 C 196.561 341.301 196.396 341.932 196.228 342.468 C 195.41 345.094 194.819 346.132 193.459 346.564 C 191.99 347.032 188.616 345.867 187.524 344.702 C 186.542 343.654 186.697 342.809 186.733 340.234 C 186.816 334.48 190.677 318.2 191.481 306.72 C 192.309 294.884 192.233 282.663 191.481 270.227 C 190.703 257.362 189.211 241.834 186.733 230.755 C 184.983 222.928 180.525 213.922 179.196 209.457 C 172.619 207.715 165.794 203.537 160.283 199.99 C 154.945 196.552 149.219 192.027 146.436 188.446 C 144.564 186.036 142.935 183.363 143.164 181.485 C 141.685 178.044 140.235 173.349 139.483 169.412 C 138.338 163.419 137.418 155.084 138.691 150.048 C 139.701 146.053 141.981 142.351 144.626 140.738 C 146.993 139.296 151.826 139.886 153.328 139.993 C 154.02 140.043 154.229 140.739 154.515 140.366 C 155.275 139.379 153.393 130.86 154.515 126.961 C 155.547 123.377 157.478 119.702 160.45 117.651 C 163.572 115.497 170.556 114.368 173.109 114.672 C 174.6 114.851 174.747 117.047 175.879 116.534 C 178.256 115.456 181.84 101.236 185.769 98.288 C 188.604 96.16 193.366 96.681 195.263 96.798 C 196.303 96.863 196.536 96.857 197.242 97.543 C 198.537 98.801 199.572 105.618 201.594 105.735 C 203.969 105.873 208.238 97.365 211.089 95.308 C 213.089 93.865 214.519 93.222 216.627 93.075 C 219.05 92.905 223.234 93.451 224.935 94.936 C 226.506 96.309 226.067 101.027 226.913 101.267 C 227.586 101.458 228.437 99.053 229.286 98.288 C 230.032 97.617 230.345 97.355 231.66 96.798 C 234.091 95.767 241.55 92.752 244.319 93.075 C 246.118 93.284 246.991 94.049 247.88 95.681 C 249.309 98.304 249.44 108.961 249.858 109.458 C 250.032 109.665 249.677 108.585 250.254 107.969 C 251.554 106.585 257.49 102.934 260.936 102.011 C 263.923 101.21 267.476 100.173 269.639 102.011 C 272.676 104.592 270.946 118.591 274.385 120.63 C 277.285 122.349 284.277 116.584 287.046 116.907 C 288.844 117.116 289.745 117.818 290.607 119.513 C 292.061 122.374 292.325 133.013 292.189 135.152 C 292.14 135.912 291.431 135.932 291.794 136.27 C 292.677 137.095 301.004 135.705 303.265 138.132 C 305.878 140.935 305.406 148.754 304.849 153.772 C 304.303 158.675 302.834 163.448 300.101 167.922 C 297.119 172.804 290.97 180.356 287.046 181.699 C 284.62 182.531 281.174 181.469 279.888 180.264 C 278.381 180.417 276.744 180.716 275.011 181.372 Z M 200.636 209.672 C 196.798 210.051 193.437 210.418 190.248 210.532 C 191.742 214.188 193.144 219.587 194.394 225.614 C 194.819 225.154 195.308 224.793 195.82 224.66 C 197.305 224.271 201.05 225.22 201.755 226.522 C 202.491 227.885 201.177 232.032 199.776 232.853 C 198.933 233.346 197.182 233.145 195.747 232.684 C 196.901 239.175 197.874 245.882 198.602 251.608 C 199.702 260.256 200.239 269.947 200.425 279.495 C 200.503 279.398 200.59 279.304 200.692 279.21 C 201.401 278.55 202.971 277.861 204.251 277.721 C 205.599 277.574 207.724 277.558 208.604 278.466 C 209.595 279.489 210.255 282.697 209.394 284.051 C 208.465 285.514 204.188 286.58 202.669 286.658 C 201.74 286.706 201.156 286.524 200.692 285.913 C 200.622 285.822 200.558 285.712 200.499 285.585 C 200.533 292.505 200.4 299.21 200.184 305.231 C 199.858 314.341 199.05 325.024 198.006 332.954 C 201.042 332.572 204.168 332.359 206.029 332.423 C 208.664 332.512 210.181 336.137 211.963 333.912 C 212.627 333.081 213.249 331.289 213.831 328.741 C 212.711 329.088 211.367 329.138 210.579 328.693 C 209.144 327.884 207.609 323.758 207.809 322.362 C 207.945 321.41 208.762 320.691 209.787 320.501 C 210.862 320.3 213.461 320.678 215.139 321.403 C 216.026 315.302 216.817 307.503 217.542 298.996 C 215.939 299.025 213.199 297.753 212.316 296.994 C 211.598 296.378 211.35 295.566 211.524 294.761 C 211.745 293.741 212.991 291.749 214.293 291.408 C 215.149 291.184 216.773 291.425 218.118 291.907 C 218.779 283.484 219.385 274.66 219.963 266.293 C 219.758 267.869 218.887 269.87 217.909 270.407 C 216.59 271.133 213.071 270.321 211.975 269.29 C 210.976 268.349 210.622 265.993 211.184 264.822 C 211.763 263.617 214.084 262.215 215.536 262.215 C 216.986 262.215 219.428 263.542 219.887 264.822 C 219.969 265.048 220.007 265.331 220.007 265.648 C 221.056 250.444 222.016 236.834 223.041 230.019 C 223.924 224.135 224.372 220.743 225.041 217.764 C 224.844 217.768 224.649 217.759 224.459 217.734 C 223.29 217.578 221.616 216.735 220.899 215.871 C 220.241 215.082 219.869 213.881 220.106 212.892 C 220.379 211.769 221.556 210.027 222.877 209.541 C 223.991 209.131 226.18 209.232 227.656 209.707 C 228.243 208.228 228.914 206.628 229.632 205.049 C 219.528 207.785 208.864 208.861 200.636 209.672 Z M 182.042 150.092 C 171.921 158.143 156.308 180.472 155.14 184.35 C 154.821 185.411 155.052 185.067 155.932 185.84 C 158.718 188.287 174.529 199.138 182.832 201.48 C 183.03 201.535 183.226 201.589 183.421 201.639 C 180.125 198.3 177.584 192.512 176.41 187.6 C 175.224 182.636 175.527 177.525 176.41 171.96 C 177.403 165.702 179.566 157.186 182.74 151.852 C 183.859 149.971 185.075 148.396 186.429 146.963 C 184.907 147.941 183.435 148.984 182.042 150.092 Z M 232.681 195.522 C 245.197 190.951 270.929 178.963 272.241 173.924 C 273.022 170.923 266.056 170.561 261.955 167.221 C 255.992 162.363 242.866 149.425 239.801 145.623 C 238.529 144.045 239.343 143.721 238.219 142.644 C 237.872 142.312 237.436 141.93 236.93 141.524 C 237.825 144.804 238.47 148.514 238.918 151.852 C 239.79 158.361 239.749 166.023 238.918 172.705 C 238.112 179.162 236.839 186.14 234.17 191.323 C 233.315 192.984 232.278 194.579 231.134 196.066 C 231.651 195.891 232.166 195.709 232.681 195.522 Z M 215.972 138.074 C 211.318 138.694 205.26 143.155 200.938 146.266 C 196.912 149.164 193.256 151.944 190.653 155.948 C 187.849 160.259 186.027 166.318 185.114 171.587 C 184.22 176.748 184.201 183.017 185.114 187.227 C 185.846 190.603 187.125 193.416 189.07 195.42 C 190.893 197.299 192.79 198.599 196.191 199.144 C 201.278 199.958 213.221 199.344 218.345 196.909 C 222.393 194.985 224.304 191.584 226.258 187.973 C 228.398 184.014 229.503 179.204 230.214 173.822 C 231.045 167.532 230.976 158.065 230.214 152.224 C 229.621 147.676 229.488 143.406 227.048 141.052 C 224.67 138.758 219.921 137.547 215.972 138.074 Z M 208.44 150.829 C 210.393 150.826 216.298 150.906 218.33 153.435 C 220.932 156.672 220.833 165.392 219.913 171.308 C 218.959 177.435 216.113 186.168 212.396 189.555 C 209.459 192.23 204.313 192.843 201.318 192.534 C 198.876 192.282 196.566 191.097 195.384 189.183 C 193.957 186.871 193.71 183.233 194.593 178.756 C 195.928 171.985 204.016 154.421 206.461 151.572 C 207.297 150.6 207.398 150.829 208.44 150.829 Z M 211.929 217.05 C 213.397 216.583 217.203 217.671 217.864 218.912 C 218.522 220.154 216.83 223.523 215.884 224.497 C 215.23 225.172 214.342 225.228 213.512 225.242 C 212.634 225.256 211.451 225.094 210.742 224.497 C 209.942 223.824 209.048 222.311 209.159 221.145 C 209.284 219.842 210.57 217.482 211.929 217.05 Z M 210.288 237.85 C 211.773 237.463 215.562 238.471 216.222 239.712 C 216.881 240.953 215.188 244.325 214.244 245.298 C 213.59 245.973 212.753 246.098 211.87 246.043 C 210.815 245.978 209.032 245.379 208.31 244.553 C 207.606 243.748 207.25 242.276 207.519 241.202 C 207.811 240.033 208.986 238.191 210.288 237.85 Z M 205.273 252.113 C 206.776 251.822 210.503 252.674 211.205 253.976 C 211.942 255.34 210.627 259.486 209.228 260.307 C 207.908 261.081 204.389 260.221 203.293 259.189 C 202.294 258.248 202.106 255.926 202.502 254.72 C 202.866 253.611 204.023 252.356 205.273 252.113 Z M 204.906 305.815 C 206.193 305.043 209.061 305.629 210.049 306.559 C 211.038 307.491 211.216 310.009 210.841 311.4 C 210.487 312.716 209.375 314.412 208.072 314.752 C 206.587 315.14 202.778 314.231 202.137 312.89 C 201.431 311.409 203.378 306.733 204.906 305.815 Z M 199.755 210.963 C 201.093 210.519 204.612 211.121 205.689 212.081 C 206.605 212.897 206.718 214.725 206.48 215.804 C 206.258 216.814 205.566 218.058 204.502 218.411 C 203.164 218.856 199.644 218.254 198.568 217.295 C 197.652 216.478 197.539 214.651 197.777 213.57 C 197.998 212.562 198.692 211.316 199.755 210.963 Z" style="fill: rgb(255, 255, 255); fill-opacity: 1; fill-rule: nonzero; stroke: none; stroke-dasharray: none; stroke-dashoffset: 0px; stroke-linecap: butt; stroke-linejoin: miter; stroke-miterlimit: 4; stroke-opacity: 1; stroke-width: 1px; paint-order: normal; vector-effect: none; opacity: 1; mix-blend-mode: normal; isolation: auto;"/>
</svg>