<?xml version="1.0" encoding="utf-8"?>
<svg viewBox="0 0 500 500" xmlns="http://www.w3.org/2000/svg">
  <path d="M 64.066 62.277 L 378.891 62.277 L 378.891 371.664 L 64.066 371.664 Z" style="fill: rgb(196, 193, 193);"/>
  <path fill="rgb(255,0,0)" stroke="rgb(255,0,0)" stroke-width="0" opacity="0.9647058823529412" d="M 215.91 263.334 C 220.399 256.05 228.226 249.265 234.36 241.8 C 231.689 240.746 228.273 238.789 227.042 237.21 C 225.543 235.289 225.578 232.671 225.786 230.3 C 226.008 227.76 226.933 223.301 228.612 222.449 C 230.173 221.656 233.615 222.742 235.208 224.647 C 236.987 226.775 237.539 233.398 238.052 236.876 C 242.162 230.97 246.248 224.73 249.746 218.371 C 247.219 218.133 242.012 216.594 240.115 214.297 C 238.262 212.055 238.038 207.146 238.231 204.875 C 238.364 203.31 238.598 201.905 239.801 201.421 C 241.573 200.707 247.209 201.41 249.537 203.619 C 251.019 205.025 252.45 208.348 253.299 211.401 C 253.86 210.199 254.393 208.996 254.894 207.793 C 257.063 202.59 258.856 196.882 260.25 191.34 C 257.013 190.824 249.554 187.81 247.429 185.133 C 245.591 182.817 245.737 178.606 246.173 176.653 C 246.481 175.276 247.044 174.237 248.372 173.827 C 250.416 173.194 256.211 173.474 258.736 175.711 C 260.052 176.877 261.316 179.414 262.257 182.054 C 262.573 180.301 262.841 178.612 263.06 177.014 C 263.677 172.51 263.821 168.405 263.668 164.566 C 262.737 164.623 261.496 164.432 260.235 164.157 C 257.181 163.49 249.959 161.66 247.986 159.131 C 246.384 157.077 247.18 152.827 247.358 151.28 C 247.454 150.444 247.62 150.076 247.986 149.709 C 248.353 149.343 248.61 149.011 249.557 149.081 C 251.441 149.221 258.59 151.846 262.078 153.529 C 261.745 152.52 261.369 151.519 261.002 150.554 C 260.056 150.108 259.124 149.255 257.971 148.277 C 254.123 145.014 246.679 134.781 244.152 128.176 C 241.961 122.451 241.244 115.437 242.267 111.217 C 243.059 107.951 245.872 105.505 247.607 103.993 C 248.888 102.876 249.794 102.459 251.375 102.109 C 253.371 101.666 257.132 101.425 258.913 102.109 C 260.296 102.639 261.094 104.124 261.74 104.935 C 262.213 105.529 262.132 106.491 262.682 106.506 C 263.554 106.528 265.193 103.493 267.079 102.737 C 269.246 101.868 273.124 101.464 275.245 102.109 C 277.033 102.653 278.386 103.438 279.328 105.563 C 280.867 109.036 282.342 117.223 280.584 123.78 C 279.025 129.593 273.452 139.595 268.793 145.637 C 269.577 147.604 270.256 150.169 270.801 152.75 C 273.214 149.625 276.11 146.327 277.389 145.18 C 278.502 144.182 278.772 144.018 279.901 143.924 C 281.508 143.79 285.125 143.799 286.497 145.494 C 288.221 147.623 288.482 154.299 287.753 157.429 C 287.158 159.984 285.723 162.259 283.67 163.396 C 281.386 164.661 276.747 164.452 274.248 164.024 C 273.574 163.909 272.939 163.683 272.351 163.412 C 272.551 166.463 272.437 169.49 271.854 173.874 C 271.563 176.066 271.153 178.661 270.64 181.499 C 270.721 181.411 270.835 181.313 271.017 181.195 C 272.472 180.251 278.567 177.029 280.439 176.798 C 281.404 176.679 281.774 177.457 282.323 177.426 C 282.801 177.399 282.998 176.753 283.579 176.798 C 284.517 176.87 286.771 177.838 287.662 178.996 C 288.594 180.207 289.288 182.272 288.919 184.022 C 288.476 186.114 286.625 189.35 284.208 190.617 C 281.384 192.097 275.612 191.993 272.273 191.245 C 271.198 191.004 270.015 190.57 268.919 190.047 C 267.289 197.404 265.159 205.246 262.703 211.51 C 262.782 211.483 262.872 211.459 262.976 211.439 C 264.291 211.18 268.106 210.732 269.885 211.439 C 271.434 212.055 272.386 212.869 273.34 214.894 C 274.943 218.294 278.132 229.599 276.481 232.482 C 275.283 234.573 271.231 234.556 268.629 234.052 C 265.784 233.501 262.169 231.52 260.149 228.713 C 259.139 227.309 258.164 224.995 257.44 222.62 C 253.86 229.113 249.711 235.116 245.472 241.085 C 245.296 241.333 245.117 241.58 244.935 241.826 C 246.845 242.171 249.169 242.907 250.249 244.378 C 252.428 247.349 252.636 257.358 252.133 260.082 C 251.885 261.425 251.461 261.86 250.563 262.28 C 249.355 262.845 246.365 262.859 244.909 262.28 C 243.642 261.777 242.858 261.133 242.083 259.454 C 241.138 257.408 240.052 251.971 239.656 248.054 C 234.088 254.009 227.86 259.51 224.115 266.21 C 220.545 272.598 218.82 282.875 217.02 289.572 C 217.704 288.456 218.344 287.533 218.842 286.992 C 220.126 285.596 221.187 285.303 222.61 285.108 C 224.185 284.892 226.721 284.604 227.95 286.05 C 229.71 288.123 230.45 295.658 229.834 299.241 C 229.325 302.206 228.048 304.754 225.751 306.465 C 223.059 308.47 215.853 309.599 213.817 309.606 C 213.659 309.606 213.514 309.601 213.381 309.589 C 213.372 314.721 213.388 319.601 213.336 323.948 C 213.54 323.686 213.747 323.439 213.954 323.211 C 216.442 320.474 222.524 318.398 223.376 317.244 C 223.693 316.814 223.129 316.496 223.376 316.302 C 223.776 315.987 226.004 315.8 226.517 316.302 C 227.008 316.783 226.786 318.285 226.517 319.128 C 226.253 319.956 225.926 320.42 224.946 321.327 C 223.182 322.96 217.474 325.175 215.21 327.922 C 214.114 329.253 213.544 331.343 213.039 333.21 C 212.927 334.927 212.778 336.44 212.578 337.708 C 211.877 342.158 210.937 344.346 209.751 345.56 C 209.009 346.32 208.131 346.351 207.239 346.188 C 206.167 345.992 204.444 344.871 203.784 343.989 C 203.234 343.255 203.255 343.627 203.156 341.477 C 203.091 340.078 203.121 337.351 203.224 333.639 C 201.475 330.689 199.597 325.897 197.934 324.016 C 196.31 322.179 194.323 322.04 193.223 320.561 C 192.136 319.101 190.896 315.798 191.338 315.222 C 191.694 314.759 193.133 315.394 194.479 316.164 C 196.662 317.414 201.086 320.573 203.576 323.606 C 203.764 318.922 204.002 313.609 204.272 307.946 C 203.387 307.858 202.517 307.693 201.771 307.481 C 198.602 306.581 193.985 303.561 192.035 300.257 C 190.01 296.826 190.075 289.513 190.151 287.066 C 190.188 285.857 190.064 285.266 190.779 284.868 C 191.914 284.235 195.821 284.627 198.003 285.496 C 200.226 286.381 202.245 287.653 203.97 290.207 C 204.302 290.698 204.675 291.318 205.067 292.029 C 205.112 291.164 205.157 290.297 205.203 289.429 C 204.685 289.146 204.188 288.76 203.745 288.247 C 200.254 284.204 200.406 270.954 194.951 258.724 C 194.31 257.286 193.555 255.742 192.705 254.109 C 190.849 258.095 188.392 262.621 186.684 264.119 C 184.994 265.601 183.119 265.597 181.659 265.376 C 180.329 265.174 178.685 264.619 178.204 263.177 C 177.468 260.968 179.539 253.418 180.716 251.556 C 181.351 250.554 181.804 250.833 182.915 250.3 C 184.121 249.721 187.057 248.791 189.295 247.92 C 186.295 242.711 182.703 236.946 178.967 231.042 C 177.49 235.178 174.301 241.092 171.927 242.549 C 169.599 243.977 165.416 243.133 164.076 241.921 C 162.925 240.88 162.871 238.841 163.447 236.582 C 164.349 233.045 169.424 223.633 171.927 222.449 C 172.38 222.235 172.916 222.232 173.448 222.353 C 170.868 218.29 168.321 214.257 165.95 210.386 C 165.067 213.429 163.36 217.758 161.543 219.217 C 159.359 220.971 154.894 220.542 153.064 220.473 C 151.985 220.433 151.359 220.517 150.865 219.845 C 150.139 218.857 149.595 216.112 150.237 213.878 C 151.101 210.868 155.227 205.641 157.461 203.514 C 158.517 202.507 159.622 201.758 160.596 201.347 C 158.121 196.974 156.096 193.019 154.793 189.737 C 152.764 191.857 146.018 195.858 143.048 196.307 C 140.66 196.668 138.159 195.702 137.08 194.423 C 136.065 193.219 136.043 190.975 136.452 189.083 C 136.938 186.834 139.216 183.199 140.535 181.86 C 141.39 180.992 141.839 180.857 143.048 180.604 C 144.899 180.215 149.195 179.932 151.213 180.604 C 151.445 180.681 151.679 180.776 151.91 180.885 C 150.438 175.037 150.145 170.255 150.32 166.385 C 148.333 167.251 144.939 167.712 142.65 167.604 C 139.928 167.476 136.232 166.946 134.798 165.091 C 133.305 163.159 133.673 158.18 134.17 155.983 C 134.531 154.39 134.721 152.998 136.369 152.529 C 138.756 151.849 147.781 153.766 152.358 155.543 C 150.412 152.353 147.825 147.988 146.8 144.408 C 145.331 139.273 144.778 132.233 145.544 128.076 C 146.123 124.932 147.573 122.481 149.312 120.852 C 150.899 119.367 153.134 118.406 155.28 118.34 C 157.608 118.268 159.915 120.642 162.817 120.852 C 166.25 121.101 171.938 117.79 174.752 118.968 C 177.211 119.997 178.591 123.068 179.463 126.191 C 180.554 130.097 180.705 136.906 179.463 141.267 C 178.319 145.285 175.649 148.619 172.868 151.631 C 170.023 154.712 164.059 157.875 162.503 159.483 C 161.793 160.217 162.17 160.685 161.561 161.053 C 161.455 161.117 161.324 161.177 161.174 161.232 C 160.726 164.556 158.528 169.511 159.147 173.925 C 159.277 174.857 159.452 175.788 159.667 176.725 C 161.834 172.492 165.142 167.025 166.743 165.455 C 167.956 164.264 168.736 164.323 169.883 164.198 C 171.126 164.063 173.037 163.685 173.966 164.826 C 175.376 166.557 175.979 173.491 175.223 176.447 C 174.616 178.816 173.348 180.241 171.14 181.786 C 169.435 182.979 165.889 184.63 162.764 185.727 C 164.157 188.95 165.886 192.45 167.891 196.445 C 169.609 191.758 171.903 186.624 173.431 184.92 C 175.042 183.121 176.969 183.006 178.456 183.035 C 179.75 183.061 181.187 183.485 181.91 184.606 C 182.864 186.082 183.223 189.579 182.539 192.143 C 181.746 195.11 179.171 198.994 176.571 201.251 C 175.396 202.272 173.676 203.245 171.992 204.017 C 174.433 208.183 177.4 212.854 180.546 217.73 C 182.043 214.545 185.9 209.862 187.381 208.315 C 188.204 207.456 188.378 207.213 189.265 207.059 C 190.523 206.841 193.525 206.65 194.604 208.001 C 196.02 209.775 196.007 216.124 195.232 218.68 C 194.646 220.617 193.536 221.645 191.778 222.763 C 190.393 223.643 187.704 224.582 185.382 225.201 C 192.103 235.591 198.841 246.203 202.488 254.327 C 203.965 257.618 205.345 261.083 206.569 264.49 C 207.179 253.792 207.755 244.283 208.181 237.834 C 208.966 225.934 209.463 215.102 210.286 208.039 C 210.252 208 210.217 207.957 210.181 207.911 C 208.456 205.73 204.218 195.083 202.643 188.125 C 201.024 180.971 199.583 170.511 200.759 165.512 C 201.537 162.199 203.949 160.174 205.47 158.916 C 206.541 158.03 207.306 157.895 208.61 157.66 C 210.281 157.359 213.211 157.083 214.892 157.66 C 216.358 158.163 217.561 159.321 218.347 160.486 C 219.119 161.632 218.325 163.973 219.603 164.569 C 221.528 165.467 228.991 161.745 231.223 162.057 C 232.458 162.229 232.797 162.4 233.422 163.627 C 234.731 166.196 237.5 174.337 235.935 180.587 C 234.268 187.239 226.198 199.129 220.788 205.024 C 221.469 216.176 218.237 241.657 215.91 263.334 Z M 271.854 158.798 C 271.938 159.404 272.014 159.988 272.082 160.558 C 273.341 160.865 275.233 160.818 276.447 160.883 C 278.324 160.985 280.721 161.075 282.1 160.255 C 283.359 159.507 284.251 158.012 284.612 156.486 C 285.025 154.744 284.763 151.704 283.984 150.205 C 283.334 148.953 282.222 147.372 280.844 147.692 C 278.998 148.122 273.734 153.924 271.649 157.402 C 271.723 157.883 271.792 158.35 271.854 158.798 Z M 169.413 127.134 C 168.8 127.048 168.055 127.044 167.529 127.762 C 166.54 129.11 166.587 135.577 165.644 137.184 C 165.115 138.085 164.601 138.272 163.76 138.44 C 162.659 138.66 160.551 138.758 159.363 137.812 C 157.89 136.64 156.997 132.709 156.222 130.903 C 155.661 129.595 155.384 127.762 154.966 127.762 C 154.547 127.762 153.87 129.37 153.709 130.903 C 153.448 133.391 153.836 138.882 154.966 142.209 C 156.021 145.316 158.275 149.743 159.991 150.375 C 161.226 150.83 162.574 149.429 163.76 148.49 C 165.107 147.425 166.475 145.052 167.529 144.093 C 168.252 143.435 168.891 143.858 169.413 142.837 C 170.512 140.689 171.992 130.538 171.297 128.39 C 170.968 127.37 170.058 127.224 169.413 127.134 Z M 211.437 165.826 C 210.796 165.254 209.971 166.035 209.553 166.454 C 209.134 166.873 209.032 167.28 208.924 168.338 C 208.705 170.508 208.687 175.962 209.553 180.273 C 210.556 185.27 212.425 196.272 215.206 196.605 C 218.167 196.958 225.453 185.037 227.141 180.273 C 228.384 176.763 228.029 171.169 227.141 170.851 C 226.287 170.544 222.864 175.585 222.115 177.76 C 221.51 179.519 222.966 181.636 222.115 182.785 C 221.205 184.016 218.024 185.782 216.462 184.67 C 213.953 182.882 213.034 167.251 211.437 165.826 Z M 254.202 110.274 C 253.801 110.202 253.417 110.504 252.946 110.903 C 252.229 111.51 250.81 112.478 250.433 114.043 C 249.888 116.308 250.433 120.525 251.69 124.094 C 253.2 128.384 257.828 135.82 259.855 137.913 C 260.865 138.955 261.317 139.711 262.368 139.169 C 264.683 137.974 270.976 126.63 272.418 121.581 C 273.507 117.766 273.207 112.944 272.418 111.531 C 272.006 110.792 271.153 110.427 270.534 110.903 C 269.24 111.895 268.755 120.656 266.765 122.837 C 265.286 124.458 262.765 125.631 261.112 124.722 C 258.761 123.43 256.702 113.534 255.458 111.531 C 254.919 110.662 254.642 110.354 254.202 110.274 Z M 137.939 155.669 C 136.394 156.474 136.207 160.271 137.311 161.637 C 138.696 163.351 144.992 164.006 147.675 163.835 C 148.805 163.763 149.984 163.031 150.896 162.486 C 151.161 161.521 151.5 160.64 151.869 159.864 C 147.775 158.753 139.829 154.685 137.939 155.669 Z M 153.098 185.629 C 151.537 186.089 146.865 183.623 144.932 183.744 C 143.634 183.826 142.842 184.07 142.105 185.001 C 141.075 186.302 139.462 190.7 140.221 191.91 C 140.898 192.989 143.989 193.164 145.56 192.538 C 147.274 191.856 148.351 188.416 149.957 187.513 C 151.038 186.905 152.621 186.593 153.664 186.706 C 153.53 186.322 153.4 185.942 153.276 185.566 C 153.218 185.59 153.158 185.611 153.098 185.629 Z M 155.89 210.109 C 154.561 211.957 153.46 215.245 154.006 216.39 C 154.434 217.289 156.279 218.002 157.461 217.333 C 159.276 216.304 161.575 208.123 163.236 205.892 C 163.084 205.636 162.934 205.381 162.784 205.128 C 161.221 206.608 157.284 208.17 155.89 210.109 Z M 174.44 226.217 C 173.694 226.878 172.524 226.624 171.613 227.788 C 170.054 229.782 166.594 238.394 167.216 239.408 C 167.615 240.059 169.711 239.162 170.985 237.838 C 172.566 236.196 174.53 229.904 176.093 226.513 C 175.847 226.126 175.6 225.739 175.354 225.352 C 175.058 225.667 174.717 225.972 174.44 226.217 Z M 189.51 250.3 C 188.896 250.292 187.478 251.135 186.37 252.185 C 184.815 253.658 181.339 257.444 181.345 259.094 C 181.349 260.256 182.856 261.901 183.857 261.607 C 185.507 261.122 190.043 252.294 190.139 250.928 C 190.172 250.452 189.859 250.305 189.51 250.3 Z M 191.464 210.2 C 190.207 210.044 184.508 218.94 183.926 220.25 C 183.75 220.645 183.785 220.841 183.926 220.878 C 184.161 220.94 185.165 219.713 185.81 219.622 C 186.423 219.536 187.007 220.229 187.695 220.25 C 188.459 220.273 189.493 220.103 190.207 219.622 C 190.979 219.102 191.792 218.301 192.092 217.109 C 192.502 215.473 192.454 210.323 191.464 210.2 Z M 178.142 186.804 C 177.83 186.533 177.422 186.808 176.885 187.432 C 175.537 189.001 170.651 198.478 170.604 199.995 C 170.588 200.498 170.858 200.648 171.232 200.623 C 172.001 200.571 174.373 198.739 175.629 197.482 C 176.885 196.226 178.325 194.794 178.77 193.085 C 179.243 191.267 178.709 187.299 178.142 186.804 Z M 170.198 167.967 C 169.797 167.895 169.519 167.984 168.941 168.595 C 167.466 170.158 161.862 178.896 161.404 181.158 C 161.322 181.564 161.303 181.931 161.351 182.231 C 161.415 182.402 161.48 182.574 161.545 182.746 C 161.661 182.906 161.823 183.01 162.032 183.043 C 163.234 183.23 168.537 179.469 170.198 178.017 C 171.26 177.088 171.793 176.664 172.082 175.505 C 172.465 173.973 171.967 170.444 171.454 169.223 C 171.145 168.488 170.638 168.046 170.198 167.967 Z M 250.499 152.85 C 249.698 153.235 250.639 156.036 252.069 157.247 C 253.84 158.747 260.207 159.208 263.365 160.211 C 263.332 159.877 263.297 159.544 263.261 159.214 C 259.252 157.486 251.582 152.329 250.499 152.85 Z M 251.198 176.967 C 250.262 177.008 249.546 178.058 249.314 178.852 C 249.064 179.706 249.059 180.915 249.942 181.992 C 251.416 183.791 259.014 188.29 259.992 187.646 C 260.809 187.107 258.947 182.516 257.48 180.736 C 256.014 178.958 252.601 176.906 251.198 176.967 Z M 241.999 204.561 C 241.12 205.576 242.522 211.775 243.884 213.355 C 244.923 214.561 247.04 214.427 248.281 214.611 C 249.257 214.757 250.537 215.246 250.793 214.611 C 251.231 213.529 248.777 207.405 247.025 205.818 C 245.653 204.576 242.705 203.747 241.999 204.561 Z M 230.183 226.217 C 229.785 226.346 229.641 227.162 229.554 228.102 C 229.406 229.706 229.157 233.953 230.183 235.639 C 231.056 237.076 233.812 237.593 234.579 238.152 C 234.962 238.431 235.151 238.978 235.208 238.78 C 235.366 238.224 233.223 229.292 232.067 227.474 C 231.468 226.532 230.602 226.082 230.183 226.217 Z M 279.496 180.567 C 276.957 181.139 270.435 185.602 270.702 186.848 C 270.957 188.032 277.595 188.607 280.125 188.104 C 282.218 187.689 284.565 186.175 285.15 184.964 C 285.607 184.017 285.261 182.553 284.522 181.823 C 283.625 180.938 281.389 180.141 279.496 180.567 Z M 265.174 214.58 C 263.658 214.524 261.424 215.053 260.777 216.464 C 259.901 218.376 260.668 224.214 262.662 226.514 C 264.739 228.91 271.966 231.604 273.34 230.283 C 274.817 228.863 272.031 219.607 270.199 217.092 C 268.912 215.324 266.792 214.639 265.174 214.58 Z M 243.339 245.321 C 242.361 246.762 244.5 256.745 245.852 258.512 C 246.551 259.426 247.846 259.348 248.364 259.14 C 248.77 258.977 248.924 258.678 248.992 257.883 C 249.154 256.005 248.572 247.691 247.108 245.949 C 246.184 244.849 243.931 244.449 243.339 245.321 Z M 225.437 301.754 C 227.339 299.437 227.072 294.714 226.693 292.332 C 226.409 290.544 225.633 288.415 224.495 288.249 C 223.108 288.045 220.042 290.99 218.528 292.96 C 216.992 294.957 216.383 299.087 215.387 300.183 C 214.849 300.776 214.34 300.812 213.817 300.812 C 213.705 300.812 213.573 300.815 213.434 300.813 C 213.412 302.66 213.399 304.497 213.391 306.31 C 215.539 304.852 223.347 304.302 225.437 301.754 Z M 194.548 288.008 C 193.861 287.985 193.484 288.476 193.292 289.265 C 192.936 290.722 192.93 295.141 194.548 297.43 C 196.193 299.759 202.213 303.408 204.473 303.789 C 204.535 302.539 204.597 301.275 204.661 300.002 C 203.704 297.34 202.033 293.983 200.829 292.405 C 199.132 290.18 195.78 288.05 194.548 288.008 Z" style="fill: rgb(255, 255, 255); fill-opacity: 1; fill-rule: nonzero; stroke: none; stroke-dasharray: none; stroke-dashoffset: 0px; stroke-linecap: butt; stroke-linejoin: miter; stroke-miterlimit: 4; stroke-opacity: 1; stroke-width: 1px; paint-order: normal; vector-effect: none; opacity: 1; mix-blend-mode: normal; isolation: auto;"/>
</svg>