<?xml version="1.0" encoding="utf-8"?>
<svg viewBox="0 0 500 500" xmlns="http://www.w3.org/2000/svg">
  <path d="M 64.066 62.277 L 378.891 62.277 L 378.891 371.664 L 64.066 371.664 Z" style="fill: rgb(196, 193, 193);"/>
  <path fill="rgb(255,0,0)" stroke="rgb(255,0,0)" stroke-width="0" opacity="0.9607843137254902" d="M 228.642 123.802 C 229.111 123.944 229.577 124.095 230.039 124.254 C 229.817 123.245 229.512 122.324 229.076 121.563 C 226.884 117.732 220.512 113.077 218.717 112.585 C 217.968 112.379 217.974 112.573 217.336 113.275 C 216.455 114.246 214.916 117.698 213.212 121.194 C 218.681 121.454 224.225 122.464 228.642 123.802 Z M 244.871 133.125 C 248.326 136.487 250.376 140.382 251.777 144.865 C 252.239 146.344 252.597 147.909 252.857 149.539 C 254.579 148.779 256.601 148.189 257.391 146.425 C 259.045 142.731 257.628 133.124 256.701 129.159 C 256.086 126.532 255.499 124.214 253.938 123.634 C 252.2 122.99 248.616 124.626 246.341 126.397 C 245.047 127.405 243.851 129.327 242.732 131.228 C 243.497 131.849 244.212 132.483 244.871 133.125 Z M 247.634 182.849 C 247.277 183.617 246.881 184.407 246.454 185.21 C 247.223 186.068 246.883 187.885 247.723 188.552 C 248.644 189.283 250.827 189.718 251.866 189.242 C 252.888 188.774 253.516 187.52 253.938 185.789 C 254.6 183.073 254.668 177.584 253.938 173.358 C 253.651 171.696 252.973 169.922 252.212 168.146 C 251.269 173.1 249.749 178.305 247.634 182.849 Z M 234.167 201.84 C 233.477 202.443 232.862 202.919 232.273 203.306 C 232.241 203.375 232.209 203.439 232.176 203.497 C 231.705 204.332 230.966 204.478 230.278 204.335 C 229.76 204.534 229.221 204.696 228.627 204.845 C 229.875 209.45 231.045 215.044 232.529 216.176 C 233.828 217.166 235.65 216.309 236.673 215.485 C 237.792 214.584 238.434 212.988 238.745 210.651 C 239.109 207.916 238.189 202.542 237.678 198.174 C 236.425 199.655 235.225 200.916 234.167 201.84 Z M 208.614 205.293 C 206.047 204.889 203.012 204.226 199.862 203.404 C 199.403 203.605 198.896 203.415 198.49 203.038 C 197.618 202.8 196.741 202.552 195.866 202.294 C 195.555 205.836 195.178 209.478 195.927 210.651 C 196.666 211.809 197.861 211.27 199.38 211.342 C 201.592 211.447 205.577 212.113 208.358 210.651 C 209.959 209.81 211.514 207.854 212.988 205.815 C 211.542 205.695 210.076 205.523 208.614 205.293 Z M 171.667 189.064 C 169.755 186.669 168.913 185.108 168.214 181.467 C 168.13 181.028 168.052 180.549 167.981 180.035 C 167.935 179.847 167.909 179.656 167.908 179.472 C 167.851 179.012 167.8 178.529 167.753 178.025 C 167.51 183.264 168.93 191.608 170.375 194.076 C 171.398 195.827 172.366 196.036 174.518 196.148 C 175.492 196.199 176.973 195.847 178.693 195.312 C 175.626 193.367 173.413 191.251 171.667 189.064 Z M 168.214 156.606 C 169.091 150.687 170.736 145.629 173.048 141.412 C 173.294 140.963 173.538 140.531 173.784 140.112 C 170.53 137.991 166.964 135.645 165.54 136.756 C 162.61 139.043 163.755 156.9 166.231 160.927 C 166.582 161.498 167.077 161.895 167.651 162.179 C 167.784 160.145 167.972 158.24 168.214 156.606 Z M 177.192 160.404 C 176.996 161.656 176.861 163.034 176.785 164.478 C 178.558 164.386 180.948 164.378 183.746 164.425 C 184.073 161.188 184.422 157.963 184.773 154.895 C 182.102 154.741 179.934 154.663 178.438 154.691 C 177.899 156.602 177.485 158.53 177.192 160.404 Z M 179.263 183.194 C 180.061 184.73 180.949 185.536 182.084 186.171 C 182.168 183.784 182.324 181.076 182.533 178.182 C 180.77 178.284 179.143 178.429 177.77 178.605 C 178.165 180.454 178.665 182.044 179.263 183.194 Z M 183.285 169.176 C 180.712 169.156 178.447 169.085 176.725 168.918 C 176.774 171.005 176.928 173.11 177.18 175.08 C 178.736 174.961 180.673 174.935 182.779 174.969 C 182.932 173.081 183.102 171.139 183.285 169.176 Z M 186.388 141.858 C 185.785 141.862 185.236 141.876 184.746 141.898 C 182.414 144.686 180.602 148.236 179.29 151.986 C 180.86 151.925 182.855 151.757 185.158 151.592 C 185.593 147.926 186.017 144.588 186.388 141.858 Z M 228.297 194.244 C 228.483 194.139 228.666 194.029 228.847 193.912 C 228.922 191.317 229.024 188.072 229.14 184.438 C 224.469 184.682 219.747 184.754 216.147 184.544 C 215.886 188.835 215.575 192.826 215.2 196.113 C 220.057 196.46 224.751 196.242 228.297 194.244 Z M 229.622 169.077 C 225.423 169.112 221.053 169.106 216.879 169.089 C 216.729 173.086 216.552 177.217 216.339 181.189 C 220.07 181.546 224.234 181.077 228.486 180.831 C 228.734 180.817 228.991 180.798 229.257 180.776 C 229.374 177.078 229.5 173.101 229.622 169.077 Z M 229.922 158.637 C 225.829 158.306 221.549 157.937 217.268 157.562 C 217.189 160.072 217.102 162.815 217.002 165.677 C 222.237 165.85 226.767 165.927 229.72 165.79 C 229.791 163.384 229.859 160.983 229.922 158.637 Z M 230.225 144.862 C 226.371 144.53 222.142 144.162 217.84 143.801 C 217.743 145.163 217.649 146.606 217.587 148.106 C 217.538 149.287 217.488 150.714 217.434 152.334 C 221.546 152.601 225.847 152.904 230.059 153.236 C 230.13 150.237 230.187 147.405 230.225 144.862 Z M 230.185 134.335 C 226.229 132.945 221.671 132.032 218.172 131.438 C 218.138 132.271 218.093 133.147 218.027 133.994 C 218.343 135.332 218.286 137.373 218.121 139.89 C 223.517 140.228 227.757 140.501 229.158 140.544 C 230.138 140.574 229.742 140.482 230.271 140.521 C 230.285 137.791 230.261 135.647 230.185 134.335 Z M 205.265 131.134 C 205.258 131.137 205.251 131.139 205.244 131.142 C 205.261 131.798 205.04 132.824 204.957 134.811 C 204.917 135.766 204.866 137.231 204.803 139.091 C 207.422 139.237 210.058 139.393 212.586 139.547 C 212.719 138.454 212.86 137.459 213.008 136.578 C 212.97 134.797 213.315 132.396 213.482 130.773 C 210.743 130.502 208.153 130.531 205.265 131.134 Z M 202.059 193.842 C 204.877 194.636 207.627 195.268 209.997 195.581 C 210.092 193.076 210.196 188.802 210.333 183.619 C 207.541 182.728 205.455 181.296 203.084 180.176 C 202.78 185.294 202.439 190.024 202.059 193.842 Z M 210.771 169.057 C 208.202 169.042 205.799 169.028 203.667 169.023 C 203.559 171.342 203.444 173.656 203.323 175.926 C 203.399 175.939 203.495 175.962 203.624 175.997 C 204.887 176.339 207.59 178.191 210.444 179.545 C 210.537 176.233 210.644 172.678 210.771 169.057 Z M 211.271 157.033 C 208.874 156.822 206.505 156.612 204.197 156.411 C 204.089 159.234 203.971 162.177 203.841 165.15 C 206.219 165.253 208.593 165.355 210.903 165.449 C 211.012 162.619 211.134 159.786 211.271 157.033 Z M 212.186 143.335 C 209.643 143.13 207.12 142.934 204.681 142.755 C 204.595 145.33 204.493 148.324 204.376 151.574 C 206.568 151.686 208.986 151.819 211.548 151.97 C 211.735 148.858 211.946 145.932 212.186 143.335 Z M 242.383 168.779 C 240.086 168.886 237.526 168.96 234.818 169.01 C 234.761 172.774 234.669 176.519 234.543 180.081 C 235.97 179.855 237.429 179.609 238.825 179.382 C 240.346 176.122 241.547 172.389 242.383 168.779 Z M 234.173 188.164 C 235.056 186.803 235.864 185.35 236.616 183.895 C 235.889 183.963 235.142 184.029 234.381 184.09 C 234.318 185.494 234.248 186.855 234.173 188.164 Z M 243.49 162.476 C 243.602 161.509 243.687 160.559 243.742 159.625 C 241.028 159.469 238.044 159.264 234.888 159.026 C 234.89 160.724 234.885 162.449 234.872 164.184 C 235.186 163.891 235.55 163.634 236.301 163.499 C 237.859 163.218 240.614 163.439 243.332 163.706 C 243.391 163.289 243.443 162.879 243.49 162.476 Z M 242.799 149.354 C 242.479 148.197 242.132 147.001 241.721 145.815 C 239.755 145.668 237.363 145.472 234.679 145.244 C 234.763 147.824 234.821 150.653 234.855 153.631 C 237.956 153.897 240.944 154.178 243.699 154.469 C 243.554 152.728 243.263 151.029 242.799 149.354 Z M 236.584 137.614 C 236.508 137.552 236.431 137.49 236.352 137.429 C 236.231 137.438 236.108 137.444 235.982 137.447 C 235.466 137.459 234.875 137.467 234.285 137.383 C 234.366 138.444 234.438 139.622 234.503 140.901 C 236.061 141.046 237.896 141.227 239.768 141.438 C 238.929 140.003 237.897 138.691 236.584 137.614 Z M 191.124 136.679 C 191.167 137.206 191.202 137.804 191.228 138.467 C 194.066 138.553 197.369 138.7 200.824 138.878 C 201.16 135.964 201.526 133.581 201.924 132.015 C 198.507 133.056 194.569 134.631 191.124 136.679 Z M 187.892 188.806 C 190.493 189.937 193.931 191.262 197.537 192.454 C 197.683 189.575 197.9 186.362 198.05 183.154 C 198.11 181.872 198.178 180.358 198.254 178.669 C 195.644 178.252 192.44 178.056 189.215 178.024 C 188.806 182.069 188.358 185.777 187.892 188.806 Z M 198.704 169.037 C 195.842 169.061 192.87 169.112 190.01 169.146 C 189.847 171.204 189.673 173.239 189.488 175.217 C 192.769 175.39 195.957 175.613 198.386 175.777 C 198.481 173.689 198.587 171.416 198.704 169.037 Z M 199.422 156 C 196.394 155.743 193.526 155.509 190.904 155.311 C 190.755 158.313 190.567 161.452 190.348 164.603 C 193.065 164.696 195.959 164.813 198.913 164.938 C 199.066 162.004 199.236 158.982 199.422 156 Z M 200.45 142.458 C 197.082 142.234 193.966 142.057 191.29 141.954 C 191.294 144.611 191.221 147.792 191.085 151.266 C 193.168 151.196 195.378 151.18 197.662 151.267 C 198.298 151.291 198.989 151.32 199.729 151.352 C 199.949 148.205 200.189 145.186 200.45 142.458 Z M 216.991 102.916 C 219.631 102.586 223.122 102.811 225.968 104.297 C 229.273 106.023 233.196 110.59 235.292 113.621 C 236.998 116.089 236.845 120.471 238.399 120.872 C 239.953 121.273 241.973 117.178 244.615 116.038 C 247.734 114.691 253.521 113.44 256.355 113.966 C 258.429 114.351 259.418 115.358 260.844 117.074 C 262.821 119.451 265.347 123.53 266.369 128.123 C 267.642 133.847 267.957 144.589 266.369 149.532 C 265.23 153.078 261.876 155.521 260.499 156.784 C 259.957 157.28 259.383 157.155 259.043 157.373 C 259.479 157.861 259.419 158.445 258.889 158.928 C 259.544 161.277 262.282 165.666 262.916 169.56 C 263.83 175.172 264.301 184.846 262.916 189.587 C 261.914 193.017 260.102 195.282 257.736 196.839 C 255.304 198.439 250.192 196.645 248.413 198.911 C 246.29 201.616 248.789 209.645 247.723 213.759 C 246.822 217.231 245.865 220.387 243.234 222.391 C 240.169 224.726 232.861 226.443 229.422 225.844 C 227.183 225.455 225.656 223.961 224.286 222.283 C 222.985 243.636 220.032 280.712 218.132 303 C 218.455 302.337 218.775 301.709 219.086 301.128 C 222.024 295.636 228.572 288.534 231.171 286.28 C 232.424 285.193 232.578 285.18 233.934 284.899 C 236.074 284.454 241.117 284.241 243.602 284.899 C 245.552 285.415 246.844 286.177 248.091 287.661 C 249.613 289.471 250.915 292.424 251.544 295.603 C 252.303 299.435 252.374 306.613 251.544 309.415 C 251.043 311.111 250.349 311.87 249.127 312.523 C 247.657 313.308 244.848 313.847 242.912 313.214 C 240.793 312.521 238.367 310.389 237.042 308.034 C 235.548 305.379 234.823 300.1 234.97 297.675 C 235.067 296.078 236.655 294.381 236.351 294.222 C 235.999 294.037 233.891 295.508 232.207 297.675 C 229.028 301.766 223.211 318.715 219.431 320.81 C 218.559 321.294 217.527 321.396 216.566 321.219 C 215.507 334.074 214.704 344.555 213.194 350.126 C 212.274 353.52 211.554 355.38 210.086 355.996 C 208.729 356.566 205.887 355.469 204.907 354.27 C 203.919 353.061 204.144 351.883 204.216 348.745 C 204.374 341.861 207.569 326.316 209.05 309.38 C 209.362 305.816 209.654 301.562 209.932 296.85 C 209.638 296.804 209.392 296.632 209.08 296.132 C 207.522 293.64 206.304 274.207 204.591 273.342 C 203.524 272.803 203.01 278.075 201.138 279.557 C 199.046 281.214 194.39 282.677 192.16 282.32 C 190.44 282.044 189.162 280.896 188.362 279.212 C 187.283 276.939 186.93 272.324 187.671 268.853 C 188.478 265.076 191.795 259.35 193.541 257.458 C 194.53 256.387 194.911 256.098 196.304 256.077 C 198.702 256.04 204.674 256.953 207.699 259.875 C 209.13 261.256 210.374 263.386 211.448 265.822 C 212.295 246.69 213.126 227.468 214.189 217.285 C 212.904 218.612 211.522 219.834 210.085 220.32 C 205.831 221.756 198.83 221.37 194.891 220.32 C 191.765 219.485 189.166 218.252 187.64 215.831 C 185.878 213.035 188.42 205.55 185.913 203.745 C 183.167 201.767 174.747 206.771 170.72 205.817 C 167.343 205.017 164.667 202.629 162.778 199.947 C 160.765 197.088 160.034 193.091 159.325 188.897 C 158.506 184.053 157.736 175.6 158.634 172.322 C 159.163 170.391 161.492 169.816 161.397 168.869 C 161.31 168.011 159.416 168.146 158.634 166.797 C 157.317 164.524 156.377 159.206 155.872 154.367 C 155.258 148.487 154.759 137.809 155.872 133.648 C 156.525 131.207 157.108 130.239 158.98 129.159 C 161.651 127.619 170.239 127.045 172.101 127.087 C 172.787 127.103 172.862 127.785 173.137 127.433 C 173.881 126.48 172.635 117.85 173.828 114.311 C 174.849 111.282 176.36 108.636 179.007 107.06 C 182.113 105.211 188.079 103.857 192.129 104.988 C 196.404 106.181 200.656 114.923 203.869 114.657 C 206.725 114.42 208.342 107.645 210.775 105.679 C 212.76 104.075 214.639 103.21 216.991 102.916 Z M 196.618 121.563 C 193.938 118.578 188.624 113.774 186.259 113.966 C 184.521 114.107 183.579 116.17 182.806 118.8 C 182.115 121.146 182.346 126.229 182.515 131.002 C 186.522 128.247 192.148 125.092 197.735 123.163 C 197.401 122.571 197.033 122.026 196.618 121.563 Z" style="fill: rgb(255, 255, 255); fill-opacity: 1; fill-rule: nonzero; stroke: none; stroke-dasharray: none; stroke-dashoffset: 0px; stroke-linecap: butt; stroke-linejoin: miter; stroke-miterlimit: 4; stroke-opacity: 1; stroke-width: 1px; paint-order: normal; vector-effect: none; opacity: 1; mix-blend-mode: normal; isolation: auto;"/>
</svg>