<?xml version="1.0" encoding="utf-8"?>
<svg viewBox="0 0 500 500" xmlns="http://www.w3.org/2000/svg">
  <path d="M 64.066 62.277 L 378.891 62.277 L 378.891 371.664 L 64.066 371.664 Z" style="fill: rgb(196, 193, 193);"/>
  <path fill="rgb(255,0,0)" stroke="rgb(255,0,0)" stroke-width="0" opacity="0.9725490196078431" d="M 225.112 191.095 C 226.189 191.421 227.225 191.875 228.175 192.472 C 229.657 191.616 231.321 190.893 232.775 190.479 C 236.133 189.522 240.468 189.38 244.082 190.479 C 247.921 191.646 251.398 193.388 255.074 197.702 C 260.596 204.183 266.446 227.968 271.72 230.052 C 275.077 231.378 279.821 226.163 281.456 223.456 C 282.871 221.115 283.487 217.846 282.084 215.29 C 280.194 211.848 270.179 209.29 267.637 205.868 C 265.733 203.304 265.712 200.595 265.753 197.702 C 265.797 194.554 266.897 190.313 268.265 187.652 C 269.443 185.362 270.869 183.333 272.976 182.313 C 275.271 181.202 279.419 181.468 281.77 181.685 C 283.579 181.852 285.069 183.406 286.167 182.941 C 287.272 182.474 287.914 180.901 288.366 178.858 C 289.089 175.584 289.18 168.211 288.366 163.783 C 287.644 159.859 286.944 154.1 284.283 153.419 C 281.012 152.581 272.856 162.094 268.579 163.469 C 265.602 164.426 263.166 164.037 261.042 163.469 C 259.17 162.968 257.433 162.44 256.331 160.642 C 254.788 158.128 253.546 153.002 254.446 148.079 C 255.657 141.455 264.026 131.42 266.381 124.21 C 268.325 118.258 269.201 111.156 268.893 107.878 C 268.723 106.059 268.452 104.838 267.323 104.424 C 265.761 103.85 261.443 105.57 259.157 106.936 C 256.982 108.237 255.774 109.572 253.818 112.275 C 250.869 116.352 247.279 126.868 243.768 130.805 C 241.234 133.646 238.36 135.077 235.916 135.831 C 233.915 136.448 231.898 136.426 230.263 135.831 C 228.663 135.248 227.326 134.911 226.18 132.376 C 223.746 126.993 225.478 100.794 221.783 97.514 C 219.617 95.592 215.515 97.576 212.989 100.341 C 209.097 104.6 207.292 119.618 204.195 126.094 C 201.88 130.937 199.599 135.198 196.971 137.087 C 195.001 138.504 192.646 138.624 190.69 138.343 C 188.779 138.069 187.242 137.742 185.351 135.517 C 181.859 131.409 177.746 112.653 173.73 110.077 C 171.371 108.564 168.139 109.894 166.506 111.647 C 164.512 113.789 164.139 118.976 163.994 123.582 C 163.818 129.154 167.639 137.222 166.506 143.054 C 165.437 148.563 161.025 155.651 158.027 157.816 C 156.01 159.271 154.169 159.017 151.745 158.444 C 148.473 157.67 142.955 154.098 140.125 151.848 C 137.924 150.099 137.376 147.713 135.413 146.509 C 133.413 145.282 129.751 143.445 128.19 144.625 C 126.24 146.097 125.424 153.53 126.305 157.501 C 127.191 161.49 130.103 165.37 133.529 168.494 C 137.376 172.002 145.925 174.157 148.918 176.974 C 150.926 178.863 151.511 180.459 152.059 182.627 C 152.661 185.007 152.769 187.751 152.059 190.793 C 151.174 194.587 150.06 200.998 146.092 203.67 C 141.221 206.949 126.01 204.151 122.537 206.182 C 120.75 207.227 120.519 208.567 120.652 210.265 C 120.838 212.641 124.248 217.803 125.677 219.373 C 126.489 220.265 126.994 220.06 127.876 220.63 C 129.069 221.4 130.269 223.176 132.273 223.77 C 134.904 224.551 139.08 224.579 142.951 223.77 C 147.539 222.812 152.448 220.85 158.027 217.489 C 165.262 213.13 175.525 201.404 182.524 198.017 C 187.514 195.602 191.691 194.992 195.715 195.504 C 196.127 195.556 196.549 195.626 196.978 195.712 C 193.547 193.065 189.35 189.674 185.576 188.483 C 179.915 186.697 172.536 189.275 167.36 187.855 C 162.788 186.601 156.843 183.302 155.739 181.26 C 155.087 180.054 155.605 178.111 156.681 177.805 C 158.495 177.289 163.868 182.275 168.616 183.458 C 174.237 184.859 182.463 182.55 188.717 184.715 C 190.993 185.503 193.724 186.926 196.365 188.556 C 193.826 185.26 190.755 182.22 187.338 179.742 C 181.583 175.569 168.109 173.252 166.295 170.633 C 165.432 169.387 165.976 167.613 167.237 167.179 C 169.699 166.33 180.336 170.073 185.453 172.832 C 190.121 175.349 194.5 179.885 197.074 182.568 C 198.831 184.401 199.573 186.366 200.529 187.279 C 201.129 187.853 201.488 187.465 202.099 188.221 C 202.518 188.741 203.076 189.651 203.677 190.774 C 203.379 187.108 202.923 183.225 201.776 180.003 C 198.568 170.993 189.109 159.404 186.072 151.736 C 183.889 146.223 182.642 139.788 182.932 137.917 C 183.044 137.19 183.374 137.077 183.874 136.975 C 184.616 136.823 186.417 136.839 187.329 137.917 C 188.755 139.605 187.997 144.03 189.841 148.595 C 192.684 155.63 202.206 167.37 205.545 176.862 C 206.33 179.094 207.098 181.744 207.781 184.497 C 208.583 177.843 209.513 170.582 209.079 166.275 C 208.439 159.929 205.426 156.449 204.682 151.199 C 203.915 145.785 204.044 136.379 204.682 134.239 C 204.913 133.466 205.134 133.35 205.624 133.297 C 206.369 133.217 208.348 133.478 209.079 134.868 C 210.348 137.281 208.364 144.958 209.079 149.943 C 209.806 155.01 212.712 159.548 213.476 165.018 C 214.038 169.041 214.021 173.882 213.829 178.373 C 217.753 172.379 222.703 165.895 224.3 160.521 C 226.274 153.876 223.326 143.762 224.928 141.991 C 225.785 141.043 227.946 142.055 228.697 142.933 C 229.531 143.91 229.35 146.426 229.325 147.959 C 229.303 149.328 228.778 150.838 228.697 151.727 C 228.644 152.297 228.63 152.476 228.697 152.984 C 228.786 153.662 229.325 154.257 229.325 155.496 C 229.325 157.642 229.076 161.429 227.44 165.546 C 226.02 169.122 222.42 174.151 219.148 179.089 C 219.904 178.249 220.629 177.481 221.282 176.806 C 223.492 174.522 225.089 175.09 227.563 172.095 C 232.063 166.65 241.42 143.953 244.837 141.63 C 246.098 140.774 247.374 141.142 247.664 142.259 C 248.344 144.884 242.556 158.784 238.87 165.186 C 235.593 170.877 230.776 175.562 227.249 179.319 C 224.951 181.768 222.712 182.595 220.745 184.751 C 227.194 179.848 247.012 173.852 250.436 171.358 C 251.621 170.496 251.174 170.297 251.693 169.474 C 252.432 168.3 253.366 165.164 254.519 164.763 C 255.514 164.417 257.686 165.194 257.974 166.333 C 258.4 168.02 256.897 172.455 253.577 175.441 C 248.193 180.284 229.349 183.965 222.798 189.575 C 222.452 189.871 222.124 190.19 221.811 190.527 C 222.996 190.605 224.137 190.8 225.112 191.095 Z M 234.22 205.228 C 234.183 208.938 229.854 214.849 230.452 216.848 C 230.815 218.063 232.75 217.159 233.592 218.419 C 235.006 220.533 236.388 227.748 236.105 230.982 C 235.893 233.399 233.385 234.733 233.592 236.635 C 233.818 238.708 237.247 240.546 237.989 242.916 C 238.75 245.347 238.512 248.778 237.989 251.082 C 237.539 253.067 235.155 254.581 235.477 256.107 C 235.821 257.743 239.122 258.889 240.502 260.504 C 241.817 262.044 242.988 263.392 243.643 265.529 C 244.452 268.172 244.86 272.285 244.271 275.58 C 243.661 278.989 239.666 282.385 239.874 285.63 C 240.082 288.876 244.59 291.68 245.527 295.052 C 246.453 298.386 245.847 302.927 245.527 305.73 C 245.288 307.829 244.109 308.726 244.271 310.756 C 244.487 313.471 248.167 317.115 248.04 320.806 C 247.892 325.063 244.652 333 242.072 334.939 C 240.267 336.296 237.858 335.634 235.791 334.939 C 233.453 334.153 231.358 330.73 228.881 329.914 C 226.526 329.137 224.325 329.309 221.344 329.914 C 217.364 330.721 211.708 334.31 206.896 335.567 C 202.286 336.772 195.581 337.902 193.077 337.451 C 191.779 337.218 191.366 336.778 190.879 335.881 C 190.223 334.674 190.024 331.671 190.251 330.228 C 190.421 329.139 191.567 328.934 191.507 327.715 C 191.406 325.659 187.783 321.202 187.11 318.293 C 186.538 315.823 186.422 313.543 187.11 311.384 C 187.828 309.133 191.596 305.935 191.507 305.102 C 191.463 304.694 190.809 305.245 190.251 304.788 C 188.934 303.711 185.233 299.117 183.969 295.68 C 182.664 292.13 181.956 287.434 182.713 283.745 C 183.458 280.115 188.331 276.587 188.366 273.695 C 188.396 271.283 185.206 269.576 184.597 267.414 C 184.025 265.381 184.056 262.913 184.597 261.132 C 185.091 259.512 186.579 257.876 187.424 257.049 C 187.991 256.495 189.014 256.413 188.994 256.107 C 188.974 255.784 187.835 255.903 187.11 255.165 C 185.767 253.796 182.936 249.817 182.085 246.685 C 181.206 243.451 181.128 239.022 182.085 236.007 C 182.96 233.249 186.894 231.38 187.11 229.097 C 187.31 226.986 184.632 225.523 183.969 222.816 C 183.122 219.353 182.46 212.406 183.276 209.233 C 175.857 214.693 166.189 223.614 160.539 226.911 C 155.144 230.059 152.121 231.501 147.348 232.564 C 142.321 233.685 136.052 234.662 131.016 233.192 C 125.881 231.693 120.124 227.004 116.883 223.456 C 114.203 220.522 112.781 217.187 111.858 214.034 C 111.003 211.114 110.304 207.867 111.23 205.24 C 112.195 202.502 114.851 199.728 117.826 198.017 C 121.215 196.066 126.911 195.249 131.016 194.876 C 134.707 194.541 139.443 197.121 141.381 195.504 C 143.323 193.883 143.153 187.378 142.637 185.14 C 142.301 183.681 141.901 183.589 140.439 182.313 C 137.404 179.666 125.677 174.135 121.908 170.064 C 119.188 167.126 118.379 164.708 117.511 161.27 C 116.517 157.329 115.93 151.654 116.883 147.451 C 117.799 143.415 119.938 138.465 122.851 136.459 C 125.592 134.571 129.942 134.335 133.529 135.202 C 137.577 136.181 143.387 140.739 145.778 143.054 C 147.311 144.539 147.108 146.145 148.29 147.137 C 149.5 148.152 151.645 149.604 153.001 149.022 C 154.696 148.294 156.405 143.948 157.084 141.17 C 157.762 138.399 157.362 135.913 157.084 132.376 C 156.721 127.756 153.662 120.505 154.572 115.416 C 155.429 110.623 158.115 105.006 161.795 102.539 C 165.518 100.044 173.101 99.679 176.871 100.655 C 179.857 101.428 181.399 102.966 183.466 105.994 C 186.592 110.573 189.102 128.446 191.946 128.293 C 194.962 128.131 197.762 108.738 201.054 102.225 C 203.527 97.332 205.87 93.581 208.906 91.233 C 211.525 89.207 214.87 88.593 217.7 88.092 C 220.298 87.632 223.328 87.45 225.238 88.092 C 226.786 88.612 227.595 89.194 228.692 90.919 C 230.516 93.784 232.797 100.483 233.717 105.994 C 234.722 112.01 232.648 124.539 234.032 125.78 C 234.794 126.465 235.952 124.788 237.486 122.954 C 240.61 119.219 246.935 105.289 251.62 100.655 C 254.983 97.328 258.364 95.893 261.67 95.001 C 264.636 94.202 267.974 94.06 270.464 95.001 C 272.862 95.908 275.098 97.64 276.431 100.341 C 278.154 103.829 278.699 110.36 278.315 115.416 C 277.921 120.618 276.138 126.281 273.918 131.12 C 271.724 135.904 266.728 140.169 265.125 144.31 C 263.801 147.73 262.523 153.414 263.868 154.047 C 265.465 154.798 272.038 146.875 276.117 145.253 C 279.68 143.835 283.899 143.329 286.795 143.996 C 289.267 144.566 291.097 145.745 292.763 148.079 C 295.045 151.278 296.939 157.891 297.788 163.155 C 298.659 168.557 298.98 175.265 297.788 180.115 C 296.733 184.408 294.609 189.129 291.821 191.107 C 289.322 192.879 284.865 192.506 282.398 192.363 C 280.557 192.257 279.074 190.334 278.001 191.107 C 276.517 192.177 274.429 198.478 275.803 201.157 C 277.39 204.251 286.347 204.039 288.994 207.753 C 291.805 211.697 292.397 220.366 291.506 224.713 C 290.804 228.144 288.656 230.228 286.167 232.564 C 283.324 235.234 278.086 238.493 274.861 239.474 C 272.468 240.202 270.431 240.075 268.579 239.474 C 266.781 238.89 265.819 238.52 263.868 236.019 C 259.722 230.703 252.104 206.706 246.28 201.785 C 242.812 198.855 239.189 199.751 235.916 199.901 C 235.141 199.937 234.319 200.125 233.493 200.385 C 233.958 201.988 234.236 203.673 234.22 205.228 Z M 219.773 200.517 C 217.913 201.006 215.515 205.807 214.12 206.798 C 213.672 207.116 213.285 207.128 212.942 207.165 C 212.692 207.648 212.437 208.008 212.174 208.213 C 211.895 208.431 211.581 208.563 211.258 208.618 C 211.03 209.031 210.895 209.489 210.979 209.939 C 211.24 211.326 213.77 214.328 215.376 214.964 C 216.741 215.504 218.507 215.497 219.773 214.336 C 221.702 212.567 224.872 204.56 224.17 202.401 C 223.696 200.941 221.255 200.127 219.773 200.517 Z M 192.763 212.451 C 191.513 214.041 192.611 220.967 194.019 223.13 C 195.106 224.798 197.121 225.722 199.045 225.642 C 201.395 225.546 206.68 222.83 207.21 221.245 C 207.608 220.056 205.848 218.781 204.698 217.477 C 203.495 216.113 201.747 214.013 199.973 212.921 C 199.804 212.851 199.648 212.762 199.502 212.656 C 199.35 212.579 199.197 212.51 199.045 212.451 C 197.117 211.703 193.771 211.17 192.763 212.451 Z M 220.401 224.386 C 217.693 224.827 211.655 228.135 211.607 230.039 C 211.561 231.905 217.376 235.317 219.773 235.693 C 221.647 235.987 223.648 235.149 224.798 233.808 C 226.132 232.254 227.538 227.832 226.683 226.271 C 225.884 224.812 222.649 224.02 220.401 224.386 Z M 194.019 236.949 C 192.568 237.418 191.859 238.195 191.507 239.462 C 191.029 241.182 191.482 245.109 192.763 246.999 C 194.023 248.857 196.784 250.529 199.045 250.768 C 201.38 251.016 204.872 249.398 206.582 248.256 C 207.885 247.385 208.212 245.976 209.095 245.115 C 209.895 244.335 211.088 243.829 211.607 243.23 C 211.984 242.796 212.454 242.502 212.236 241.974 C 211.805 240.933 208.612 238.455 205.954 237.577 C 202.78 236.529 196.377 236.187 194.019 236.949 Z M 227.939 245.115 C 226.839 244.398 223.601 245.175 221.658 246.371 C 219.353 247.79 214.861 252.344 215.376 253.909 C 215.874 255.42 221.945 256.641 224.17 255.793 C 226.258 254.998 228.059 251.456 228.567 249.512 C 228.976 247.949 228.89 245.734 227.939 245.115 Z M 205.954 262.075 C 202.128 261.834 195.163 262.732 194.019 263.959 C 193.402 264.622 193.774 265.625 194.648 266.472 C 196.341 268.112 203.923 271.143 207.21 271.497 C 209.552 271.748 211.308 271.251 212.864 270.24 C 214.471 269.197 217.187 266.517 216.633 265.215 C 215.935 263.579 209.656 262.308 205.954 262.075 Z M 229.824 263.959 C 229.266 263.807 229.215 263.973 228.567 264.587 C 226.771 266.29 217.662 276.837 217.889 279.034 C 218.013 280.236 219.972 280.102 221.658 280.291 C 224.103 280.565 229.494 280.901 231.708 279.663 C 233.498 278.661 234.419 276.493 234.849 274.637 C 235.289 272.734 235.064 270.139 234.22 268.356 C 233.382 266.584 230.834 264.235 229.824 263.959 Z M 197.16 279.663 C 194.649 280.183 192.384 283.923 192.135 286.572 C 191.859 289.5 193.996 296.133 196.532 296.622 C 199.586 297.212 210.575 288.825 210.351 285.944 C 210.142 283.262 200.273 279.018 197.16 279.663 Z M 226.683 289.713 C 223.859 289.963 216.7 291.368 216.633 293.482 C 216.545 296.225 229.717 304.995 232.964 306.044 C 234.507 306.543 235.502 306.255 236.105 305.416 C 236.925 304.276 236.662 300.818 236.105 298.507 C 235.502 296.004 234.094 292.393 232.336 290.969 C 230.823 289.744 228.889 289.517 226.683 289.713 Z M 211.607 302.904 C 208.196 302.966 202.878 307.536 200.301 309.813 C 198.389 311.503 196.799 312.927 196.532 314.838 C 196.248 316.874 196.913 321.396 199.045 321.748 C 202.518 322.321 219.341 311.256 219.773 307.929 C 220.069 305.658 214.605 302.849 211.607 302.904 Z M 227.311 315.467 C 225.422 315.411 224.226 315.868 222.914 316.723 C 221.472 317.662 219.129 320.825 219.145 321.12 C 219.154 321.287 219.593 320.64 220.401 320.492 C 222.343 320.137 230.04 319.504 232.964 320.492 C 235.11 321.216 236.525 324.587 237.361 324.261 C 238.191 323.936 239.05 320.022 237.989 318.607 C 236.602 316.757 230.008 315.546 227.311 315.467 Z" style="fill: rgb(255, 255, 255); fill-opacity: 1; fill-rule: nonzero; stroke: none; stroke-dasharray: none; stroke-dashoffset: 0px; stroke-linecap: butt; stroke-linejoin: miter; stroke-miterlimit: 4; stroke-opacity: 1; stroke-width: 1px; paint-order: normal; vector-effect: none; opacity: 1; mix-blend-mode: normal; isolation: auto;"/>
</svg>