<?xml version="1.0" encoding="utf-8"?>
<svg viewBox="0 0 500 500" xmlns="http://www.w3.org/2000/svg">
  <path d="M 64.066 62.277 L 378.891 62.277 L 378.891 371.664 L 64.066 371.664 Z" style="fill: rgb(196, 193, 193);"/>
  <path fill="rgb(255,0,0)" stroke="rgb(255,0,0)" stroke-width="0" opacity="0.9607843137254902" d="M 266.049 126.859 C 269.452 126.702 274.292 127.809 276.413 129.686 C 278.235 131.299 278.421 133.393 278.925 136.595 C 279.689 141.444 280.342 150.865 278.925 157.324 C 277.546 163.613 274.277 169.735 270.76 174.912 C 267.329 179.961 260.212 183.702 258.197 188.103 C 256.568 191.66 256.92 196.207 257.569 198.781 C 258.046 200.675 259.097 202.674 260.395 202.864 C 261.904 203.085 264.406 200.672 266.363 198.781 C 268.713 196.51 270.372 192.451 273.272 189.673 C 276.435 186.644 280.822 183.054 284.893 181.508 C 288.698 180.062 293.784 179.055 296.827 180.251 C 299.584 181.334 301.686 184.65 302.795 187.475 C 303.936 190.383 304.198 193.627 303.423 197.525 C 302.403 202.65 299.001 210.2 295.257 215.741 C 291.414 221.431 284.634 227.397 280.496 231.131 C 277.456 233.873 274.376 234.336 272.644 237.098 C 270.778 240.074 269.574 247.845 270.132 248.719 C 270.41 249.156 271.044 248.616 272.016 247.776 C 274.493 245.638 281.356 234.163 286.149 231.131 C 289.868 228.778 294.772 228.195 297.456 228.618 C 299.368 228.92 300.543 229.474 301.539 231.445 C 303.261 234.855 304.01 245.569 303.423 250.917 C 302.951 255.214 301.726 257.871 299.654 261.595 C 297.166 266.069 293.284 271.479 288.662 275.729 C 283.623 280.36 272.376 286.246 270.132 287.977 C 269.403 288.539 269.697 288.329 269.189 288.92 C 268.019 290.28 264.553 293.698 262.594 297.399 C 260.119 302.075 257.771 308.554 256.312 315.616 C 254.587 323.968 257.95 339.323 253.8 344.824 C 250.432 349.288 243.939 348.91 237.154 349.849 C 228.491 351.049 214.238 351.392 205.119 349.849 C 197.408 348.545 188.65 347.84 185.333 342.626 C 181.6 336.758 187.649 323.172 186.589 314.359 C 185.592 306.074 182.898 297.773 179.679 291.118 C 176.765 285.093 173.962 280.775 168.687 275.729 C 162.095 269.422 146.466 264.504 141.363 257.198 C 137.089 251.08 136.235 240.494 136.966 236.47 C 137.387 234.15 138.524 233.429 140.42 232.387 C 143.11 230.909 149.488 229.019 152.983 229.874 C 156.18 230.656 158.177 233.643 160.835 236.47 C 164.022 239.859 169.307 249.223 170.571 249.347 C 171.255 249.413 171.132 247.425 170.885 245.892 C 170.497 243.483 169.032 239.03 167.116 235.842 C 165.054 232.409 162.55 229.813 158.637 226.105 C 153.257 221.01 140.985 213.493 136.338 208.203 C 133.106 204.525 131.69 201.381 130.684 198.153 C 129.807 195.338 129.338 192.368 130.056 189.987 C 130.753 187.677 132.83 185.538 134.767 184.02 C 136.704 182.503 139.047 181.432 141.677 180.879 C 144.619 180.261 148.317 179.547 151.727 180.879 C 155.928 182.521 161.321 188.438 164.604 191.872 C 167.248 194.638 169.434 199.994 170.571 199.724 C 171.644 199.469 172.533 194.754 171.513 191.244 C 169.927 185.78 160.761 177.271 157.066 169.887 C 153.522 162.803 150.576 153.689 149.528 147.902 C 148.779 143.764 148.736 140.427 149.528 137.852 C 150.167 135.779 151.311 134.477 152.983 133.141 C 154.97 131.553 159.665 129.765 161.149 129.372 C 161.824 129.193 161.708 129.372 162.405 129.372 C 163.88 129.372 168.282 128.52 170.571 129.372 C 171.254 129.626 171.827 129.872 172.357 130.189 C 172.963 129.232 173.789 128.465 174.651 127.631 C 176.198 126.136 178.443 124.242 180.618 123.862 C 182.833 123.476 186.358 123.633 187.842 125.433 C 189.679 127.662 189.344 135.153 189.098 137.996 C 188.976 139.402 188.321 140.186 188.006 141.038 C 189.059 140.63 190.217 140.389 191.23 140.361 C 193.004 140.313 195.332 140.247 196.569 141.931 C 198.449 144.489 199.567 153.256 198.454 157.635 C 198.155 158.809 197.577 160.068 196.857 161.28 C 199.505 160.884 205.256 161.073 207.118 162.866 C 207.826 163.548 208.253 164.596 208.473 165.783 C 208.237 161.814 207.996 157.637 207.757 153.369 C 207.203 153.313 206.66 153.098 206.23 152.708 C 203.741 150.451 202.461 134.294 200.262 129.781 C 198.973 127.135 197.819 126.366 196.179 125.07 C 194.487 123.732 190.966 123.411 190.212 121.929 C 189.537 120.602 189.917 117.395 191.154 116.904 C 192.858 116.228 199.014 119.481 201.519 121.615 C 203.22 123.064 204.166 124.369 205.095 126.47 C 204.807 123.801 204.479 121.189 203.783 119.61 C 202.551 116.813 200.862 115.014 199.072 113.643 C 197.469 112.414 194.683 112.583 193.733 111.444 C 192.928 110.48 192.838 108.596 193.105 107.676 C 193.32 106.935 193.694 106.091 194.675 106.105 C 196.513 106.133 202.594 109.333 205.866 112.273 C 205.535 101.253 205.531 92.842 206.124 90.22 C 206.505 88.536 206.977 88.819 207.694 88.65 C 208.562 88.445 210.206 87.979 211.149 89.592 C 212.759 92.344 213.332 102.11 213.717 112.529 C 214.97 109.857 216.681 107.436 217.782 106.282 C 218.688 105.331 219.358 105.11 220.294 105.026 C 221.326 104.933 223.271 105.144 223.749 105.968 C 224.287 106.894 223.515 109.503 222.807 110.679 C 222.176 111.724 220.751 111.93 219.98 112.877 C 219.157 113.889 218.504 114.586 218.096 116.646 C 217.902 117.626 217.908 119.239 217.998 121.14 C 219.253 119.32 220.602 117.772 221.766 116.533 C 223.623 114.558 225.889 112.896 227.42 112.765 C 228.557 112.667 230.042 113.373 230.246 114.335 C 230.532 115.678 228.117 119.441 226.791 120.93 C 225.748 122.103 224.389 121.867 223.337 123.129 C 221.895 124.858 220.459 127.543 219.568 131.295 C 218.271 136.755 220.061 152.163 217.997 154.222 C 217.207 155.01 215.657 154.815 214.48 153.987 C 214.44 159.2 214.413 164.516 214.497 169.869 C 214.799 169.147 215.253 168.899 215.85 168.399 C 216.763 167.636 218.12 166.854 219.619 166.515 C 220.514 166.312 221.719 166.157 222.893 166.133 C 221.399 161.364 221.794 152.856 222.262 150.387 C 222.526 148.99 223.297 148.661 223.832 148.188 C 224.244 147.825 224.321 147.632 225.089 147.56 C 226.429 147.434 230.558 147.479 233.43 148.275 C 232.605 144.348 232.177 138.737 232.621 136.644 C 232.964 135.027 234.075 134.52 234.82 133.817 C 235.44 133.232 235.723 132.82 236.704 132.561 C 237.766 132.281 239.891 132.018 241.776 132.114 C 241.009 129.133 239.973 124.085 241.163 121.495 C 242.234 119.161 245.171 117.412 247.758 116.784 C 250.551 116.105 255.251 116.042 257.494 118.04 C 259.431 119.765 260.899 124.243 261.264 127.873 C 262.849 127.291 264.455 126.933 266.049 126.859 Z M 182.959 150.151 C 182.999 149.288 183.088 148.465 183.222 147.716 C 182.853 147.841 182.492 147.954 182.152 148.049 C 182.418 148.74 182.687 149.441 182.959 150.151 Z M 190.062 167.93 C 190.073 167.821 190.086 167.716 190.1 167.614 C 190.039 167.613 189.978 167.61 189.918 167.604 C 189.966 167.713 190.014 167.822 190.062 167.93 Z M 209.247 178.501 C 209.059 175.482 208.856 172.186 208.647 168.697 C 208.611 169.512 208.513 170.311 208.374 171.032 C 207.892 173.533 204.955 176.481 203.782 178.715 C 205.225 178.562 207.408 178.44 209.247 178.501 Z M 238.857 154.703 C 238.96 154.476 239.063 154.25 239.165 154.026 C 238.982 154.022 238.805 154.013 238.634 154 C 238.713 154.233 238.787 154.468 238.857 154.703 Z M 230.034 174.636 C 230.534 173.527 231.033 172.41 231.529 171.292 C 230.784 171.229 230.025 171.125 229.284 170.978 C 229.569 172.02 229.824 173.288 230.034 174.636 Z M 216.459 199.057 C 217.751 197.668 219.103 195.779 220.491 193.526 C 219.983 193.506 219.776 193.375 219.305 192.897 C 218.228 191.803 216.385 188.745 215.536 185.673 C 215.342 184.971 215.16 184.124 214.994 183.191 C 215.33 188.505 215.851 193.758 216.459 199.057 Z M 265.106 135.653 C 263.703 135.978 262.879 136.221 261.338 137.538 C 258.647 139.836 255.012 143.96 250.659 150.729 C 243.427 161.977 228.926 195.114 222.393 204.121 C 220.505 206.724 219.074 208.355 217.719 209.433 C 219.051 220.072 220.466 231.154 221.199 243.486 C 222.815 270.651 223.75 320.605 223.084 335.823 C 223.055 336.476 223.031 337.097 223.008 337.686 C 223.19 337.795 223.332 337.913 223.418 338.039 C 223.91 338.758 223.49 340.826 222.839 341.752 C 222.837 341.775 222.836 341.798 222.835 341.82 C 228.628 341.754 234.191 341.505 237.532 341.123 C 234.965 331.573 233.912 299.823 233.198 284.821 C 232.542 271.041 232.439 259.791 233.198 249.017 C 233.866 239.533 234.727 229.596 236.967 223.263 C 238.626 218.574 241.428 213.968 243.562 212.899 C 244.95 212.204 247.156 212.344 247.645 213.841 C 248.658 216.94 241.087 228.184 239.479 238.339 C 237.391 251.526 238.362 271.004 238.851 287.962 C 239.326 304.426 244.325 332.346 242.977 340.604 C 244.31 340.378 245.34 339.89 246.262 338.543 C 249.054 334.464 246.223 321.676 248.147 313.417 C 250.125 304.919 253.807 294.891 258.197 288.291 C 262.016 282.55 267.362 278.539 272.016 275.1 C 276.165 272.035 280.928 271.881 284.579 268.191 C 288.885 263.839 293.837 254.938 295.257 249.347 C 296.377 244.939 295.821 238.666 294.629 237.412 C 293.925 236.671 292.829 237.095 291.488 238.04 C 288.742 239.977 282.538 249.94 279.554 253.116 C 277.707 255.08 277.086 256.285 275.157 256.884 C 272.874 257.594 268.673 257.534 266.363 256.256 C 264.082 254.995 261.872 252.453 261.338 249.347 C 260.638 245.28 262.507 237.276 265.106 233.015 C 267.514 229.069 272.135 227.628 275.785 224.221 C 279.86 220.417 285.152 215.639 288.348 211.03 C 291.273 206.811 293.942 201.874 294.629 197.839 C 295.208 194.442 295.095 189.404 293.373 188.417 C 291.605 187.404 286.906 190.066 283.951 192.186 C 280.567 194.613 277.842 199.678 274.528 202.864 C 271.339 205.932 267.86 210.033 264.478 211.03 C 261.57 211.887 258.193 211.379 255.684 209.774 C 252.836 207.952 249.845 203.521 248.775 199.724 C 247.67 195.803 247.514 190.955 249.403 186.533 C 251.711 181.127 260.219 175.731 263.85 170.201 C 267.105 165.245 269.729 160.314 270.76 155.126 C 271.769 150.047 270.207 142.733 270.132 139.422 C 270.089 137.552 270.835 136.317 270.132 135.653 C 269.342 134.908 266.612 135.304 265.106 135.653 Z M 209.202 210.402 C 203.79 206.627 191.492 189.091 184.704 177.111 C 177.858 165.027 174.21 141.841 168.373 138.166 C 164.949 136.01 159.074 138.245 157.694 141.306 C 155.773 145.568 161.329 159.464 164.604 165.804 C 167.297 171.017 172.026 173.402 174.654 177.739 C 177.236 181.999 179.705 186.887 180.307 191.558 C 180.893 196.103 179.823 202.589 178.423 205.377 C 177.501 207.212 176.338 208.092 174.654 208.518 C 172.58 209.042 169.17 208.797 166.488 207.261 C 163.073 205.305 159.566 199.144 156.438 195.955 C 153.763 193.228 151.796 189.598 148.9 189.045 C 145.948 188.482 139.848 190.474 138.85 192.814 C 137.822 195.224 140.325 199.881 143.247 203.492 C 147.235 208.421 157.826 213.336 163.348 218.568 C 168.258 223.22 172.647 228.453 175.282 233.015 C 177.436 236.744 178.499 239.855 179.051 243.693 C 179.638 247.775 179.542 254.368 178.423 256.884 C 177.727 258.448 176.749 259.117 175.282 259.397 C 173.315 259.772 169.79 259.225 167.116 257.513 C 163.688 255.317 160.188 248.99 157.066 245.578 C 154.385 242.648 151.775 238.743 149.528 238.04 C 147.927 237.539 145.72 237.909 145.132 239.296 C 144.202 241.487 145.524 248.856 148.9 253.116 C 153.363 258.746 166.747 261.882 173.398 268.191 C 179.849 274.311 184.89 282.608 188.473 290.176 C 191.843 297.293 193.831 304.839 194.755 312.161 C 195.654 319.286 193.696 329.258 194.126 333.518 C 194.359 335.816 194.232 336.735 195.383 337.915 C 196.189 338.741 197.294 339.397 198.796 339.931 C 198.784 339.777 198.77 339.599 198.753 339.39 C 198.247 333.112 202.507 293.871 201.265 275.32 C 200.222 259.729 197.617 246.122 193.728 234.491 C 190.362 224.424 181.112 212.058 180.537 208.737 C 180.352 207.671 180.64 207.393 181.165 207.167 C 181.941 206.832 183.894 206.721 185.562 208.109 C 188.786 210.793 194.56 221.15 197.496 228.209 C 200.399 235.187 201.674 242.965 203.15 250.194 C 204.58 257.197 205.679 262.05 206.29 270.923 C 207.149 283.383 207.033 307.154 206.29 319.918 C 205.81 328.174 205.598 337.601 204.119 341.14 C 207.006 341.538 211.555 341.753 216.479 341.817 C 214.524 326.74 217.485 280.959 216.174 255.421 C 215.385 240.044 213.781 225.903 212.24 211.615 C 211.369 211.589 210.434 211.262 209.202 210.402 Z M 221.19 172.168 C 220.644 172.238 220.153 172.562 219.933 173.424 C 219.472 175.236 220.207 183.198 221.19 184.731 C 221.678 185.494 222.494 185.561 223.074 185.359 C 223.771 185.116 224.681 184.145 224.959 182.846 C 225.39 180.824 224.706 175.042 223.702 173.424 C 223.086 172.431 221.845 172.084 221.19 172.168 Z M 227.287 152.585 C 226.159 153.622 227.189 162.567 228.543 164.52 C 229.413 165.775 231.365 166.12 232.312 165.776 C 233.23 165.444 234.033 164.028 234.197 162.635 C 234.417 160.754 233.621 156.78 232.312 155.098 C 231.162 153.62 228.119 151.82 227.287 152.585 Z M 239.531 138.214 C 238.942 138.309 238.511 138.663 238.275 139.47 C 237.826 141.002 237.877 147.28 238.903 148.264 C 239.587 148.921 241.204 148.164 242.043 147.636 C 242.124 147.585 242.205 147.531 242.285 147.474 C 242.876 146.304 243.446 145.23 243.99 144.27 C 243.976 142.701 243.423 140.407 242.672 139.47 C 241.941 138.56 240.293 138.091 239.531 138.214 Z M 250.585 121.809 C 249.18 121.849 246.744 123.338 246.188 124.949 C 245.524 126.87 246.75 131.619 248.072 133.115 C 248.818 133.959 250.128 134.469 251.262 134.524 C 252.553 133.199 253.798 132.173 255.22 131.166 C 255.4 130.755 255.535 130.349 255.61 129.975 C 255.949 128.282 255.28 125.702 254.354 124.321 C 253.514 123.07 251.894 121.772 250.585 121.809 Z M 206.701 183.899 C 206.026 183.841 205.446 184.068 204.816 184.527 C 203.981 185.135 202.503 186.246 202.304 187.668 C 202.042 189.534 203.719 193.824 204.816 195.206 C 205.541 196.117 206.587 196.799 207.329 196.462 C 208.346 195.999 209.54 192.726 209.841 190.809 C 209.965 190.02 210.001 189.083 209.945 188.18 C 209.932 188.012 209.918 187.845 209.904 187.677 C 209.8 186.649 209.571 185.713 209.213 185.155 C 208.668 184.306 207.476 183.965 206.701 183.899 Z M 211.181 201.539 C 211.15 201.234 211.119 200.929 211.089 200.624 C 211.06 200.922 211.099 201.229 211.181 201.539 Z M 200.208 166.321 C 199.08 166.407 196.38 167.976 195.811 169.462 C 195.202 171.052 196.423 174.756 197.068 175.743 C 197.419 176.281 197.787 176.57 198.324 176.371 C 199.354 175.99 202.272 172.347 202.721 170.718 C 203.046 169.537 202.576 168.322 202.093 167.577 C 201.672 166.929 201.005 166.26 200.208 166.321 Z M 191.544 146.642 C 190.748 146.767 188.717 148.821 188.404 150.411 C 188.039 152.262 189.594 156.017 190.288 157.321 C 190.685 158.067 191.196 158.862 191.544 158.577 C 192.26 157.991 193.242 149.643 192.801 147.899 C 192.586 147.05 192.075 146.559 191.544 146.642 Z M 182.817 129.516 C 182.503 129.411 182.126 129.681 181.56 130.144 C 180.533 130.984 177.506 133.541 176.687 135.371 C 177.502 136.834 178.38 138.737 179.309 140.936 C 180.11 141.136 180.984 141.136 181.56 140.822 C 182.736 140.181 183.774 137.508 184.073 135.797 C 184.359 134.155 183.742 131.837 183.445 130.772 C 183.267 130.135 183.131 129.62 182.817 129.516 Z M 163.607 145.04 C 164.632 144.482 168.275 145.617 168.946 146.61 C 169.504 147.437 168.998 149.385 168.318 150.065 C 167.637 150.746 165.837 150.9 164.863 150.693 C 163.986 150.507 162.943 149.929 162.665 149.123 C 162.333 148.163 162.692 145.539 163.607 145.04 Z M 260.37 154.305 C 261.206 153.866 263.723 155.269 264.453 155.876 C 264.916 156.261 265.138 156.65 265.081 157.132 C 265.007 157.758 264.316 159.052 263.511 159.33 C 262.55 159.662 259.951 159.226 259.428 158.388 C 258.904 157.551 259.548 154.737 260.37 154.305 Z M 254.68 162.258 C 255.331 162.104 257.666 162.145 258.135 162.886 C 258.652 163.704 257.912 166.486 257.192 167.283 C 256.616 167.922 255.4 167.95 254.68 167.911 C 254.073 167.878 253.336 167.808 253.11 167.283 C 252.774 166.507 253.681 163.652 254.052 162.886 C 254.246 162.485 254.304 162.346 254.68 162.258 Z M 275.418 208.956 C 276.256 208.432 278.978 209.061 279.501 209.898 C 280.025 210.736 279.397 213.458 278.559 213.981 C 277.722 214.504 275 213.876 274.476 213.039 C 273.953 212.201 274.581 209.479 275.418 208.956 Z M 284.661 199.629 C 285.621 199.298 288.277 199.701 288.744 200.572 C 289.244 201.504 288.118 204.74 287.174 205.283 C 286.346 205.759 284.385 204.995 283.719 204.341 C 283.135 203.766 282.941 202.608 283.091 201.828 C 283.243 201.035 283.856 199.908 284.661 199.629 Z M 245.933 172.543 C 246.867 171.958 250.05 172.594 250.644 173.486 C 251.205 174.329 250.586 177.014 249.701 177.569 C 248.767 178.154 245.584 177.517 244.99 176.626 C 244.429 175.783 245.048 173.098 245.933 172.543 Z M 168.622 155.719 C 169.46 155.195 172.182 155.823 172.705 156.661 C 173.229 157.498 172.6 160.22 171.763 160.744 C 170.925 161.267 168.203 160.639 167.68 159.801 C 167.156 158.964 167.785 156.242 168.622 155.719 Z M 173.218 165.077 C 174.15 164.577 177.493 165.724 177.929 166.647 C 178.32 167.476 177.267 169.663 176.359 170.102 C 175.414 170.559 172.799 169.997 172.276 169.16 C 171.752 168.322 172.347 165.544 173.218 165.077 Z M 149.837 196.81 C 150.884 196.331 154.065 197.391 154.548 198.381 C 155.007 199.321 153.973 202.008 152.978 202.463 C 151.93 202.942 148.749 201.882 148.266 200.893 C 147.807 199.953 148.841 197.265 149.837 196.81 Z M 157.978 204.669 C 158.91 204.169 162.146 205.296 162.689 206.24 C 163.166 207.068 162.401 209.029 161.747 209.694 C 161.172 210.279 160.014 210.472 159.234 210.323 C 158.442 210.17 157.314 209.558 157.036 208.752 C 156.704 207.792 157.107 205.137 157.978 204.669 Z M 288.413 248.551 C 289.373 248.219 292.029 248.622 292.496 249.493 C 292.996 250.425 291.876 253.602 290.926 254.204 C 290.098 254.728 288.142 254.205 287.471 253.576 C 286.85 252.994 286.673 251.596 286.843 250.749 C 287.008 249.926 287.607 248.829 288.413 248.551 Z M 281.101 258.721 C 281.83 258.578 284.717 258.792 285.184 259.664 C 285.684 260.596 284.603 263.892 283.614 264.375 C 282.673 264.834 280.007 263.704 279.531 262.804 C 279.091 261.974 280.126 260.001 280.473 259.349 C 280.672 258.976 280.709 258.798 281.101 258.721 Z M 149.584 243.962 C 150.591 243.993 153.154 244.575 153.667 245.533 C 154.172 246.474 153.609 249.061 152.725 249.616 C 151.791 250.201 148.853 249.413 148.014 248.674 C 147.358 248.096 147.347 246.881 147.386 246.161 C 147.418 245.554 147.647 244.957 148.014 244.591 C 148.38 244.224 148.895 243.941 149.584 243.962 Z M 156.054 251.162 C 156.83 250.827 159.654 251.384 160.451 252.104 C 161.091 252.681 161.118 253.896 161.08 254.616 C 161.047 255.223 160.976 255.96 160.451 256.187 C 159.675 256.522 156.852 255.964 156.054 255.244 C 155.415 254.668 155.387 253.452 155.426 252.732 C 155.459 252.125 155.53 251.388 156.054 251.162 Z" style="fill: rgb(255, 255, 255); fill-opacity: 1; fill-rule: nonzero; stroke: none; stroke-dasharray: none; stroke-dashoffset: 0px; stroke-linecap: butt; stroke-linejoin: miter; stroke-miterlimit: 4; stroke-opacity: 1; stroke-width: 1px; paint-order: normal; vector-effect: none; opacity: 1; mix-blend-mode: normal; isolation: auto;"/>
</svg>